NotoSansKannada-CondensedLight.ufo
<glyph name="exclam.knda" format="2">
  <advance width="228"/>
  <unicode hex="0021"/>
  <outline>
    <contour>
      <point x="126" y="162" type="line"/>
      <point x="128" y="696" type="line"/>
      <point x="100" y="696" type="line"/>
      <point x="102" y="162" type="line"/>
    </contour>
    <contour>
      <point x="88" y="19" type="curve" smooth="yes"/>
      <point x="88" y="2"/>
      <point x="93" y="-12"/>
      <point x="113" y="-12" type="curve" smooth="yes"/>
      <point x="137" y="-12"/>
      <point x="140" y="2"/>
      <point x="140" y="19" type="curve" smooth="yes"/>
      <point x="140" y="35"/>
      <point x="137" y="50"/>
      <point x="113" y="50" type="curve" smooth="yes"/>
      <point x="93" y="50"/>
      <point x="88" y="35"/>
    </contour>
  </outline>
</glyph>
<glyph name="quotedbl.knda" format="2">
  <advance width="313"/>
  <unicode hex="0022"/>
  <outline>
    <contour>
      <point x="78" y="535" type="line"/>
      <point x="99" y="535" type="line"/>
      <point x="103" y="793" type="line"/>
      <point x="75" y="793" type="line"/>
    </contour>
    <contour>
      <point x="213" y="535" type="line"/>
      <point x="234" y="535" type="line"/>
      <point x="238" y="793" type="line"/>
      <point x="210" y="793" type="line"/>
    </contour>
  </outline>
</glyph>
<glyph name="numbersign.knda" format="2">
  <advance width="501"/>
  <unicode hex="0023"/>
  <outline>
    <contour>
      <point x="84" y="0" type="line"/>
      <point x="111" y="0" type="line"/>
      <point x="152" y="219" type="line"/>
      <point x="296" y="219" type="line"/>
      <point x="255" y="0" type="line"/>
      <point x="282" y="0" type="line"/>
      <point x="323" y="219" type="line"/>
      <point x="430" y="219" type="line"/>
      <point x="430" y="245" type="line"/>
      <point x="328" y="245" type="line"/>
      <point x="366" y="447" type="line"/>
      <point x="474" y="447" type="line"/>
      <point x="474" y="473" type="line"/>
      <point x="371" y="473" type="line"/>
      <point x="412" y="690" type="line"/>
      <point x="385" y="690" type="line"/>
      <point x="344" y="473" type="line"/>
      <point x="200" y="473" type="line"/>
      <point x="241" y="690" type="line"/>
      <point x="214" y="690" type="line"/>
      <point x="173" y="473" type="line"/>
      <point x="71" y="473" type="line"/>
      <point x="71" y="447" type="line"/>
      <point x="168" y="447" type="line"/>
      <point x="130" y="245" type="line"/>
      <point x="27" y="245" type="line"/>
      <point x="27" y="219" type="line"/>
      <point x="125" y="219" type="line"/>
    </contour>
    <contour>
      <point x="157" y="245" type="line"/>
      <point x="195" y="447" type="line"/>
      <point x="339" y="447" type="line"/>
      <point x="301" y="245" type="line"/>
    </contour>
  </outline>
</glyph>
<glyph name="percent.knda" format="2">
  <advance width="590"/>
  <unicode hex="0025"/>
  <outline>
    <contour>
      <point x="166" y="0" type="line"/>
      <point x="193" y="0" type="line"/>
      <point x="424" y="690" type="line"/>
      <point x="397" y="690" type="line"/>
    </contour>
    <contour>
      <point x="150" y="276" type="curve" smooth="yes"/>
      <point x="213" y="276"/>
      <point x="248" y="344"/>
      <point x="248" y="490" type="curve" smooth="yes"/>
      <point x="248" y="635"/>
      <point x="216" y="702"/>
      <point x="149" y="702" type="curve" smooth="yes"/>
      <point x="83" y="702"/>
      <point x="51" y="635"/>
      <point x="51" y="491" type="curve" smooth="yes"/>
      <point x="51" y="344"/>
      <point x="86" y="276"/>
    </contour>
    <contour>
      <point x="150" y="304" type="curve" smooth="yes"/>
      <point x="103" y="304"/>
      <point x="78" y="362"/>
      <point x="78" y="490" type="curve" smooth="yes"/>
      <point x="78" y="618"/>
      <point x="102" y="677"/>
      <point x="149" y="677" type="curve" smooth="yes"/>
      <point x="197" y="677"/>
      <point x="221" y="618"/>
      <point x="221" y="490" type="curve" smooth="yes"/>
      <point x="221" y="362"/>
      <point x="196" y="304"/>
    </contour>
    <contour>
      <point x="441" y="-12" type="curve" smooth="yes"/>
      <point x="504" y="-12"/>
      <point x="539" y="56"/>
      <point x="539" y="202" type="curve" smooth="yes"/>
      <point x="539" y="347"/>
      <point x="507" y="414"/>
      <point x="440" y="414" type="curve" smooth="yes"/>
      <point x="374" y="414"/>
      <point x="342" y="347"/>
      <point x="342" y="203" type="curve" smooth="yes"/>
      <point x="342" y="56"/>
      <point x="377" y="-12"/>
    </contour>
    <contour>
      <point x="441" y="16" type="curve" smooth="yes"/>
      <point x="394" y="16"/>
      <point x="369" y="74"/>
      <point x="369" y="202" type="curve" smooth="yes"/>
      <point x="369" y="330"/>
      <point x="393" y="389"/>
      <point x="440" y="389" type="curve" smooth="yes"/>
      <point x="488" y="389"/>
      <point x="512" y="330"/>
      <point x="512" y="202" type="curve" smooth="yes"/>
      <point x="512" y="74"/>
      <point x="487" y="16"/>
    </contour>
  </outline>
</glyph>
<glyph name="quotesingle.knda" format="2">
  <advance width="178"/>
  <unicode hex="0027"/>
  <outline>
    <contour>
      <point x="78" y="535" type="line"/>
      <point x="99" y="535" type="line"/>
      <point x="103" y="793" type="line"/>
      <point x="75" y="793" type="line"/>
    </contour>
  </outline>
</glyph>
<glyph name="parenleft.knda" format="2">
  <advance width="325"/>
  <unicode hex="0028"/>
  <outline>
    <contour>
      <point x="51" y="212" type="curve" smooth="yes"/>
      <point x="51" y="-7"/>
      <point x="113" y="-208"/>
      <point x="234" y="-368" type="curve"/>
      <point x="263" y="-368" type="line"/>
      <point x="131" y="-188"/>
      <point x="78" y="3"/>
      <point x="78" y="213" type="curve" smooth="yes"/>
      <point x="78" y="422"/>
      <point x="131" y="613"/>
      <point x="263" y="793" type="curve"/>
      <point x="234" y="793" type="line"/>
      <point x="113" y="633"/>
      <point x="51" y="432"/>
    </contour>
  </outline>
</glyph>
<glyph name="parenright.knda" format="2">
  <advance width="325"/>
  <unicode hex="0029"/>
  <outline>
    <contour>
      <point x="274" y="213" type="curve" smooth="yes"/>
      <point x="274" y="432"/>
      <point x="212" y="633"/>
      <point x="91" y="793" type="curve"/>
      <point x="62" y="793" type="line"/>
      <point x="194" y="613"/>
      <point x="247" y="422"/>
      <point x="247" y="212" type="curve" smooth="yes"/>
      <point x="247" y="3"/>
      <point x="194" y="-188"/>
      <point x="62" y="-368" type="curve"/>
      <point x="91" y="-368" type="line"/>
      <point x="212" y="-208"/>
      <point x="274" y="-7"/>
    </contour>
  </outline>
</glyph>
<glyph name="asterisk.knda" format="2">
  <advance width="494"/>
  <unicode hex="002A"/>
  <outline>
    <contour>
      <point x="261" y="793" type="line"/>
      <point x="233" y="793" type="line"/>
      <point x="236" y="600" type="line"/>
      <point x="54" y="663" type="line"/>
      <point x="45" y="636" type="line"/>
      <point x="230" y="581" type="line"/>
      <point x="116" y="429" type="line"/>
      <point x="139" y="413" type="line"/>
      <point x="247" y="570" type="line"/>
      <point x="356" y="412" type="line"/>
      <point x="379" y="429" type="line"/>
      <point x="264" y="581" type="line"/>
      <point x="449" y="636" type="line"/>
      <point x="441" y="663" type="line"/>
      <point x="258" y="600" type="line"/>
    </contour>
  </outline>
</glyph>
<glyph name="plus.knda" format="2">
  <advance width="399"/>
  <unicode hex="002B"/>
  <outline>
    <contour>
      <point x="187" y="118" type="line"/>
      <point x="213" y="118" type="line"/>
      <point x="213" y="330" type="line"/>
      <point x="366" y="330" type="line"/>
      <point x="366" y="356" type="line"/>
      <point x="213" y="356" type="line"/>
      <point x="213" y="568" type="line"/>
      <point x="187" y="568" type="line"/>
      <point x="187" y="356" type="line"/>
      <point x="32" y="356" type="line"/>
      <point x="32" y="330" type="line"/>
      <point x="187" y="330" type="line"/>
    </contour>
  </outline>
</glyph>
<glyph name="hyphen.knda" format="2">
  <advance width="304"/>
  <unicode hex="002D"/>
  <outline>
    <contour>
      <point x="38" y="269" type="line"/>
      <point x="266" y="269" type="line"/>
      <point x="266" y="294" type="line"/>
      <point x="38" y="294" type="line"/>
    </contour>
  </outline>
</glyph>
<glyph name="zero.knda" format="2">
  <advance width="399"/>
  <unicode hex="0030"/>
  <outline>
    <contour>
      <point x="349" y="346" type="curve" smooth="yes"/>
      <point x="349" y="560"/>
      <point x="314" y="702"/>
      <point x="199" y="702" type="curve" smooth="yes"/>
      <point x="84" y="702"/>
      <point x="49" y="568"/>
      <point x="49" y="344" type="curve" smooth="yes"/>
      <point x="49" y="130"/>
      <point x="84" y="-12"/>
      <point x="199" y="-12" type="curve" smooth="yes"/>
      <point x="314" y="-12"/>
      <point x="349" y="122"/>
    </contour>
    <contour>
      <point x="75" y="345" type="curve" smooth="yes"/>
      <point x="75" y="540"/>
      <point x="103" y="676"/>
      <point x="199" y="676" type="curve" smooth="yes"/>
      <point x="294" y="676"/>
      <point x="323" y="534"/>
      <point x="323" y="345" type="curve" smooth="yes"/>
      <point x="323" y="150"/>
      <point x="295" y="14"/>
      <point x="199" y="14" type="curve" smooth="yes"/>
      <point x="104" y="14"/>
      <point x="75" y="155"/>
    </contour>
  </outline>
</glyph>
<glyph name="one.knda" format="2">
  <advance width="399"/>
  <unicode hex="0031"/>
  <outline>
    <contour>
      <point x="248" y="0" type="line"/>
      <point x="248" y="702" type="line"/>
      <point x="225" y="702" type="line"/>
      <point x="66" y="541" type="line"/>
      <point x="85" y="523" type="line"/>
      <point x="183" y="625" type="line" smooth="yes"/>
      <point x="198" y="640"/>
      <point x="210" y="653"/>
      <point x="223" y="671" type="curve"/>
      <point x="222" y="627"/>
      <point x="222" y="599"/>
      <point x="222" y="557" type="curve" smooth="yes"/>
      <point x="222" y="0" type="line"/>
    </contour>
  </outline>
</glyph>
<glyph name="two.knda" format="2">
  <advance width="399"/>
  <unicode hex="0032"/>
  <outline>
    <contour>
      <point x="347" y="0" type="line"/>
      <point x="347" y="26" type="line"/>
      <point x="72" y="26" type="line"/>
      <point x="72" y="27" type="line"/>
      <point x="210" y="232" type="line" smooth="yes"/>
      <point x="300" y="367"/>
      <point x="332" y="426"/>
      <point x="332" y="528" type="curve" smooth="yes"/>
      <point x="332" y="642"/>
      <point x="258" y="702"/>
      <point x="173" y="702" type="curve" smooth="yes"/>
      <point x="118" y="702"/>
      <point x="74" y="682"/>
      <point x="39" y="659" type="curve"/>
      <point x="54" y="637" type="line"/>
      <point x="83" y="656"/>
      <point x="118" y="676"/>
      <point x="170" y="676" type="curve" smooth="yes"/>
      <point x="241" y="676"/>
      <point x="305" y="631"/>
      <point x="305" y="528" type="curve" smooth="yes"/>
      <point x="305" y="425"/>
      <point x="262" y="358"/>
      <point x="188" y="246" type="curve" smooth="yes"/>
      <point x="37" y="21" type="line"/>
      <point x="37" y="0" type="line"/>
    </contour>
  </outline>
</glyph>
<glyph name="three.knda" format="2">
  <advance width="399"/>
  <unicode hex="0033"/>
  <outline>
    <contour>
      <point x="325" y="540" type="curve" smooth="yes"/>
      <point x="325" y="643"/>
      <point x="264" y="702"/>
      <point x="173" y="702" type="curve" smooth="yes"/>
      <point x="118" y="702"/>
      <point x="71" y="684"/>
      <point x="21" y="648" type="curve"/>
      <point x="35" y="626" type="line"/>
      <point x="75" y="654"/>
      <point x="116" y="676"/>
      <point x="172" y="676" type="curve" smooth="yes"/>
      <point x="249" y="676"/>
      <point x="298" y="630"/>
      <point x="298" y="536" type="curve" smooth="yes"/>
      <point x="298" y="444"/>
      <point x="235" y="374"/>
      <point x="135" y="374" type="curve" smooth="yes"/>
      <point x="94" y="374" type="line"/>
      <point x="94" y="348" type="line"/>
      <point x="129" y="348" type="line" smooth="yes"/>
      <point x="229" y="348"/>
      <point x="307" y="305"/>
      <point x="307" y="185" type="curve" smooth="yes"/>
      <point x="307" y="73"/>
      <point x="253" y="14"/>
      <point x="156" y="14" type="curve" smooth="yes"/>
      <point x="97" y="14"/>
      <point x="59" y="24"/>
      <point x="22" y="39" type="curve"/>
      <point x="22" y="11" type="line"/>
      <point x="64" y="-6"/>
      <point x="118" y="-12"/>
      <point x="158" y="-12" type="curve" smooth="yes"/>
      <point x="273" y="-12"/>
      <point x="334" y="66"/>
      <point x="334" y="183" type="curve" smooth="yes"/>
      <point x="334" y="288"/>
      <point x="281" y="345"/>
      <point x="201" y="360" type="curve"/>
      <point x="201" y="362" type="line"/>
      <point x="264" y="383"/>
      <point x="325" y="432"/>
    </contour>
  </outline>
</glyph>
<glyph name="four.knda" format="2">
  <advance width="399"/>
  <unicode hex="0034"/>
  <outline>
    <contour>
      <point x="382" y="187" type="line"/>
      <point x="382" y="213" type="line"/>
      <point x="297" y="213" type="line"/>
      <point x="297" y="697" type="line"/>
      <point x="269" y="697" type="line"/>
      <point x="21" y="212" type="line"/>
      <point x="21" y="187" type="line"/>
      <point x="271" y="187" type="line"/>
      <point x="271" y="0" type="line"/>
      <point x="297" y="0" type="line"/>
      <point x="297" y="187" type="line"/>
    </contour>
    <contour>
      <point x="271" y="213" type="line"/>
      <point x="51" y="213" type="line"/>
      <point x="225" y="552" type="line" smooth="yes"/>
      <point x="241" y="583"/>
      <point x="257" y="614"/>
      <point x="270" y="649" type="curve"/>
      <point x="272" y="649" type="line"/>
      <point x="271" y="627"/>
      <point x="271" y="614"/>
      <point x="271" y="589" type="curve" smooth="yes"/>
    </contour>
  </outline>
</glyph>
<glyph name="five.knda" format="2">
  <advance width="399"/>
  <unicode hex="0035"/>
  <outline>
    <contour>
      <point x="161" y="-12" type="curve" smooth="yes"/>
      <point x="294" y="-12"/>
      <point x="351" y="86"/>
      <point x="351" y="215" type="curve" smooth="yes"/>
      <point x="351" y="331"/>
      <point x="300" y="415"/>
      <point x="183" y="415" type="curve" smooth="yes"/>
      <point x="140" y="415"/>
      <point x="105" y="408"/>
      <point x="82" y="400" type="curve"/>
      <point x="101" y="664" type="line"/>
      <point x="311" y="664" type="line"/>
      <point x="311" y="690" type="line"/>
      <point x="76" y="690" type="line"/>
      <point x="54" y="384" type="line"/>
      <point x="70" y="369" type="line"/>
      <point x="95" y="380"/>
      <point x="138" y="389"/>
      <point x="178" y="389" type="curve" smooth="yes"/>
      <point x="284" y="389"/>
      <point x="324" y="319"/>
      <point x="324" y="215" type="curve" smooth="yes"/>
      <point x="324" y="101"/>
      <point x="278" y="14"/>
      <point x="161" y="14" type="curve" smooth="yes"/>
      <point x="107" y="14"/>
      <point x="75" y="24"/>
      <point x="47" y="37" type="curve"/>
      <point x="47" y="8" type="line"/>
      <point x="77" y="-4"/>
      <point x="117" y="-12"/>
    </contour>
  </outline>
</glyph>
<glyph name="six.knda" format="2">
  <advance width="399"/>
  <unicode hex="0036"/>
  <outline>
    <contour>
      <point x="52" y="297" type="curve" smooth="yes"/>
      <point x="52" y="88"/>
      <point x="97" y="-12"/>
      <point x="207" y="-12" type="curve" smooth="yes"/>
      <point x="297" y="-12"/>
      <point x="353" y="68"/>
      <point x="353" y="213" type="curve" smooth="yes"/>
      <point x="353" y="345"/>
      <point x="307" y="426"/>
      <point x="209" y="426" type="curve" smooth="yes"/>
      <point x="129" y="426"/>
      <point x="93" y="369"/>
      <point x="79" y="325" type="curve"/>
      <point x="78" y="325" type="line"/>
      <point x="82" y="551"/>
      <point x="141" y="677"/>
      <point x="265" y="677" type="curve" smooth="yes"/>
      <point x="282" y="677"/>
      <point x="307" y="675"/>
      <point x="327" y="670" type="curve"/>
      <point x="327" y="695" type="line"/>
      <point x="306" y="700"/>
      <point x="285" y="702"/>
      <point x="266" y="702" type="curve" smooth="yes"/>
      <point x="145" y="702"/>
      <point x="52" y="608"/>
    </contour>
    <contour>
      <point x="205" y="14" type="curve" smooth="yes"/>
      <point x="98" y="14"/>
      <point x="81" y="153"/>
      <point x="81" y="239" type="curve" smooth="yes"/>
      <point x="81" y="334"/>
      <point x="132" y="400"/>
      <point x="209" y="400" type="curve" smooth="yes"/>
      <point x="296" y="400"/>
      <point x="326" y="324"/>
      <point x="326" y="215" type="curve" smooth="yes"/>
      <point x="326" y="85"/>
      <point x="284" y="14"/>
    </contour>
  </outline>
</glyph>
<glyph name="seven.knda" format="2">
  <advance width="399"/>
  <unicode hex="0037"/>
  <outline>
    <contour>
      <point x="95" y="0" type="line"/>
      <point x="123" y="0" type="line"/>
      <point x="362" y="668" type="line"/>
      <point x="362" y="690" type="line"/>
      <point x="26" y="690" type="line"/>
      <point x="26" y="664" type="line"/>
      <point x="333" y="664" type="line"/>
    </contour>
  </outline>
</glyph>
<glyph name="eight.knda" format="2">
  <advance width="399"/>
  <unicode hex="0038"/>
  <outline>
    <contour>
      <point x="204" y="702" type="curve" smooth="yes"/>
      <point x="115" y="702"/>
      <point x="56" y="640"/>
      <point x="56" y="549" type="curve" smooth="yes"/>
      <point x="56" y="470"/>
      <point x="101" y="416"/>
      <point x="175" y="369" type="curve"/>
      <point x="103" y="328"/>
      <point x="39" y="265"/>
      <point x="39" y="164" type="curve" smooth="yes"/>
      <point x="39" y="60"/>
      <point x="103" y="-12"/>
      <point x="202" y="-12" type="curve" smooth="yes"/>
      <point x="299" y="-12"/>
      <point x="360" y="65"/>
      <point x="360" y="164" type="curve" smooth="yes"/>
      <point x="360" y="261"/>
      <point x="303" y="315"/>
      <point x="222" y="368" type="curve"/>
      <point x="297" y="413"/>
      <point x="345" y="454"/>
      <point x="345" y="550" type="curve" smooth="yes"/>
      <point x="345" y="638"/>
      <point x="294" y="702"/>
    </contour>
    <contour>
      <point x="66" y="163" type="curve" smooth="yes"/>
      <point x="66" y="260"/>
      <point x="128" y="317"/>
      <point x="198" y="355" type="curve"/>
      <point x="212" y="346" type="line" smooth="yes"/>
      <point x="301" y="291"/>
      <point x="333" y="230"/>
      <point x="333" y="164" type="curve" smooth="yes"/>
      <point x="333" y="76"/>
      <point x="283" y="14"/>
      <point x="201" y="14" type="curve" smooth="yes"/>
      <point x="123" y="14"/>
      <point x="66" y="68"/>
    </contour>
    <contour>
      <point x="203" y="676" type="curve" smooth="yes"/>
      <point x="277" y="676"/>
      <point x="318" y="628"/>
      <point x="318" y="549" type="curve" smooth="yes"/>
      <point x="318" y="462"/>
      <point x="271" y="424"/>
      <point x="200" y="381" type="curve"/>
      <point x="124" y="429"/>
      <point x="83" y="476"/>
      <point x="83" y="547" type="curve" smooth="yes"/>
      <point x="83" y="626"/>
      <point x="127" y="676"/>
    </contour>
  </outline>
</glyph>
<glyph name="nine.knda" format="2">
  <advance width="399"/>
  <unicode hex="0039"/>
  <outline>
    <contour>
      <point x="347" y="390" type="curve" smooth="yes"/>
      <point x="347" y="602"/>
      <point x="304" y="702"/>
      <point x="192" y="702" type="curve" smooth="yes"/>
      <point x="102" y="702"/>
      <point x="46" y="623"/>
      <point x="46" y="478" type="curve" smooth="yes"/>
      <point x="46" y="345"/>
      <point x="90" y="266"/>
      <point x="190" y="266" type="curve" smooth="yes"/>
      <point x="270" y="266"/>
      <point x="307" y="324"/>
      <point x="320" y="368" type="curve"/>
      <point x="321" y="368" type="line"/>
      <point x="320" y="136"/>
      <point x="262" y="13"/>
      <point x="135" y="13" type="curve" smooth="yes"/>
      <point x="115" y="13"/>
      <point x="92" y="15"/>
      <point x="76" y="20" type="curve"/>
      <point x="76" y="-5" type="line"/>
      <point x="93" y="-10"/>
      <point x="118" y="-12"/>
      <point x="135" y="-12" type="curve" smooth="yes"/>
      <point x="258" y="-12"/>
      <point x="347" y="76"/>
    </contour>
    <contour>
      <point x="194" y="676" type="curve" smooth="yes"/>
      <point x="301" y="676"/>
      <point x="318" y="538"/>
      <point x="318" y="455" type="curve" smooth="yes"/>
      <point x="318" y="359"/>
      <point x="267" y="292"/>
      <point x="190" y="292" type="curve" smooth="yes"/>
      <point x="103" y="292"/>
      <point x="73" y="367"/>
      <point x="73" y="476" type="curve" smooth="yes"/>
      <point x="73" y="606"/>
      <point x="115" y="676"/>
    </contour>
  </outline>
</glyph>
<glyph name="less.knda" format="2">
  <advance width="399"/>
  <unicode hex="003C"/>
  <outline>
    <contour>
      <point x="367" y="141" type="line"/>
      <point x="367" y="170" type="line"/>
      <point x="60" y="356" type="line"/>
      <point x="367" y="516" type="line"/>
      <point x="367" y="545" type="line"/>
      <point x="32" y="368" type="line"/>
      <point x="32" y="344" type="line"/>
    </contour>
  </outline>
</glyph>
<glyph name="equal.knda" format="2">
  <advance width="399"/>
  <unicode hex="003D"/>
  <outline>
    <contour>
      <point x="35" y="434" type="line"/>
      <point x="367" y="434" type="line"/>
      <point x="367" y="460" type="line"/>
      <point x="35" y="460" type="line"/>
    </contour>
    <contour>
      <point x="35" y="225" type="line"/>
      <point x="367" y="225" type="line"/>
      <point x="367" y="251" type="line"/>
      <point x="35" y="251" type="line"/>
    </contour>
  </outline>
</glyph>
<glyph name="greater.knda" format="2">
  <advance width="399"/>
  <unicode hex="003E"/>
  <outline>
    <contour>
      <point x="32" y="141" type="line"/>
      <point x="367" y="344" type="line"/>
      <point x="367" y="367" type="line"/>
      <point x="32" y="545" type="line"/>
      <point x="32" y="516" type="line"/>
      <point x="339" y="355" type="line"/>
      <point x="32" y="170" type="line"/>
    </contour>
  </outline>
</glyph>
<glyph name="question.knda" format="2">
  <advance width="331"/>
  <unicode hex="003F"/>
  <outline>
    <contour>
      <point x="157" y="702" type="curve" smooth="yes"/>
      <point x="116" y="702"/>
      <point x="80" y="688"/>
      <point x="54" y="675" type="curve"/>
      <point x="65" y="651" type="line"/>
      <point x="92" y="665"/>
      <point x="124" y="676"/>
      <point x="156" y="676" type="curve" smooth="yes"/>
      <point x="219" y="676"/>
      <point x="255" y="632"/>
      <point x="255" y="547" type="curve" smooth="yes"/>
      <point x="255" y="466"/>
      <point x="223" y="421"/>
      <point x="183" y="364" type="curve" smooth="yes"/>
      <point x="137" y="299"/>
      <point x="126" y="260"/>
      <point x="126" y="178" type="curve" smooth="yes"/>
      <point x="126" y="168" type="line"/>
      <point x="152" y="168" type="line"/>
      <point x="152" y="177" type="line" smooth="yes"/>
      <point x="152" y="244"/>
      <point x="160" y="284"/>
      <point x="207" y="352" type="curve" smooth="yes"/>
      <point x="249" y="412"/>
      <point x="282" y="463"/>
      <point x="282" y="547" type="curve" smooth="yes"/>
      <point x="282" y="649"/>
      <point x="231" y="702"/>
    </contour>
    <contour>
      <point x="139" y="-8" type="curve" smooth="yes"/>
      <point x="163" y="-8"/>
      <point x="166" y="6"/>
      <point x="166" y="23" type="curve" smooth="yes"/>
      <point x="166" y="39"/>
      <point x="163" y="54"/>
      <point x="139" y="54" type="curve" smooth="yes"/>
      <point x="119" y="54"/>
      <point x="114" y="39"/>
      <point x="114" y="23" type="curve" smooth="yes"/>
      <point x="114" y="6"/>
      <point x="119" y="-8"/>
    </contour>
  </outline>
</glyph>
<glyph name="bracketleft.knda" format="2">
  <advance width="348"/>
  <unicode hex="005B"/>
  <outline>
    <contour>
      <point x="268" y="-369" type="line"/>
      <point x="268" y="-343" type="line"/>
      <point x="109" y="-343" type="line"/>
      <point x="109" y="766" type="line"/>
      <point x="268" y="766" type="line"/>
      <point x="268" y="792" type="line"/>
      <point x="83" y="792" type="line"/>
      <point x="83" y="-369" type="line"/>
    </contour>
  </outline>
</glyph>
<glyph name="backslash.knda" format="2">
  <advance width="410"/>
  <unicode hex="005C"/>
  <outline>
    <contour>
      <point x="100" y="793" type="line"/>
      <point x="74" y="793" type="line"/>
      <point x="310" y="-368" type="line"/>
      <point x="336" y="-368" type="line"/>
    </contour>
  </outline>
</glyph>
<glyph name="bracketright.knda" format="2">
  <advance width="348"/>
  <unicode hex="005D"/>
  <outline>
    <contour>
      <point x="80" y="-343" type="line"/>
      <point x="80" y="-369" type="line"/>
      <point x="265" y="-369" type="line"/>
      <point x="265" y="792" type="line"/>
      <point x="80" y="792" type="line"/>
      <point x="80" y="766" type="line"/>
      <point x="239" y="766" type="line"/>
      <point x="239" y="-343" type="line"/>
    </contour>
  </outline>
</glyph>
<glyph name="underscore.knda" format="2">
  <advance width="357"/>
  <unicode hex="005F"/>
  <outline>
    <contour>
      <point x="-2" y="-115" type="line"/>
      <point x="359" y="-115" type="line"/>
      <point x="359" y="-90" type="line"/>
      <point x="-2" y="-90" type="line"/>
    </contour>
  </outline>
</glyph>
<glyph name="braceleft.knda" format="2">
  <advance width="344"/>
  <unicode hex="007B"/>
  <outline>
    <contour>
      <point x="305" y="-369" type="curve"/>
      <point x="305" y="-343" type="line"/>
      <point x="199" y="-343"/>
      <point x="167" y="-317"/>
      <point x="167" y="-230" type="curve" smooth="yes"/>
      <point x="167" y="88" type="line" smooth="yes"/>
      <point x="167" y="163"/>
      <point x="146" y="197"/>
      <point x="89" y="210" type="curve"/>
      <point x="89" y="212" type="line"/>
      <point x="147" y="223"/>
      <point x="167" y="269"/>
      <point x="167" y="337" type="curve" smooth="yes"/>
      <point x="167" y="650" type="line" smooth="yes"/>
      <point x="167" y="731"/>
      <point x="209" y="766"/>
      <point x="305" y="766" type="curve"/>
      <point x="305" y="792" type="line"/>
      <point x="197" y="792"/>
      <point x="141" y="743"/>
      <point x="141" y="656" type="curve" smooth="yes"/>
      <point x="141" y="341" type="line" smooth="yes"/>
      <point x="141" y="255"/>
      <point x="111" y="224"/>
      <point x="30" y="224" type="curve"/>
      <point x="30" y="198" type="line"/>
      <point x="111" y="198"/>
      <point x="141" y="169"/>
      <point x="141" y="84" type="curve" smooth="yes"/>
      <point x="141" y="-236" type="line" smooth="yes"/>
      <point x="141" y="-334"/>
      <point x="188" y="-369"/>
    </contour>
  </outline>
</glyph>
<glyph name="bar.knda" format="2">
  <advance width="503"/>
  <unicode hex="007C"/>
  <outline>
    <contour>
      <point x="243" y="792" type="line"/>
      <point x="243" y="-369" type="line"/>
      <point x="269" y="-369" type="line"/>
      <point x="269" y="792" type="line"/>
    </contour>
  </outline>
</glyph>
<glyph name="braceright.knda" format="2">
  <advance width="344"/>
  <unicode hex="007D"/>
  <outline>
    <contour>
      <point x="39" y="792" type="curve"/>
      <point x="39" y="766" type="line"/>
      <point x="145" y="766"/>
      <point x="177" y="740"/>
      <point x="177" y="653" type="curve" smooth="yes"/>
      <point x="177" y="335" type="line" smooth="yes"/>
      <point x="177" y="260"/>
      <point x="198" y="226"/>
      <point x="255" y="213" type="curve"/>
      <point x="255" y="211" type="line"/>
      <point x="197" y="200"/>
      <point x="177" y="154"/>
      <point x="177" y="86" type="curve" smooth="yes"/>
      <point x="177" y="-227" type="line" smooth="yes"/>
      <point x="177" y="-308"/>
      <point x="135" y="-343"/>
      <point x="39" y="-343" type="curve"/>
      <point x="39" y="-369" type="line"/>
      <point x="147" y="-369"/>
      <point x="203" y="-320"/>
      <point x="203" y="-233" type="curve" smooth="yes"/>
      <point x="203" y="82" type="line" smooth="yes"/>
      <point x="203" y="168"/>
      <point x="233" y="199"/>
      <point x="314" y="199" type="curve"/>
      <point x="314" y="225" type="line"/>
      <point x="233" y="225"/>
      <point x="203" y="254"/>
      <point x="203" y="339" type="curve" smooth="yes"/>
      <point x="203" y="659" type="line" smooth="yes"/>
      <point x="203" y="757"/>
      <point x="156" y="792"/>
    </contour>
  </outline>
</glyph>
<glyph name="asciitilde.knda" format="2">
  <advance width="399"/>
  <unicode hex="007E"/>
  <outline>
    <contour>
      <point x="197" y="332" type="curve" smooth="yes"/>
      <point x="230" y="312"/>
      <point x="253" y="302"/>
      <point x="285" y="302" type="curve" smooth="yes"/>
      <point x="320" y="302"/>
      <point x="349" y="321"/>
      <point x="369" y="344" type="curve"/>
      <point x="369" y="377" type="line"/>
      <point x="340" y="343"/>
      <point x="316" y="328"/>
      <point x="286" y="328" type="curve" smooth="yes"/>
      <point x="254" y="328"/>
      <point x="241" y="336"/>
      <point x="206" y="357" type="curve" smooth="yes"/>
      <point x="181" y="373"/>
      <point x="154" y="385"/>
      <point x="124" y="385" type="curve" smooth="yes"/>
      <point x="84" y="385"/>
      <point x="55" y="364"/>
      <point x="30" y="340" type="curve"/>
      <point x="30" y="307" type="line"/>
      <point x="63" y="342"/>
      <point x="89" y="359"/>
      <point x="124" y="359" type="curve" smooth="yes"/>
      <point x="150" y="359"/>
      <point x="168" y="350"/>
    </contour>
  </outline>
</glyph>
<glyph name="multiply.knda" format="2">
  <advance width="399"/>
  <unicode hex="00D7"/>
  <outline>
    <contour>
      <point x="342" y="504" type="line"/>
      <point x="199" y="361" type="line"/>
      <point x="56" y="504" type="line"/>
      <point x="38" y="486" type="line"/>
      <point x="181" y="343" type="line"/>
      <point x="38" y="200" type="line"/>
      <point x="56" y="182" type="line"/>
      <point x="199" y="325" type="line"/>
      <point x="342" y="182" type="line"/>
      <point x="360" y="200" type="line"/>
      <point x="217" y="343" type="line"/>
      <point x="360" y="486" type="line"/>
    </contour>
  </outline>
</glyph>
<glyph name="divide.knda" format="2">
  <advance width="399"/>
  <unicode hex="00F7"/>
  <outline>
    <contour>
      <point x="34" y="330" type="line"/>
      <point x="366" y="330" type="line"/>
      <point x="366" y="356" type="line"/>
      <point x="34" y="356" type="line"/>
    </contour>
    <contour>
      <point x="200" y="130" type="curve" smooth="yes"/>
      <point x="220" y="130"/>
      <point x="225" y="146"/>
      <point x="225" y="166" type="curve" smooth="yes"/>
      <point x="225" y="185"/>
      <point x="220" y="201"/>
      <point x="200" y="201" type="curve" smooth="yes"/>
      <point x="182" y="201"/>
      <point x="175" y="186"/>
      <point x="175" y="164" type="curve" smooth="yes"/>
      <point x="175" y="147"/>
      <point x="179" y="130"/>
    </contour>
    <contour>
      <point x="200" y="484" type="curve" smooth="yes"/>
      <point x="220" y="484"/>
      <point x="225" y="499"/>
      <point x="225" y="519" type="curve" smooth="yes"/>
      <point x="225" y="539"/>
      <point x="220" y="555"/>
      <point x="200" y="555" type="curve" smooth="yes"/>
      <point x="180" y="555"/>
      <point x="175" y="539"/>
      <point x="175" y="520" type="curve" smooth="yes"/>
      <point x="175" y="500"/>
      <point x="180" y="484"/>
    </contour>
  </outline>
</glyph>
<glyph name="uni0951" format="2">
  <unicode hex="0951"/>
  <outline>
    <contour>
      <point x="-265" y="804" type="line"/>
      <point x="-291" y="804" type="line"/>
      <point x="-291" y="604" type="line"/>
      <point x="-265" y="604" type="line"/>
    </contour>
  </outline>
</glyph>
<glyph name="uni0952" format="2">
  <unicode hex="0952"/>
  <outline>
    <contour>
      <point x="-425" y="-160" type="line"/>
      <point x="-130" y="-160" type="line"/>
      <point x="-130" y="-134" type="line"/>
      <point x="-425" y="-134" type="line"/>
    </contour>
  </outline>
</glyph>
<glyph name="dandaknda" format="2">
  <advance width="262"/>
  <unicode hex="0964"/>
  <outline>
    <contour>
      <point x="150" y="-139" type="line"/>
      <point x="176" y="-139" type="line"/>
      <point x="176" y="702" type="line"/>
      <point x="150" y="702" type="line"/>
    </contour>
  </outline>
</glyph>
<glyph name="dbldandaknda" format="2">
  <advance width="409"/>
  <unicode hex="0965"/>
  <outline>
    <contour>
      <point x="297" y="-139" type="line"/>
      <point x="323" y="-139" type="line"/>
      <point x="323" y="702" type="line"/>
      <point x="297" y="702" type="line"/>
    </contour>
    <contour>
      <point x="150" y="-139" type="line"/>
      <point x="176" y="-139" type="line"/>
      <point x="176" y="702" type="line"/>
      <point x="150" y="702" type="line"/>
    </contour>
  </outline>
</glyph>
<glyph name="uni0C80" format="2">
  <advance width="378"/>
  <unicode hex="0C80"/>
  <outline>
    <contour>
      <point x="189" y="63" type="curve" smooth="yes"/>
      <point x="283" y="63"/>
      <point x="339" y="125"/>
      <point x="339" y="246" type="curve" smooth="yes"/>
      <point x="339" y="278"/>
      <point x="335" y="306"/>
      <point x="330" y="327" type="curve"/>
      <point x="304" y="322" type="line"/>
      <point x="309" y="300"/>
      <point x="312" y="273"/>
      <point x="312" y="246" type="curve" smooth="yes"/>
      <point x="312" y="128"/>
      <point x="260" y="89"/>
      <point x="189" y="89" type="curve" smooth="yes"/>
      <point x="118" y="89"/>
      <point x="66" y="128"/>
      <point x="66" y="248" type="curve" smooth="yes"/>
      <point x="66" y="272"/>
      <point x="69" y="297"/>
      <point x="74" y="323" type="curve"/>
      <point x="48" y="327" type="line"/>
      <point x="42" y="301"/>
      <point x="39" y="274"/>
      <point x="39" y="248" type="curve" smooth="yes"/>
      <point x="39" y="116"/>
      <point x="101" y="63"/>
    </contour>
    <contour>
      <point x="189" y="205" type="curve" smooth="yes"/>
      <point x="208" y="205"/>
      <point x="219" y="217"/>
      <point x="219" y="245" type="curve" smooth="yes"/>
      <point x="219" y="270"/>
      <point x="209" y="285"/>
      <point x="189" y="285" type="curve" smooth="yes"/>
      <point x="170" y="285"/>
      <point x="158" y="271"/>
      <point x="158" y="245" type="curve" smooth="yes"/>
      <point x="158" y="218"/>
      <point x="172" y="205"/>
    </contour>
  </outline>
</glyph>
<glyph name="candrabinduknda" format="2">
  <unicode hex="0C81"/>
  <outline>
    <contour>
      <point x="-278" y="618" type="curve" smooth="yes"/>
      <point x="-204" y="618"/>
      <point x="-147" y="657"/>
      <point x="-147" y="752" type="curve" smooth="yes"/>
      <point x="-147" y="771"/>
      <point x="-149" y="786"/>
      <point x="-153" y="803" type="curve"/>
      <point x="-178" y="798" type="line"/>
      <point x="-175" y="784"/>
      <point x="-173" y="767"/>
      <point x="-173" y="752" type="curve" smooth="yes"/>
      <point x="-173" y="669"/>
      <point x="-221" y="643"/>
      <point x="-278" y="643" type="curve" smooth="yes"/>
      <point x="-335" y="643"/>
      <point x="-382" y="673"/>
      <point x="-382" y="751" type="curve" smooth="yes"/>
      <point x="-382" y="766"/>
      <point x="-380" y="784"/>
      <point x="-377" y="798" type="curve"/>
      <point x="-402" y="803" type="line"/>
      <point x="-406" y="786"/>
      <point x="-408" y="772"/>
      <point x="-408" y="752" type="curve" smooth="yes"/>
      <point x="-408" y="663"/>
      <point x="-355" y="618"/>
    </contour>
    <contour>
      <point x="-277" y="724" type="curve" smooth="yes"/>
      <point x="-262" y="724"/>
      <point x="-247" y="731"/>
      <point x="-247" y="759" type="curve" smooth="yes"/>
      <point x="-247" y="784"/>
      <point x="-262" y="794"/>
      <point x="-277" y="794" type="curve" smooth="yes"/>
      <point x="-293" y="794"/>
      <point x="-308" y="785"/>
      <point x="-308" y="759" type="curve" smooth="yes"/>
      <point x="-308" y="734"/>
      <point x="-292" y="724"/>
    </contour>
  </outline>
</glyph>
<glyph name="anusvaraknda" format="2">
  <advance width="389"/>
  <unicode hex="0C82"/>
  <outline>
    <contour>
      <point x="192" y="-12" type="curve" smooth="yes"/>
      <point x="292" y="-12"/>
      <point x="348" y="77"/>
      <point x="348" y="234" type="curve" smooth="yes"/>
      <point x="348" y="383"/>
      <point x="297" y="480"/>
      <point x="195" y="480" type="curve" smooth="yes"/>
      <point x="94" y="480"/>
      <point x="41" y="390"/>
      <point x="41" y="234" type="curve" smooth="yes"/>
      <point x="41" y="80"/>
      <point x="95" y="-12"/>
    </contour>
    <contour>
      <point x="192" y="14" type="curve" smooth="yes"/>
      <point x="111" y="14"/>
      <point x="68" y="92"/>
      <point x="68" y="233" type="curve" smooth="yes"/>
      <point x="68" y="377"/>
      <point x="109" y="454"/>
      <point x="195" y="454" type="curve" smooth="yes"/>
      <point x="277" y="454"/>
      <point x="320" y="376"/>
      <point x="320" y="235" type="curve" smooth="yes"/>
      <point x="320" y="92"/>
      <point x="278" y="14"/>
    </contour>
  </outline>
</glyph>
<glyph name="visargaknda" format="2">
  <advance width="252"/>
  <unicode hex="0C83"/>
  <outline>
    <contour>
      <point x="34" y="370" type="curve" smooth="yes"/>
      <point x="34" y="307"/>
      <point x="68" y="260"/>
      <point x="126" y="260" type="curve" smooth="yes"/>
      <point x="187" y="260"/>
      <point x="218" y="307"/>
      <point x="218" y="370" type="curve" smooth="yes"/>
      <point x="218" y="433"/>
      <point x="188" y="480"/>
      <point x="126" y="480" type="curve" smooth="yes"/>
      <point x="68" y="480"/>
      <point x="34" y="434"/>
    </contour>
    <contour>
      <point x="61" y="371" type="curve" smooth="yes"/>
      <point x="61" y="420"/>
      <point x="82" y="455"/>
      <point x="127" y="455" type="curve" smooth="yes"/>
      <point x="171" y="455"/>
      <point x="191" y="420"/>
      <point x="191" y="371" type="curve" smooth="yes"/>
      <point x="191" y="322"/>
      <point x="172" y="285"/>
      <point x="127" y="285" type="curve" smooth="yes"/>
      <point x="82" y="285"/>
      <point x="61" y="322"/>
    </contour>
    <contour>
      <point x="34" y="98" type="curve" smooth="yes"/>
      <point x="34" y="35"/>
      <point x="68" y="-12"/>
      <point x="126" y="-12" type="curve" smooth="yes"/>
      <point x="187" y="-12"/>
      <point x="218" y="35"/>
      <point x="218" y="98" type="curve" smooth="yes"/>
      <point x="218" y="161"/>
      <point x="188" y="208"/>
      <point x="126" y="208" type="curve" smooth="yes"/>
      <point x="68" y="208"/>
      <point x="34" y="162"/>
    </contour>
    <contour>
      <point x="61" y="99" type="curve" smooth="yes"/>
      <point x="61" y="148"/>
      <point x="82" y="183"/>
      <point x="127" y="183" type="curve" smooth="yes"/>
      <point x="171" y="183"/>
      <point x="191" y="148"/>
      <point x="191" y="99" type="curve" smooth="yes"/>
      <point x="191" y="50"/>
      <point x="172" y="13"/>
      <point x="127" y="13" type="curve" smooth="yes"/>
      <point x="82" y="13"/>
      <point x="61" y="50"/>
    </contour>
  </outline>
</glyph>
<glyph name="uni0C84" format="2">
  <advance width="863"/>
  <unicode hex="0C84"/>
  <outline>
    <contour>
      <point x="88" y="532" type="curve"/>
      <point x="62" y="534" type="line"/>
      <point x="52" y="466"/>
      <point x="49" y="416"/>
      <point x="49" y="374" type="curve" smooth="yes"/>
      <point x="49" y="46"/>
      <point x="189" y="-144"/>
      <point x="439" y="-144" type="curve" smooth="yes"/>
      <point x="682" y="-144"/>
      <point x="814" y="25"/>
      <point x="814" y="298" type="curve" smooth="yes"/>
      <point x="814" y="554"/>
      <point x="700" y="713"/>
      <point x="505" y="713" type="curve" smooth="yes"/>
      <point x="326" y="713"/>
      <point x="223" y="585"/>
      <point x="223" y="386" type="curve" smooth="yes"/>
      <point x="223" y="212"/>
      <point x="302" y="107"/>
      <point x="440" y="107" type="curve" smooth="yes"/>
      <point x="574" y="107"/>
      <point x="645" y="187"/>
      <point x="645" y="319" type="curve" smooth="yes"/>
      <point x="645" y="435"/>
      <point x="592" y="506"/>
      <point x="498" y="506" type="curve" smooth="yes"/>
      <point x="420" y="506"/>
      <point x="376" y="453"/>
      <point x="376" y="386" type="curve" smooth="yes"/>
      <point x="376" y="320"/>
      <point x="414" y="279"/>
      <point x="468" y="279" type="curve" smooth="yes"/>
      <point x="497" y="279"/>
      <point x="519" y="285"/>
      <point x="540" y="298" type="curve"/>
      <point x="528" y="321" type="line"/>
      <point x="509" y="310"/>
      <point x="494" y="305"/>
      <point x="467" y="305" type="curve" smooth="yes"/>
      <point x="426" y="305"/>
      <point x="403" y="338"/>
      <point x="403" y="386" type="curve" smooth="yes"/>
      <point x="403" y="441"/>
      <point x="436" y="480"/>
      <point x="499" y="480" type="curve" smooth="yes"/>
      <point x="578" y="480"/>
      <point x="618" y="419"/>
      <point x="618" y="319" type="curve" smooth="yes"/>
      <point x="618" y="200"/>
      <point x="559" y="133"/>
      <point x="440" y="133" type="curve" smooth="yes"/>
      <point x="316" y="133"/>
      <point x="250" y="227"/>
      <point x="250" y="386" type="curve" smooth="yes"/>
      <point x="250" y="572"/>
      <point x="342" y="687"/>
      <point x="505" y="687" type="curve" smooth="yes"/>
      <point x="685" y="687"/>
      <point x="787" y="538"/>
      <point x="787" y="298" type="curve" smooth="yes"/>
      <point x="787" y="37"/>
      <point x="665" y="-118"/>
      <point x="439" y="-118" type="curve" smooth="yes"/>
      <point x="202" y="-118"/>
      <point x="75" y="64"/>
      <point x="75" y="374" type="curve" smooth="yes"/>
      <point x="75" y="427"/>
      <point x="80" y="473"/>
    </contour>
  </outline>
</glyph>
<glyph name="aknda" format="2">
  <advance width="611"/>
  <unicode hex="0C85"/>
  <outline>
    <contour>
      <point x="298" y="14" type="curve" smooth="yes"/>
      <point x="144" y="14"/>
      <point x="66" y="136"/>
      <point x="66" y="304" type="curve" smooth="yes"/>
      <point x="66" y="309" type="line" smooth="yes"/>
      <point x="66" y="452"/>
      <point x="105" y="526"/>
      <point x="167" y="526" type="curve" smooth="yes"/>
      <point x="208" y="526"/>
      <point x="229" y="494"/>
      <point x="229" y="434" type="curve" smooth="yes"/>
      <point x="229" y="369"/>
      <point x="202" y="335"/>
      <point x="140" y="335" type="curve" smooth="yes"/>
      <point x="110" y="335"/>
      <point x="78" y="348"/>
      <point x="53" y="377" type="curve"/>
      <point x="47" y="351" type="line"/>
      <point x="68" y="328"/>
      <point x="102" y="309"/>
      <point x="142" y="309" type="curve" smooth="yes"/>
      <point x="219" y="309"/>
      <point x="256" y="359"/>
      <point x="256" y="436" type="curve" smooth="yes"/>
      <point x="256" y="506"/>
      <point x="223" y="552"/>
      <point x="167" y="552" type="curve" smooth="yes"/>
      <point x="95" y="552"/>
      <point x="39" y="478"/>
      <point x="39" y="307" type="curve" smooth="yes"/>
      <point x="39" y="118"/>
      <point x="133" y="-12"/>
      <point x="298" y="-12" type="curve" smooth="yes"/>
      <point x="477" y="-12"/>
      <point x="572" y="109"/>
      <point x="572" y="332" type="curve" smooth="yes"/>
      <point x="572" y="475"/>
      <point x="527" y="552"/>
      <point x="454" y="552" type="curve" smooth="yes"/>
      <point x="397" y="552"/>
      <point x="363" y="501"/>
      <point x="363" y="443" type="curve" smooth="yes"/>
      <point x="363" y="369"/>
      <point x="410" y="325"/>
      <point x="448" y="303" type="curve"/>
      <point x="260" y="303" type="line"/>
      <point x="260" y="278" type="line"/>
      <point x="495" y="278" type="line"/>
      <point x="495" y="298" type="line"/>
      <point x="445" y="322"/>
      <point x="390" y="371"/>
      <point x="390" y="442" type="curve" smooth="yes"/>
      <point x="390" y="492"/>
      <point x="414" y="526"/>
      <point x="454" y="526" type="curve" smooth="yes"/>
      <point x="514" y="526"/>
      <point x="545" y="453"/>
      <point x="545" y="332" type="curve" smooth="yes"/>
      <point x="545" y="126"/>
      <point x="465" y="14"/>
    </contour>
  </outline>
</glyph>
<glyph name="aaknda" format="2">
  <advance width="595"/>
  <unicode hex="0C86"/>
  <outline>
    <contour>
      <point x="315" y="-12" type="curve" smooth="yes"/>
      <point x="468" y="-12"/>
      <point x="547" y="59"/>
      <point x="547" y="178" type="curve" smooth="yes"/>
      <point x="547" y="242"/>
      <point x="516" y="280"/>
      <point x="481" y="311" type="curve"/>
      <point x="472" y="320"/>
      <point x="461" y="328"/>
      <point x="452" y="336" type="curve" smooth="yes"/>
      <point x="419" y="365"/>
      <point x="390" y="394"/>
      <point x="390" y="443" type="curve" smooth="yes"/>
      <point x="390" y="494"/>
      <point x="419" y="526"/>
      <point x="463" y="526" type="curve" smooth="yes"/>
      <point x="503" y="526"/>
      <point x="537" y="500"/>
      <point x="537" y="436" type="curve" smooth="yes"/>
      <point x="537" y="351"/>
      <point x="463" y="303"/>
      <point x="389" y="303" type="curve" smooth="yes"/>
      <point x="216" y="303" type="line"/>
      <point x="216" y="278" type="line"/>
      <point x="371" y="278" type="line" smooth="yes"/>
      <point x="419" y="278"/>
      <point x="449" y="284"/>
      <point x="477" y="299" type="curve"/>
      <point x="537" y="329"/>
      <point x="564" y="384"/>
      <point x="564" y="436" type="curve" smooth="yes"/>
      <point x="564" y="509"/>
      <point x="521" y="552"/>
      <point x="462" y="552" type="curve" smooth="yes"/>
      <point x="411" y="552"/>
      <point x="363" y="511"/>
      <point x="363" y="444" type="curve" smooth="yes"/>
      <point x="363" y="379"/>
      <point x="406" y="343"/>
      <point x="452" y="305" type="curve"/>
      <point x="454" y="303"/>
      <point x="456" y="301"/>
      <point x="458" y="299" type="curve"/>
      <point x="491" y="270"/>
      <point x="520" y="237"/>
      <point x="520" y="178" type="curve" smooth="yes"/>
      <point x="520" y="70"/>
      <point x="451" y="14"/>
      <point x="314" y="14" type="curve" smooth="yes"/>
      <point x="142" y="14"/>
      <point x="66" y="136"/>
      <point x="66" y="304" type="curve" smooth="yes"/>
      <point x="66" y="309" type="line" smooth="yes"/>
      <point x="66" y="452"/>
      <point x="105" y="526"/>
      <point x="167" y="526" type="curve" smooth="yes"/>
      <point x="208" y="526"/>
      <point x="229" y="494"/>
      <point x="229" y="434" type="curve" smooth="yes"/>
      <point x="229" y="369"/>
      <point x="202" y="335"/>
      <point x="140" y="335" type="curve" smooth="yes"/>
      <point x="110" y="335"/>
      <point x="78" y="348"/>
      <point x="53" y="377" type="curve"/>
      <point x="47" y="351" type="line"/>
      <point x="68" y="328"/>
      <point x="102" y="309"/>
      <point x="142" y="309" type="curve" smooth="yes"/>
      <point x="219" y="309"/>
      <point x="256" y="359"/>
      <point x="256" y="436" type="curve" smooth="yes"/>
      <point x="256" y="506"/>
      <point x="223" y="552"/>
      <point x="167" y="552" type="curve" smooth="yes"/>
      <point x="95" y="552"/>
      <point x="39" y="478"/>
      <point x="39" y="307" type="curve" smooth="yes"/>
      <point x="39" y="118"/>
      <point x="131" y="-12"/>
    </contour>
  </outline>
</glyph>
<glyph name="iknda" format="2">
  <advance width="497"/>
  <unicode hex="0C87"/>
  <outline>
    <contour>
      <point x="228" y="-12" type="curve" smooth="yes"/>
      <point x="305" y="-9"/>
      <point x="357" y="23"/>
      <point x="393" y="80" type="curve"/>
      <point x="399" y="89" type="line"/>
      <point x="438" y="153"/>
      <point x="453" y="238"/>
      <point x="453" y="319" type="curve" smooth="yes"/>
      <point x="453" y="485"/>
      <point x="405" y="552"/>
      <point x="333" y="552" type="curve" smooth="yes"/>
      <point x="275" y="552"/>
      <point x="237" y="510"/>
      <point x="227" y="407" type="curve"/>
      <point x="232" y="407" type="line"/>
      <point x="225" y="496"/>
      <point x="191" y="552"/>
      <point x="125" y="552" type="curve" smooth="yes"/>
      <point x="67" y="552"/>
      <point x="29" y="502"/>
      <point x="29" y="434" type="curve" smooth="yes"/>
      <point x="29" y="394"/>
      <point x="37" y="363"/>
      <point x="49" y="332" type="curve"/>
      <point x="74" y="339" type="line"/>
      <point x="63" y="368"/>
      <point x="56" y="397"/>
      <point x="56" y="434" type="curve" smooth="yes"/>
      <point x="56" y="490"/>
      <point x="81" y="526"/>
      <point x="126" y="526" type="curve" smooth="yes"/>
      <point x="177" y="526"/>
      <point x="212" y="473"/>
      <point x="217" y="371" type="curve"/>
      <point x="241" y="371" type="line"/>
      <point x="247" y="470"/>
      <point x="280" y="526"/>
      <point x="333" y="526" type="curve" smooth="yes"/>
      <point x="388" y="526"/>
      <point x="427" y="472"/>
      <point x="427" y="318" type="curve" smooth="yes"/>
      <point x="427" y="164"/>
      <point x="374" y="14"/>
      <point x="227" y="14" type="curve" smooth="yes"/>
      <point x="161" y="14"/>
      <point x="125" y="51"/>
      <point x="125" y="128" type="curve" smooth="yes"/>
      <point x="125" y="195"/>
      <point x="159" y="238"/>
      <point x="223" y="238" type="curve" smooth="yes"/>
      <point x="323" y="238"/>
      <point x="390" y="114"/>
      <point x="419" y="-55" type="curve"/>
      <point x="445" y="-50" type="line"/>
      <point x="436" y="-2"/>
      <point x="422" y="59"/>
      <point x="398" y="111" type="curve"/>
      <point x="363" y="195"/>
      <point x="309" y="264"/>
      <point x="221" y="264" type="curve" smooth="yes"/>
      <point x="144" y="264"/>
      <point x="98" y="204"/>
      <point x="98" y="128" type="curve" smooth="yes"/>
      <point x="98" y="36"/>
      <point x="148" y="-12"/>
    </contour>
  </outline>
</glyph>
<glyph name="iiknda" format="2">
  <advance width="683"/>
  <unicode hex="0C88"/>
  <outline>
    <contour>
      <point x="252" y="-12" type="curve" smooth="yes"/>
      <point x="376" y="-12"/>
      <point x="436" y="89"/>
      <point x="436" y="259" type="curve" smooth="yes"/>
      <point x="436" y="383"/>
      <point x="398" y="485"/>
      <point x="315" y="523" type="curve"/>
      <point x="286" y="515" type="line"/>
      <point x="360" y="515"/>
      <point x="388" y="526"/>
      <point x="410" y="550" type="curve" smooth="yes"/>
      <point x="427" y="569"/>
      <point x="436" y="597"/>
      <point x="436" y="630" type="curve" smooth="yes"/>
      <point x="436" y="675"/>
      <point x="416" y="724"/>
      <point x="376" y="778" type="curve"/>
      <point x="355" y="763" type="line"/>
      <point x="393" y="708"/>
      <point x="409" y="673"/>
      <point x="409" y="630" type="curve" smooth="yes"/>
      <point x="409" y="605"/>
      <point x="404" y="583"/>
      <point x="392" y="569" type="curve" smooth="yes"/>
      <point x="375" y="549"/>
      <point x="351" y="540"/>
      <point x="282" y="540" type="curve" smooth="yes"/>
      <point x="67" y="540" type="line"/>
      <point x="67" y="515" type="line"/>
      <point x="195" y="515" type="line"/>
      <point x="192" y="522" type="line"/>
      <point x="104" y="483"/>
      <point x="67" y="381"/>
      <point x="67" y="259" type="curve" smooth="yes"/>
      <point x="67" y="70"/>
      <point x="141" y="-12"/>
    </contour>
    <contour>
      <point x="253" y="14" type="curve" smooth="yes"/>
      <point x="153" y="14"/>
      <point x="93" y="86"/>
      <point x="93" y="259" type="curve" smooth="yes"/>
      <point x="93" y="264"/>
      <point x="93" y="269"/>
      <point x="93" y="273" type="curve"/>
      <point x="97" y="411"/>
      <point x="156" y="518"/>
      <point x="253" y="518" type="curve" smooth="yes"/>
      <point x="345" y="518"/>
      <point x="406" y="415"/>
      <point x="410" y="272" type="curve" smooth="yes"/>
      <point x="410" y="268"/>
      <point x="410" y="263"/>
      <point x="410" y="259" type="curve" smooth="yes"/>
      <point x="410" y="106"/>
      <point x="363" y="14"/>
    </contour>
    <contour>
      <point x="540" y="29" type="curve"/>
      <point x="543" y="3" type="line"/>
      <point x="619" y="12"/>
      <point x="642" y="61"/>
      <point x="642" y="111" type="curve" smooth="yes"/>
      <point x="642" y="167"/>
      <point x="612" y="216"/>
      <point x="575" y="277" type="curve"/>
      <point x="569" y="285" type="line"/>
      <point x="545" y="320"/>
      <point x="524" y="355"/>
      <point x="524" y="406" type="curve" smooth="yes"/>
      <point x="524" y="449"/>
      <point x="544" y="480"/>
      <point x="580" y="480" type="curve" smooth="yes"/>
      <point x="610" y="480"/>
      <point x="633" y="456"/>
      <point x="633" y="402" type="curve" smooth="yes"/>
      <point x="633" y="325"/>
      <point x="586" y="284"/>
      <point x="470" y="284" type="curve" smooth="yes"/>
      <point x="23" y="284" type="line"/>
      <point x="23" y="259" type="line"/>
      <point x="472" y="259" type="line" smooth="yes"/>
      <point x="594" y="259"/>
      <point x="660" y="306"/>
      <point x="660" y="402" type="curve" smooth="yes"/>
      <point x="660" y="461"/>
      <point x="631" y="506"/>
      <point x="580" y="506" type="curve" smooth="yes"/>
      <point x="527" y="506"/>
      <point x="497" y="458"/>
      <point x="497" y="406" type="curve" smooth="yes"/>
      <point x="497" y="354"/>
      <point x="522" y="312"/>
      <point x="543" y="280" type="curve"/>
      <point x="549" y="271" type="line"/>
      <point x="584" y="216"/>
      <point x="615" y="166"/>
      <point x="615" y="113" type="curve" smooth="yes"/>
      <point x="615" y="51"/>
      <point x="582" y="32"/>
    </contour>
  </outline>
</glyph>
<glyph name="uknda" format="2">
  <advance width="870"/>
  <unicode hex="0C89"/>
  <outline>
    <contour>
      <point x="679" y="-12" type="curve" smooth="yes"/>
      <point x="780" y="-12"/>
      <point x="829" y="64"/>
      <point x="829" y="204" type="curve" smooth="yes"/>
      <point x="829" y="358"/>
      <point x="764" y="461"/>
      <point x="677" y="552" type="curve"/>
      <point x="657" y="535" type="line"/>
      <point x="739" y="449"/>
      <point x="802" y="354"/>
      <point x="802" y="203" type="curve" smooth="yes"/>
      <point x="802" y="79"/>
      <point x="766" y="14"/>
      <point x="679" y="14" type="curve" smooth="yes"/>
      <point x="635" y="14"/>
      <point x="607" y="29"/>
      <point x="590" y="53" type="curve" smooth="yes"/>
      <point x="567" y="86"/>
      <point x="564" y="132"/>
      <point x="564" y="192" type="curve" smooth="yes"/>
      <point x="564" y="363" type="line" smooth="yes"/>
      <point x="564" y="436"/>
      <point x="559" y="487"/>
      <point x="527" y="521" type="curve" smooth="yes"/>
      <point x="509" y="540"/>
      <point x="484" y="552"/>
      <point x="451" y="552" type="curve" smooth="yes"/>
      <point x="382" y="552"/>
      <point x="339" y="491"/>
      <point x="339" y="406" type="curve" smooth="yes"/>
      <point x="339" y="312"/>
      <point x="350" y="261"/>
      <point x="350" y="186" type="curve" smooth="yes"/>
      <point x="350" y="72"/>
      <point x="314" y="14"/>
      <point x="221" y="14" type="curve" smooth="yes"/>
      <point x="112" y="14"/>
      <point x="70" y="122"/>
      <point x="70" y="306" type="curve" smooth="yes"/>
      <point x="70" y="293" type="line" smooth="yes"/>
      <point x="70" y="449"/>
      <point x="110" y="526"/>
      <point x="172" y="526" type="curve" smooth="yes"/>
      <point x="213" y="526"/>
      <point x="234" y="494"/>
      <point x="234" y="435" type="curve" smooth="yes"/>
      <point x="234" y="369"/>
      <point x="207" y="335"/>
      <point x="145" y="335" type="curve" smooth="yes"/>
      <point x="115" y="335"/>
      <point x="83" y="348"/>
      <point x="58" y="377" type="curve"/>
      <point x="52" y="351" type="line"/>
      <point x="73" y="328"/>
      <point x="107" y="309"/>
      <point x="147" y="309" type="curve" smooth="yes"/>
      <point x="224" y="309"/>
      <point x="261" y="359"/>
      <point x="261" y="436" type="curve" smooth="yes"/>
      <point x="261" y="506"/>
      <point x="228" y="552"/>
      <point x="172" y="552" type="curve" smooth="yes"/>
      <point x="101" y="552"/>
      <point x="43" y="476"/>
      <point x="43" y="303" type="curve" smooth="yes"/>
      <point x="43" y="94"/>
      <point x="102" y="-12"/>
      <point x="221" y="-12" type="curve" smooth="yes"/>
      <point x="324" y="-12"/>
      <point x="376" y="51"/>
      <point x="376" y="186" type="curve" smooth="yes"/>
      <point x="376" y="264"/>
      <point x="365" y="311"/>
      <point x="365" y="400" type="curve" smooth="yes"/>
      <point x="365" y="469"/>
      <point x="392" y="526"/>
      <point x="452" y="526" type="curve" smooth="yes"/>
      <point x="479" y="526"/>
      <point x="495" y="517"/>
      <point x="509" y="502" type="curve" smooth="yes"/>
      <point x="537" y="472"/>
      <point x="538" y="414"/>
      <point x="538" y="359" type="curve" smooth="yes"/>
      <point x="538" y="185" type="line" smooth="yes"/>
      <point x="538" y="116"/>
      <point x="544" y="75"/>
      <point x="568" y="39" type="curve" smooth="yes"/>
      <point x="589" y="8"/>
      <point x="626" y="-12"/>
    </contour>
  </outline>
</glyph>
<glyph name="uuknda" format="2">
  <advance width="1133"/>
  <unicode hex="0C8A"/>
  <outline>
    <contour>
      <point x="651" y="-12" type="curve" smooth="yes"/>
      <point x="729" y="-12"/>
      <point x="767" y="45"/>
      <point x="767" y="135" type="curve" smooth="yes"/>
      <point x="767" y="217"/>
      <point x="758" y="254"/>
      <point x="758" y="333" type="curve" smooth="yes"/>
      <point x="758" y="455"/>
      <point x="806" y="526"/>
      <point x="896" y="526" type="curve" smooth="yes"/>
      <point x="1008" y="526"/>
      <point x="1065" y="420"/>
      <point x="1065" y="230" type="curve" smooth="yes"/>
      <point x="1065" y="59"/>
      <point x="1015" y="14"/>
      <point x="955" y="14" type="curve" smooth="yes"/>
      <point x="899" y="14"/>
      <point x="870" y="50"/>
      <point x="870" y="133" type="curve" smooth="yes"/>
      <point x="870" y="178"/>
      <point x="885" y="225"/>
      <point x="911" y="245" type="curve"/>
      <point x="891" y="237" type="line"/>
      <point x="891" y="213"/>
      <point x="902" y="201"/>
      <point x="919" y="201" type="curve" smooth="yes"/>
      <point x="933" y="201"/>
      <point x="944" y="207"/>
      <point x="944" y="228" type="curve" smooth="yes"/>
      <point x="944" y="244"/>
      <point x="935" y="258"/>
      <point x="912" y="258" type="curve" smooth="yes"/>
      <point x="875" y="258"/>
      <point x="843" y="217"/>
      <point x="843" y="134" type="curve" smooth="yes"/>
      <point x="843" y="38"/>
      <point x="885" y="-12"/>
      <point x="956" y="-12" type="curve" smooth="yes"/>
      <point x="1033" y="-12"/>
      <point x="1091" y="47"/>
      <point x="1091" y="229" type="curve" smooth="yes"/>
      <point x="1091" y="442"/>
      <point x="1020" y="552"/>
      <point x="896" y="552" type="curve" smooth="yes"/>
      <point x="793" y="552"/>
      <point x="732" y="471"/>
      <point x="732" y="337" type="curve" smooth="yes"/>
      <point x="732" y="261"/>
      <point x="741" y="214"/>
      <point x="741" y="136" type="curve" smooth="yes"/>
      <point x="741" y="59"/>
      <point x="713" y="14"/>
      <point x="653" y="14" type="curve" smooth="yes"/>
      <point x="620" y="14"/>
      <point x="599" y="26"/>
      <point x="586" y="45" type="curve" smooth="yes"/>
      <point x="566" y="74"/>
      <point x="564" y="118"/>
      <point x="564" y="171" type="curve" smooth="yes"/>
      <point x="564" y="363" type="line" smooth="yes"/>
      <point x="564" y="436"/>
      <point x="559" y="487"/>
      <point x="527" y="521" type="curve" smooth="yes"/>
      <point x="509" y="540"/>
      <point x="484" y="552"/>
      <point x="451" y="552" type="curve" smooth="yes"/>
      <point x="385" y="552"/>
      <point x="339" y="491"/>
      <point x="339" y="406" type="curve" smooth="yes"/>
      <point x="339" y="312"/>
      <point x="350" y="261"/>
      <point x="350" y="186" type="curve" smooth="yes"/>
      <point x="350" y="72"/>
      <point x="314" y="14"/>
      <point x="221" y="14" type="curve" smooth="yes"/>
      <point x="112" y="14"/>
      <point x="70" y="122"/>
      <point x="70" y="306" type="curve" smooth="yes"/>
      <point x="70" y="293" type="line" smooth="yes"/>
      <point x="70" y="449"/>
      <point x="110" y="526"/>
      <point x="172" y="526" type="curve" smooth="yes"/>
      <point x="213" y="526"/>
      <point x="234" y="494"/>
      <point x="234" y="435" type="curve" smooth="yes"/>
      <point x="234" y="369"/>
      <point x="207" y="335"/>
      <point x="145" y="335" type="curve" smooth="yes"/>
      <point x="115" y="335"/>
      <point x="83" y="348"/>
      <point x="58" y="377" type="curve"/>
      <point x="52" y="351" type="line"/>
      <point x="73" y="328"/>
      <point x="107" y="309"/>
      <point x="147" y="309" type="curve" smooth="yes"/>
      <point x="224" y="309"/>
      <point x="261" y="359"/>
      <point x="261" y="436" type="curve" smooth="yes"/>
      <point x="261" y="506"/>
      <point x="228" y="552"/>
      <point x="172" y="552" type="curve" smooth="yes"/>
      <point x="101" y="552"/>
      <point x="43" y="476"/>
      <point x="43" y="303" type="curve" smooth="yes"/>
      <point x="43" y="94"/>
      <point x="102" y="-12"/>
      <point x="221" y="-12" type="curve" smooth="yes"/>
      <point x="324" y="-12"/>
      <point x="376" y="51"/>
      <point x="376" y="186" type="curve" smooth="yes"/>
      <point x="376" y="264"/>
      <point x="365" y="311"/>
      <point x="365" y="400" type="curve" smooth="yes"/>
      <point x="365" y="469"/>
      <point x="392" y="526"/>
      <point x="452" y="526" type="curve" smooth="yes"/>
      <point x="477" y="526"/>
      <point x="495" y="517"/>
      <point x="509" y="502" type="curve" smooth="yes"/>
      <point x="537" y="472"/>
      <point x="538" y="414"/>
      <point x="538" y="359" type="curve" smooth="yes"/>
      <point x="538" y="172" type="line" smooth="yes"/>
      <point x="538" y="107"/>
      <point x="540" y="65"/>
      <point x="563" y="32" type="curve" smooth="yes"/>
      <point x="580" y="7"/>
      <point x="608" y="-12"/>
    </contour>
  </outline>
</glyph>
<glyph name="lvocalicknda" format="2">
  <advance width="591"/>
  <unicode hex="0C8C"/>
  <outline>
    <contour>
      <point x="316" y="-12" type="curve" smooth="yes"/>
      <point x="463" y="-12"/>
      <point x="549" y="87"/>
      <point x="549" y="285" type="curve" smooth="yes"/>
      <point x="549" y="378"/>
      <point x="521" y="473"/>
      <point x="467" y="553" type="curve"/>
      <point x="444" y="540" type="line"/>
      <point x="499" y="458"/>
      <point x="522" y="377"/>
      <point x="522" y="282" type="curve" smooth="yes"/>
      <point x="522" y="101"/>
      <point x="448" y="14"/>
      <point x="316" y="14" type="curve" smooth="yes"/>
      <point x="221" y="14"/>
      <point x="187" y="67"/>
      <point x="187" y="132" type="curve" smooth="yes"/>
      <point x="187" y="194"/>
      <point x="221" y="227"/>
      <point x="284" y="259" type="curve" smooth="yes"/>
      <point x="368" y="302"/>
      <point x="406" y="341"/>
      <point x="406" y="427" type="curve" smooth="yes"/>
      <point x="406" y="510"/>
      <point x="368" y="552"/>
      <point x="316" y="552" type="curve" smooth="yes"/>
      <point x="263" y="552"/>
      <point x="224" y="511"/>
      <point x="214" y="407" type="curve"/>
      <point x="219" y="407" type="line"/>
      <point x="212" y="496"/>
      <point x="179" y="552"/>
      <point x="119" y="552" type="curve" smooth="yes"/>
      <point x="64" y="552"/>
      <point x="29" y="502"/>
      <point x="29" y="438" type="curve" smooth="yes"/>
      <point x="29" y="398"/>
      <point x="37" y="363"/>
      <point x="47" y="338" type="curve"/>
      <point x="72" y="345" type="line"/>
      <point x="62" y="372"/>
      <point x="56" y="399"/>
      <point x="56" y="436" type="curve" smooth="yes"/>
      <point x="56" y="490"/>
      <point x="78" y="526"/>
      <point x="120" y="526" type="curve" smooth="yes"/>
      <point x="168" y="526"/>
      <point x="196" y="472"/>
      <point x="204" y="379" type="curve"/>
      <point x="228" y="379" type="line"/>
      <point x="235" y="462"/>
      <point x="262" y="526"/>
      <point x="316" y="526" type="curve" smooth="yes"/>
      <point x="354" y="526"/>
      <point x="379" y="495"/>
      <point x="379" y="427" type="curve" smooth="yes"/>
      <point x="379" y="346"/>
      <point x="342" y="317"/>
      <point x="273" y="282" type="curve" smooth="yes"/>
      <point x="202" y="246"/>
      <point x="160" y="206"/>
      <point x="160" y="133" type="curve" smooth="yes"/>
      <point x="160" y="52"/>
      <point x="208" y="-12"/>
    </contour>
  </outline>
</glyph>
<glyph name="eknda" format="2">
  <advance width="559"/>
  <unicode hex="0C8E"/>
  <outline>
    <contour>
      <point x="396" y="-12" type="curve" smooth="yes"/>
      <point x="471" y="-12"/>
      <point x="519" y="52"/>
      <point x="519" y="187" type="curve" smooth="yes"/>
      <point x="519" y="355"/>
      <point x="439" y="548"/>
      <point x="167" y="572" type="curve"/>
      <point x="163" y="546" type="line"/>
      <point x="372" y="532"/>
      <point x="492" y="395"/>
      <point x="492" y="187" type="curve" smooth="yes"/>
      <point x="492" y="69"/>
      <point x="457" y="14"/>
      <point x="398" y="14" type="curve" smooth="yes"/>
      <point x="336" y="14"/>
      <point x="309" y="67"/>
      <point x="303" y="178" type="curve"/>
      <point x="279" y="178" type="line"/>
      <point x="270" y="65"/>
      <point x="236" y="14"/>
      <point x="163" y="14" type="curve" smooth="yes"/>
      <point x="101" y="14"/>
      <point x="60" y="62"/>
      <point x="60" y="159" type="curve" smooth="yes"/>
      <point x="60" y="233"/>
      <point x="91" y="279"/>
      <point x="133" y="279" type="curve" smooth="yes"/>
      <point x="165" y="279"/>
      <point x="177" y="257"/>
      <point x="177" y="217" type="curve" smooth="yes"/>
      <point x="177" y="202"/>
      <point x="175" y="184"/>
      <point x="171" y="170" type="curve"/>
      <point x="197" y="167" type="line"/>
      <point x="201" y="182"/>
      <point x="204" y="203"/>
      <point x="204" y="221" type="curve" smooth="yes"/>
      <point x="204" y="272"/>
      <point x="178" y="304"/>
      <point x="134" y="304" type="curve" smooth="yes"/>
      <point x="74" y="304"/>
      <point x="33" y="245"/>
      <point x="33" y="159" type="curve" smooth="yes"/>
      <point x="33" y="53"/>
      <point x="84" y="-12"/>
      <point x="162" y="-12" type="curve" smooth="yes"/>
      <point x="240" y="-12"/>
      <point x="282" y="42"/>
      <point x="292" y="130" type="curve"/>
      <point x="288" y="130" type="line"/>
      <point x="293" y="42"/>
      <point x="331" y="-12"/>
    </contour>
  </outline>
</glyph>
<glyph name="eeknda" format="2">
  <advance width="559"/>
  <unicode hex="0C8F"/>
  <outline>
    <contour>
      <point x="396" y="-12" type="curve" smooth="yes"/>
      <point x="471" y="-12"/>
      <point x="519" y="52"/>
      <point x="519" y="187" type="curve" smooth="yes"/>
      <point x="519" y="367"/>
      <point x="440" y="511"/>
      <point x="288" y="572" type="curve"/>
      <point x="271" y="467"/>
      <point x="242" y="425"/>
      <point x="185" y="425" type="curve" smooth="yes"/>
      <point x="137" y="425"/>
      <point x="107" y="458"/>
      <point x="104" y="572" type="curve"/>
      <point x="78" y="570" type="line"/>
      <point x="84" y="440"/>
      <point x="123" y="399"/>
      <point x="186" y="399" type="curve" smooth="yes"/>
      <point x="251" y="399"/>
      <point x="291" y="445"/>
      <point x="310" y="550" type="curve"/>
      <point x="290" y="544" type="line"/>
      <point x="411" y="494"/>
      <point x="492" y="360"/>
      <point x="492" y="187" type="curve" smooth="yes"/>
      <point x="492" y="69"/>
      <point x="457" y="14"/>
      <point x="398" y="14" type="curve" smooth="yes"/>
      <point x="336" y="14"/>
      <point x="309" y="67"/>
      <point x="303" y="178" type="curve"/>
      <point x="279" y="178" type="line"/>
      <point x="270" y="65"/>
      <point x="236" y="14"/>
      <point x="163" y="14" type="curve" smooth="yes"/>
      <point x="101" y="14"/>
      <point x="60" y="62"/>
      <point x="60" y="159" type="curve" smooth="yes"/>
      <point x="60" y="233"/>
      <point x="91" y="279"/>
      <point x="133" y="279" type="curve" smooth="yes"/>
      <point x="165" y="279"/>
      <point x="177" y="257"/>
      <point x="177" y="217" type="curve" smooth="yes"/>
      <point x="177" y="202"/>
      <point x="175" y="184"/>
      <point x="171" y="170" type="curve"/>
      <point x="197" y="167" type="line"/>
      <point x="201" y="182"/>
      <point x="204" y="203"/>
      <point x="204" y="221" type="curve" smooth="yes"/>
      <point x="204" y="272"/>
      <point x="178" y="304"/>
      <point x="134" y="304" type="curve" smooth="yes"/>
      <point x="74" y="304"/>
      <point x="33" y="245"/>
      <point x="33" y="159" type="curve" smooth="yes"/>
      <point x="33" y="53"/>
      <point x="84" y="-12"/>
      <point x="162" y="-12" type="curve" smooth="yes"/>
      <point x="240" y="-12"/>
      <point x="282" y="42"/>
      <point x="292" y="130" type="curve"/>
      <point x="288" y="130" type="line"/>
      <point x="293" y="42"/>
      <point x="331" y="-12"/>
    </contour>
  </outline>
</glyph>
<glyph name="aiknda" format="2">
  <advance width="571"/>
  <unicode hex="0C90"/>
  <outline>
    <contour>
      <point x="398" y="-12" type="curve" smooth="yes"/>
      <point x="478" y="-12"/>
      <point x="527" y="53"/>
      <point x="527" y="241" type="curve" smooth="yes"/>
      <point x="527" y="440"/>
      <point x="472" y="552"/>
      <point x="375" y="552" type="curve" smooth="yes"/>
      <point x="317" y="552"/>
      <point x="275" y="511"/>
      <point x="261" y="409" type="curve"/>
      <point x="265" y="408" type="line"/>
      <point x="255" y="495"/>
      <point x="221" y="552"/>
      <point x="149" y="552" type="curve" smooth="yes"/>
      <point x="89" y="552"/>
      <point x="51" y="505"/>
      <point x="51" y="438" type="curve" smooth="yes"/>
      <point x="51" y="411"/>
      <point x="55" y="386"/>
      <point x="61" y="363" type="curve"/>
      <point x="87" y="370" type="line"/>
      <point x="81" y="391"/>
      <point x="78" y="412"/>
      <point x="78" y="437" type="curve" smooth="yes"/>
      <point x="78" y="489"/>
      <point x="100" y="526"/>
      <point x="149" y="526" type="curve" smooth="yes"/>
      <point x="208" y="526"/>
      <point x="241" y="472"/>
      <point x="250" y="380" type="curve"/>
      <point x="274" y="380" type="line"/>
      <point x="289" y="472"/>
      <point x="316" y="526"/>
      <point x="374" y="526" type="curve" smooth="yes"/>
      <point x="461" y="526"/>
      <point x="501" y="410"/>
      <point x="501" y="242" type="curve" smooth="yes"/>
      <point x="501" y="93"/>
      <point x="473" y="14"/>
      <point x="400" y="14" type="curve" smooth="yes"/>
      <point x="336" y="14"/>
      <point x="311" y="67"/>
      <point x="305" y="178" type="curve"/>
      <point x="281" y="178" type="line"/>
      <point x="272" y="65"/>
      <point x="238" y="14"/>
      <point x="165" y="14" type="curve" smooth="yes"/>
      <point x="103" y="14"/>
      <point x="62" y="62"/>
      <point x="62" y="159" type="curve" smooth="yes"/>
      <point x="62" y="233"/>
      <point x="93" y="279"/>
      <point x="135" y="279" type="curve" smooth="yes"/>
      <point x="167" y="279"/>
      <point x="179" y="257"/>
      <point x="179" y="217" type="curve" smooth="yes"/>
      <point x="179" y="202"/>
      <point x="177" y="184"/>
      <point x="173" y="170" type="curve"/>
      <point x="199" y="167" type="line"/>
      <point x="203" y="182"/>
      <point x="206" y="203"/>
      <point x="206" y="221" type="curve" smooth="yes"/>
      <point x="206" y="272"/>
      <point x="180" y="304"/>
      <point x="136" y="304" type="curve" smooth="yes"/>
      <point x="76" y="304"/>
      <point x="35" y="245"/>
      <point x="35" y="159" type="curve" smooth="yes"/>
      <point x="35" y="53"/>
      <point x="86" y="-12"/>
      <point x="164" y="-12" type="curve" smooth="yes"/>
      <point x="242" y="-12"/>
      <point x="284" y="42"/>
      <point x="294" y="130" type="curve"/>
      <point x="290" y="130" type="line"/>
      <point x="295" y="42"/>
      <point x="331" y="-12"/>
    </contour>
  </outline>
</glyph>
<glyph name="oknda" format="2">
  <advance width="546"/>
  <unicode hex="0C92"/>
  <outline>
    <contour>
      <point x="393" y="-12" type="curve" smooth="yes"/>
      <point x="472" y="-12"/>
      <point x="513" y="53"/>
      <point x="513" y="134" type="curve" smooth="yes"/>
      <point x="513" y="199"/>
      <point x="486" y="257"/>
      <point x="457" y="301" type="curve"/>
      <point x="434" y="288" type="line"/>
      <point x="465" y="241"/>
      <point x="486" y="189"/>
      <point x="486" y="135" type="curve" smooth="yes"/>
      <point x="486" y="67"/>
      <point x="458" y="14"/>
      <point x="393" y="14" type="curve" smooth="yes"/>
      <point x="324" y="14"/>
      <point x="294" y="69"/>
      <point x="291" y="178" type="curve"/>
      <point x="267" y="178" type="line"/>
      <point x="263" y="74"/>
      <point x="236" y="14"/>
      <point x="162" y="14" type="curve" smooth="yes"/>
      <point x="111" y="14"/>
      <point x="76" y="49"/>
      <point x="76" y="124" type="curve" smooth="yes"/>
      <point x="76" y="185"/>
      <point x="102" y="227"/>
      <point x="155" y="277" type="curve" smooth="yes"/>
      <point x="206" y="325"/>
      <point x="231" y="362"/>
      <point x="231" y="427" type="curve" smooth="yes"/>
      <point x="231" y="489"/>
      <point x="201" y="552"/>
      <point x="130" y="552" type="curve" smooth="yes"/>
      <point x="64" y="552"/>
      <point x="29" y="499"/>
      <point x="29" y="437" type="curve" smooth="yes"/>
      <point x="29" y="402"/>
      <point x="37" y="370"/>
      <point x="49" y="341" type="curve"/>
      <point x="74" y="349" type="line"/>
      <point x="64" y="374"/>
      <point x="56" y="403"/>
      <point x="56" y="436" type="curve" smooth="yes"/>
      <point x="56" y="490"/>
      <point x="82" y="526"/>
      <point x="130" y="526" type="curve" smooth="yes"/>
      <point x="183" y="526"/>
      <point x="204" y="479"/>
      <point x="204" y="427" type="curve" smooth="yes"/>
      <point x="204" y="371"/>
      <point x="184" y="340"/>
      <point x="135" y="293" type="curve" smooth="yes"/>
      <point x="82" y="242"/>
      <point x="49" y="196"/>
      <point x="49" y="124" type="curve" smooth="yes"/>
      <point x="49" y="50"/>
      <point x="86" y="-12"/>
      <point x="162" y="-12" type="curve" smooth="yes"/>
      <point x="234" y="-12"/>
      <point x="273" y="30"/>
      <point x="280" y="130" type="curve"/>
      <point x="276" y="130" type="line"/>
      <point x="282" y="41"/>
      <point x="317" y="-12"/>
    </contour>
  </outline>
</glyph>
<glyph name="ooknda" format="2">
  <advance width="546"/>
  <unicode hex="0C93"/>
  <outline>
    <contour>
      <point x="129" y="541" type="curve"/>
      <point x="158" y="546" type="line"/>
      <point x="116" y="585"/>
      <point x="87" y="619"/>
      <point x="87" y="668" type="curve" smooth="yes"/>
      <point x="87" y="720"/>
      <point x="122" y="741"/>
      <point x="176" y="748" type="curve"/>
      <point x="173" y="774" type="line"/>
      <point x="93" y="765"/>
      <point x="60" y="720"/>
      <point x="60" y="669" type="curve" smooth="yes"/>
      <point x="60" y="611"/>
      <point x="98" y="569"/>
    </contour>
    <component base="oknda"/>
  </outline>
</glyph>
<glyph name="auknda" format="2">
  <advance width="547"/>
  <unicode hex="0C94"/>
  <outline>
    <contour>
      <point x="393" y="-12" type="curve" smooth="yes"/>
      <point x="472" y="-12"/>
      <point x="513" y="53"/>
      <point x="513" y="134" type="curve" smooth="yes"/>
      <point x="513" y="199"/>
      <point x="486" y="257"/>
      <point x="457" y="301" type="curve"/>
      <point x="434" y="288" type="line"/>
      <point x="465" y="241"/>
      <point x="486" y="189"/>
      <point x="486" y="135" type="curve" smooth="yes"/>
      <point x="486" y="67"/>
      <point x="458" y="14"/>
      <point x="393" y="14" type="curve" smooth="yes"/>
      <point x="324" y="14"/>
      <point x="294" y="69"/>
      <point x="291" y="178" type="curve"/>
      <point x="267" y="178" type="line"/>
      <point x="263" y="74"/>
      <point x="236" y="14"/>
      <point x="162" y="14" type="curve" smooth="yes"/>
      <point x="111" y="14"/>
      <point x="76" y="49"/>
      <point x="76" y="124" type="curve" smooth="yes"/>
      <point x="76" y="185"/>
      <point x="102" y="227"/>
      <point x="155" y="277" type="curve" smooth="yes"/>
      <point x="206" y="325"/>
      <point x="231" y="362"/>
      <point x="231" y="427" type="curve" smooth="yes"/>
      <point x="231" y="493"/>
      <point x="201" y="546"/>
      <point x="130" y="546" type="curve" smooth="yes"/>
      <point x="67" y="546"/>
      <point x="29" y="501"/>
      <point x="29" y="437" type="curve" smooth="yes"/>
      <point x="29" y="402"/>
      <point x="37" y="370"/>
      <point x="49" y="341" type="curve"/>
      <point x="74" y="349" type="line"/>
      <point x="64" y="374"/>
      <point x="56" y="403"/>
      <point x="56" y="436" type="curve" smooth="yes"/>
      <point x="56" y="491"/>
      <point x="82" y="527"/>
      <point x="130" y="527" type="curve" smooth="yes"/>
      <point x="183" y="527"/>
      <point x="204" y="480"/>
      <point x="204" y="427" type="curve" smooth="yes"/>
      <point x="204" y="371"/>
      <point x="184" y="340"/>
      <point x="135" y="293" type="curve" smooth="yes"/>
      <point x="82" y="242"/>
      <point x="49" y="196"/>
      <point x="49" y="124" type="curve" smooth="yes"/>
      <point x="49" y="50"/>
      <point x="86" y="-12"/>
      <point x="162" y="-12" type="curve" smooth="yes"/>
      <point x="234" y="-12"/>
      <point x="273" y="30"/>
      <point x="280" y="130" type="curve"/>
      <point x="276" y="130" type="line"/>
      <point x="282" y="41"/>
      <point x="317" y="-12"/>
    </contour>
    <contour>
      <point x="67" y="530" type="line"/>
      <point x="76" y="530" type="line" smooth="yes"/>
      <point x="108" y="530"/>
      <point x="139" y="532"/>
      <point x="151" y="534" type="curve" smooth="yes"/>
      <point x="206" y="543"/>
      <point x="235" y="569"/>
      <point x="235" y="625" type="curve" smooth="yes"/>
      <point x="235" y="674"/>
      <point x="213" y="709"/>
      <point x="190" y="732" type="curve"/>
      <point x="163" y="729" type="line"/>
      <point x="194" y="697"/>
      <point x="209" y="661"/>
      <point x="209" y="625" type="curve" smooth="yes"/>
      <point x="209" y="605"/>
      <point x="205" y="589"/>
      <point x="194" y="577" type="curve" smooth="yes"/>
      <point x="178" y="559"/>
      <point x="155" y="551"/>
      <point x="86" y="551" type="curve" smooth="yes"/>
      <point x="67" y="551" type="line"/>
    </contour>
    <contour>
      <point x="380" y="321" type="curve" smooth="yes"/>
      <point x="454" y="321"/>
      <point x="496" y="389"/>
      <point x="496" y="509" type="curve" smooth="yes"/>
      <point x="496" y="598"/>
      <point x="469" y="669"/>
      <point x="412" y="709" type="curve" smooth="yes"/>
      <point x="377" y="734"/>
      <point x="334" y="747"/>
      <point x="257" y="747" type="curve" smooth="yes"/>
      <point x="42" y="747" type="line"/>
      <point x="42" y="722" type="line"/>
      <point x="255" y="722" type="line" smooth="yes"/>
      <point x="330" y="722"/>
      <point x="369" y="709"/>
      <point x="400" y="686" type="curve" smooth="yes"/>
      <point x="451" y="649"/>
      <point x="471" y="582"/>
      <point x="471" y="510" type="curve" smooth="yes"/>
      <point x="471" y="398"/>
      <point x="435" y="347"/>
      <point x="381" y="347" type="curve" smooth="yes"/>
      <point x="322" y="347"/>
      <point x="306" y="392"/>
      <point x="306" y="449" type="curve" smooth="yes"/>
      <point x="306" y="489"/>
      <point x="318" y="527"/>
      <point x="344" y="553" type="curve"/>
      <point x="327" y="545" type="line"/>
      <point x="327" y="523"/>
      <point x="338" y="509"/>
      <point x="355" y="509" type="curve" smooth="yes"/>
      <point x="369" y="509"/>
      <point x="380" y="515"/>
      <point x="380" y="536" type="curve" smooth="yes"/>
      <point x="380" y="552"/>
      <point x="371" y="566"/>
      <point x="348" y="566" type="curve" smooth="yes"/>
      <point x="309" y="566"/>
      <point x="279" y="522"/>
      <point x="279" y="450" type="curve" smooth="yes"/>
      <point x="279" y="381"/>
      <point x="306" y="321"/>
    </contour>
  </outline>
</glyph>
<glyph name="khaknda" format="2">
  <advance width="627"/>
  <unicode hex="0C96"/>
  <outline>
    <contour>
      <point x="436" y="-12" type="curve" smooth="yes"/>
      <point x="530" y="-12"/>
      <point x="586" y="64"/>
      <point x="586" y="210" type="curve" smooth="yes"/>
      <point x="586" y="399"/>
      <point x="481" y="527"/>
      <point x="361" y="618" type="curve"/>
      <point x="345" y="598" type="line"/>
      <point x="455" y="515"/>
      <point x="559" y="394"/>
      <point x="559" y="210" type="curve" smooth="yes"/>
      <point x="559" y="66"/>
      <point x="507" y="14"/>
      <point x="435" y="14" type="curve" smooth="yes"/>
      <point x="375" y="14"/>
      <point x="338" y="51"/>
      <point x="284" y="123" type="curve"/>
      <point x="278" y="130" type="line"/>
      <point x="229" y="196"/>
      <point x="196" y="231"/>
      <point x="133" y="231" type="curve" smooth="yes"/>
      <point x="75" y="231"/>
      <point x="28" y="183"/>
      <point x="28" y="111" type="curve" smooth="yes"/>
      <point x="28" y="30"/>
      <point x="71" y="-12"/>
      <point x="140" y="-12" type="curve" smooth="yes"/>
      <point x="216" y="-12"/>
      <point x="260" y="34"/>
      <point x="288" y="101" type="curve"/>
      <point x="314" y="160"/>
      <point x="320" y="235"/>
      <point x="320" y="297" type="curve" smooth="yes"/>
      <point x="320" y="458"/>
      <point x="268" y="552"/>
      <point x="178" y="552" type="curve" smooth="yes"/>
      <point x="121" y="552"/>
      <point x="69" y="506"/>
      <point x="69" y="417" type="curve" smooth="yes"/>
      <point x="69" y="349"/>
      <point x="97" y="314"/>
      <point x="132" y="314" type="curve" smooth="yes"/>
      <point x="148" y="314"/>
      <point x="161" y="322"/>
      <point x="161" y="342" type="curve" smooth="yes"/>
      <point x="161" y="358"/>
      <point x="152" y="367"/>
      <point x="139" y="367" type="curve" smooth="yes"/>
      <point x="126" y="367"/>
      <point x="117" y="359"/>
      <point x="117" y="338" type="curve"/>
      <point x="128" y="335" type="line"/>
      <point x="104" y="346"/>
      <point x="96" y="380"/>
      <point x="96" y="417" type="curve" smooth="yes"/>
      <point x="96" y="486"/>
      <point x="129" y="526"/>
      <point x="178" y="526" type="curve" smooth="yes"/>
      <point x="253" y="526"/>
      <point x="293" y="443"/>
      <point x="293" y="295" type="curve" smooth="yes"/>
      <point x="293" y="150"/>
      <point x="258" y="14"/>
      <point x="141" y="14" type="curve" smooth="yes"/>
      <point x="82" y="14"/>
      <point x="55" y="47"/>
      <point x="55" y="110" type="curve" smooth="yes"/>
      <point x="55" y="175"/>
      <point x="92" y="205"/>
      <point x="135" y="205" type="curve" smooth="yes"/>
      <point x="191" y="205"/>
      <point x="220" y="170"/>
      <point x="270" y="101" type="curve" smooth="yes"/>
      <point x="272" y="98"/>
      <point x="274" y="96"/>
      <point x="276" y="93" type="curve" smooth="yes"/>
      <point x="331" y="20"/>
      <point x="369" y="-12"/>
    </contour>
  </outline>
</glyph>
<glyph name="gaknda" format="2">
  <advance width="452"/>
  <unicode hex="0C97"/>
  <outline>
    <contour>
      <point x="226" y="518" type="curve" smooth="yes"/>
      <point x="272" y="518"/>
      <point x="309" y="483"/>
      <point x="335" y="423" type="curve" smooth="yes"/>
      <point x="367" y="349"/>
      <point x="374" y="259"/>
      <point x="374" y="152" type="curve" smooth="yes"/>
      <point x="374" y="0" type="line"/>
      <point x="400" y="0" type="line"/>
      <point x="400" y="160" type="line" smooth="yes"/>
      <point x="400" y="308"/>
      <point x="384" y="458"/>
      <point x="283" y="523" type="curve"/>
      <point x="281" y="517" type="line"/>
      <point x="370" y="517"/>
      <point x="400" y="567"/>
      <point x="400" y="630" type="curve" smooth="yes"/>
      <point x="400" y="675"/>
      <point x="380" y="724"/>
      <point x="340" y="778" type="curve"/>
      <point x="319" y="763" type="line"/>
      <point x="357" y="708"/>
      <point x="373" y="673"/>
      <point x="373" y="630" type="curve" smooth="yes"/>
      <point x="373" y="605"/>
      <point x="368" y="583"/>
      <point x="356" y="569" type="curve" smooth="yes"/>
      <point x="339" y="549"/>
      <point x="315" y="540"/>
      <point x="246" y="540" type="curve" smooth="yes"/>
      <point x="49" y="540" type="line"/>
      <point x="49" y="515" type="line"/>
      <point x="181" y="515" type="line"/>
      <point x="174" y="526" type="line"/>
      <point x="66" y="459"/>
      <point x="52" y="308"/>
      <point x="52" y="160" type="curve" smooth="yes"/>
      <point x="52" y="0" type="line"/>
      <point x="78" y="0" type="line"/>
      <point x="78" y="151" type="line" smooth="yes"/>
      <point x="78" y="259"/>
      <point x="85" y="349"/>
      <point x="117" y="423" type="curve" smooth="yes"/>
      <point x="143" y="483"/>
      <point x="180" y="518"/>
    </contour>
  </outline>
</glyph>
<glyph name="ghaknda" format="2">
  <advance width="708"/>
  <unicode hex="0C98"/>
  <outline>
    <contour>
      <point x="164" y="-12" type="curve" smooth="yes"/>
      <point x="242" y="-12"/>
      <point x="284" y="42"/>
      <point x="294" y="130" type="curve"/>
      <point x="290" y="130" type="line"/>
      <point x="295" y="42"/>
      <point x="333" y="-12"/>
      <point x="402" y="-12" type="curve" smooth="yes"/>
      <point x="481" y="-12"/>
      <point x="519" y="57"/>
      <point x="519" y="136" type="curve" smooth="yes"/>
      <point x="519" y="207"/>
      <point x="502" y="256"/>
      <point x="455" y="319" type="curve"/>
      <point x="433" y="375" type="line"/>
      <point x="411" y="361" type="line"/>
      <point x="461" y="291"/>
      <point x="492" y="231"/>
      <point x="492" y="136" type="curve" smooth="yes"/>
      <point x="492" y="69"/>
      <point x="464" y="14"/>
      <point x="403" y="14" type="curve" smooth="yes"/>
      <point x="339" y="14"/>
      <point x="311" y="67"/>
      <point x="305" y="178" type="curve"/>
      <point x="281" y="178" type="line"/>
      <point x="272" y="65"/>
      <point x="238" y="14"/>
      <point x="165" y="14" type="curve" smooth="yes"/>
      <point x="103" y="14"/>
      <point x="62" y="62"/>
      <point x="62" y="159" type="curve" smooth="yes"/>
      <point x="62" y="233"/>
      <point x="93" y="279"/>
      <point x="135" y="279" type="curve" smooth="yes"/>
      <point x="167" y="279"/>
      <point x="179" y="257"/>
      <point x="179" y="217" type="curve" smooth="yes"/>
      <point x="179" y="202"/>
      <point x="177" y="184"/>
      <point x="173" y="170" type="curve"/>
      <point x="199" y="167" type="line"/>
      <point x="203" y="182"/>
      <point x="206" y="203"/>
      <point x="206" y="221" type="curve" smooth="yes"/>
      <point x="206" y="272"/>
      <point x="180" y="304"/>
      <point x="136" y="304" type="curve" smooth="yes"/>
      <point x="76" y="304"/>
      <point x="35" y="245"/>
      <point x="35" y="159" type="curve" smooth="yes"/>
      <point x="35" y="53"/>
      <point x="86" y="-12"/>
    </contour>
    <contour>
      <point x="274" y="-144" type="line"/>
      <point x="306" y="-144" type="line"/>
      <point x="302" y="22" type="line"/>
      <point x="278" y="22" type="line"/>
    </contour>
    <contour>
      <point x="273" y="337" type="curve" smooth="yes"/>
      <point x="292" y="337"/>
      <point x="303" y="349"/>
      <point x="303" y="377" type="curve" smooth="yes"/>
      <point x="303" y="402"/>
      <point x="293" y="417"/>
      <point x="273" y="417" type="curve" smooth="yes"/>
      <point x="254" y="417"/>
      <point x="242" y="403"/>
      <point x="242" y="377" type="curve" smooth="yes"/>
      <point x="242" y="350"/>
      <point x="256" y="337"/>
    </contour>
    <contour>
      <point x="35" y="515" type="line"/>
      <point x="383" y="515" type="line" smooth="yes"/>
      <point x="457" y="515"/>
      <point x="485" y="526"/>
      <point x="507" y="550" type="curve" smooth="yes"/>
      <point x="524" y="569"/>
      <point x="533" y="597"/>
      <point x="533" y="630" type="curve" smooth="yes"/>
      <point x="533" y="675"/>
      <point x="513" y="724"/>
      <point x="473" y="778" type="curve"/>
      <point x="452" y="763" type="line"/>
      <point x="490" y="708"/>
      <point x="506" y="673"/>
      <point x="506" y="630" type="curve" smooth="yes"/>
      <point x="506" y="605"/>
      <point x="501" y="583"/>
      <point x="489" y="569" type="curve" smooth="yes"/>
      <point x="472" y="549"/>
      <point x="448" y="540"/>
      <point x="379" y="540" type="curve" smooth="yes"/>
      <point x="35" y="540" type="line"/>
    </contour>
    <contour>
      <point x="583" y="224" type="curve" smooth="yes"/>
      <point x="630" y="224"/>
      <point x="680" y="257"/>
      <point x="680" y="348" type="curve" smooth="yes"/>
      <point x="680" y="435"/>
      <point x="635" y="500"/>
      <point x="581" y="554" type="curve"/>
      <point x="562" y="535" type="line"/>
      <point x="612" y="488"/>
      <point x="653" y="428"/>
      <point x="653" y="347" type="curve" smooth="yes"/>
      <point x="653" y="285"/>
      <point x="630" y="250"/>
      <point x="579" y="250" type="curve" smooth="yes"/>
      <point x="519" y="250"/>
      <point x="485" y="286"/>
      <point x="433" y="375" type="curve"/>
      <point x="451" y="315" type="line"/>
      <point x="492" y="248"/>
      <point x="532" y="224"/>
    </contour>
  </outline>
</glyph>
<glyph name="ngaknda" format="2">
  <advance width="546"/>
  <unicode hex="0C99"/>
  <outline>
    <contour>
      <point x="393" y="-12" type="curve" smooth="yes"/>
      <point x="472" y="-12"/>
      <point x="513" y="53"/>
      <point x="513" y="134" type="curve" smooth="yes"/>
      <point x="513" y="190"/>
      <point x="493" y="240"/>
      <point x="469" y="281" type="curve"/>
      <point x="446" y="268" type="line"/>
      <point x="470" y="226"/>
      <point x="486" y="181"/>
      <point x="486" y="135" type="curve" smooth="yes"/>
      <point x="486" y="67"/>
      <point x="458" y="14"/>
      <point x="393" y="14" type="curve" smooth="yes"/>
      <point x="324" y="14"/>
      <point x="294" y="69"/>
      <point x="291" y="178" type="curve"/>
      <point x="267" y="178" type="line"/>
      <point x="263" y="74"/>
      <point x="236" y="14"/>
      <point x="162" y="14" type="curve" smooth="yes"/>
      <point x="111" y="14"/>
      <point x="76" y="49"/>
      <point x="76" y="124" type="curve" smooth="yes"/>
      <point x="76" y="185"/>
      <point x="102" y="227"/>
      <point x="155" y="277" type="curve" smooth="yes"/>
      <point x="208" y="327"/>
      <point x="229" y="362"/>
      <point x="229" y="427" type="curve" smooth="yes"/>
      <point x="229" y="492"/>
      <point x="201" y="552"/>
      <point x="130" y="552" type="curve" smooth="yes"/>
      <point x="64" y="552"/>
      <point x="29" y="499"/>
      <point x="29" y="437" type="curve" smooth="yes"/>
      <point x="29" y="402"/>
      <point x="37" y="370"/>
      <point x="49" y="341" type="curve"/>
      <point x="74" y="349" type="line"/>
      <point x="64" y="374"/>
      <point x="56" y="403"/>
      <point x="56" y="436" type="curve" smooth="yes"/>
      <point x="56" y="490"/>
      <point x="82" y="526"/>
      <point x="130" y="526" type="curve" smooth="yes"/>
      <point x="183" y="526"/>
      <point x="204" y="479"/>
      <point x="204" y="427" type="curve" smooth="yes"/>
      <point x="204" y="371"/>
      <point x="184" y="340"/>
      <point x="135" y="293" type="curve" smooth="yes"/>
      <point x="82" y="242"/>
      <point x="49" y="196"/>
      <point x="49" y="124" type="curve" smooth="yes"/>
      <point x="49" y="50"/>
      <point x="86" y="-12"/>
      <point x="162" y="-12" type="curve" smooth="yes"/>
      <point x="234" y="-12"/>
      <point x="273" y="30"/>
      <point x="280" y="130" type="curve"/>
      <point x="276" y="130" type="line"/>
      <point x="282" y="41"/>
      <point x="317" y="-12"/>
    </contour>
    <contour>
      <point x="303" y="277" type="curve" smooth="yes"/>
      <point x="322" y="277"/>
      <point x="333" y="289"/>
      <point x="333" y="317" type="curve" smooth="yes"/>
      <point x="333" y="342"/>
      <point x="323" y="357"/>
      <point x="303" y="357" type="curve" smooth="yes"/>
      <point x="284" y="357"/>
      <point x="272" y="343"/>
      <point x="272" y="317" type="curve" smooth="yes"/>
      <point x="272" y="290"/>
      <point x="286" y="277"/>
    </contour>
    <contour>
      <point x="374" y="552" type="curve" smooth="yes"/>
      <point x="291" y="552"/>
      <point x="241" y="473"/>
      <point x="215" y="406" type="curve"/>
      <point x="207" y="392" type="line"/>
      <point x="222" y="381" type="line"/>
      <point x="269" y="482"/>
      <point x="320" y="526"/>
      <point x="373" y="526" type="curve" smooth="yes"/>
      <point x="433" y="526"/>
      <point x="454" y="488"/>
      <point x="454" y="430" type="curve" smooth="yes"/>
      <point x="454" y="399"/>
      <point x="447" y="370"/>
      <point x="438" y="350" type="curve"/>
      <point x="464" y="342" type="line"/>
      <point x="473" y="366"/>
      <point x="481" y="395"/>
      <point x="481" y="431" type="curve" smooth="yes"/>
      <point x="481" y="507"/>
      <point x="443" y="552"/>
    </contour>
  </outline>
</glyph>
<glyph name="chaknda" format="2">
  <advance width="599"/>
  <unicode hex="0C9B"/>
  <outline>
    <contour>
      <point x="190" y="-12" type="curve" smooth="yes"/>
      <point x="267" y="-12"/>
      <point x="297" y="44"/>
      <point x="306" y="130" type="curve"/>
      <point x="302" y="130" type="line"/>
      <point x="308" y="41"/>
      <point x="342" y="-12"/>
      <point x="419" y="-12" type="curve" smooth="yes"/>
      <point x="503" y="-12"/>
      <point x="554" y="59"/>
      <point x="554" y="190" type="curve" smooth="yes"/>
      <point x="554" y="379"/>
      <point x="459" y="481"/>
      <point x="375" y="535" type="curve"/>
      <point x="353" y="525" type="line"/>
      <point x="454" y="456"/>
      <point x="527" y="355"/>
      <point x="527" y="190" type="curve" smooth="yes"/>
      <point x="527" y="70"/>
      <point x="485" y="14"/>
      <point x="420" y="14" type="curve" smooth="yes"/>
      <point x="350" y="14"/>
      <point x="320" y="69"/>
      <point x="317" y="178" type="curve"/>
      <point x="293" y="178" type="line"/>
      <point x="287" y="68"/>
      <point x="257" y="14"/>
      <point x="190" y="14" type="curve" smooth="yes"/>
      <point x="134" y="14"/>
      <point x="72" y="45"/>
      <point x="72" y="245" type="curve" smooth="yes"/>
      <point x="72" y="421"/>
      <point x="116" y="526"/>
      <point x="186" y="526" type="curve" smooth="yes"/>
      <point x="227" y="526"/>
      <point x="248" y="494"/>
      <point x="248" y="434" type="curve" smooth="yes"/>
      <point x="248" y="369"/>
      <point x="221" y="335"/>
      <point x="159" y="335" type="curve" smooth="yes"/>
      <point x="124" y="335"/>
      <point x="93" y="348"/>
      <point x="68" y="377" type="curve"/>
      <point x="62" y="351" type="line"/>
      <point x="83" y="328"/>
      <point x="118" y="309"/>
      <point x="162" y="309" type="curve" smooth="yes"/>
      <point x="238" y="309"/>
      <point x="275" y="359"/>
      <point x="275" y="436" type="curve" smooth="yes"/>
      <point x="275" y="505"/>
      <point x="242" y="552"/>
      <point x="186" y="552" type="curve" smooth="yes"/>
      <point x="99" y="552"/>
      <point x="45" y="438"/>
      <point x="45" y="245" type="curve" smooth="yes"/>
      <point x="45" y="37"/>
      <point x="115" y="-12"/>
    </contour>
    <contour>
      <point x="289" y="-144" type="line"/>
      <point x="321" y="-144" type="line"/>
      <point x="317" y="22" type="line"/>
      <point x="293" y="22" type="line"/>
    </contour>
    <contour>
      <point x="313" y="515" type="line"/>
      <point x="399" y="515" type="line" smooth="yes"/>
      <point x="473" y="515"/>
      <point x="501" y="526"/>
      <point x="523" y="550" type="curve" smooth="yes"/>
      <point x="540" y="569"/>
      <point x="549" y="597"/>
      <point x="549" y="630" type="curve" smooth="yes"/>
      <point x="549" y="675"/>
      <point x="529" y="724"/>
      <point x="489" y="778" type="curve"/>
      <point x="468" y="763" type="line"/>
      <point x="506" y="708"/>
      <point x="522" y="673"/>
      <point x="522" y="630" type="curve" smooth="yes"/>
      <point x="522" y="605"/>
      <point x="517" y="583"/>
      <point x="505" y="569" type="curve" smooth="yes"/>
      <point x="488" y="549"/>
      <point x="464" y="540"/>
      <point x="395" y="540" type="curve" smooth="yes"/>
      <point x="313" y="540" type="line"/>
    </contour>
  </outline>
</glyph>
<glyph name="jaknda" format="2">
  <advance width="546"/>
  <unicode hex="0C9C"/>
  <outline>
    <contour>
      <point x="393" y="-12" type="curve" smooth="yes"/>
      <point x="472" y="-12"/>
      <point x="513" y="53"/>
      <point x="513" y="134" type="curve" smooth="yes"/>
      <point x="513" y="190"/>
      <point x="493" y="240"/>
      <point x="469" y="281" type="curve"/>
      <point x="446" y="268" type="line"/>
      <point x="470" y="226"/>
      <point x="486" y="181"/>
      <point x="486" y="135" type="curve" smooth="yes"/>
      <point x="486" y="67"/>
      <point x="458" y="14"/>
      <point x="393" y="14" type="curve" smooth="yes"/>
      <point x="324" y="14"/>
      <point x="294" y="69"/>
      <point x="291" y="178" type="curve"/>
      <point x="267" y="178" type="line"/>
      <point x="263" y="74"/>
      <point x="236" y="14"/>
      <point x="162" y="14" type="curve" smooth="yes"/>
      <point x="111" y="14"/>
      <point x="76" y="49"/>
      <point x="76" y="124" type="curve" smooth="yes"/>
      <point x="76" y="185"/>
      <point x="102" y="227"/>
      <point x="155" y="277" type="curve" smooth="yes"/>
      <point x="208" y="327"/>
      <point x="229" y="362"/>
      <point x="229" y="427" type="curve" smooth="yes"/>
      <point x="229" y="492"/>
      <point x="201" y="552"/>
      <point x="130" y="552" type="curve" smooth="yes"/>
      <point x="64" y="552"/>
      <point x="29" y="499"/>
      <point x="29" y="437" type="curve" smooth="yes"/>
      <point x="29" y="402"/>
      <point x="37" y="370"/>
      <point x="49" y="341" type="curve"/>
      <point x="74" y="349" type="line"/>
      <point x="64" y="374"/>
      <point x="56" y="403"/>
      <point x="56" y="436" type="curve" smooth="yes"/>
      <point x="56" y="490"/>
      <point x="82" y="526"/>
      <point x="130" y="526" type="curve" smooth="yes"/>
      <point x="183" y="526"/>
      <point x="204" y="479"/>
      <point x="204" y="427" type="curve" smooth="yes"/>
      <point x="204" y="371"/>
      <point x="184" y="340"/>
      <point x="135" y="293" type="curve" smooth="yes"/>
      <point x="82" y="242"/>
      <point x="49" y="196"/>
      <point x="49" y="124" type="curve" smooth="yes"/>
      <point x="49" y="50"/>
      <point x="86" y="-12"/>
      <point x="162" y="-12" type="curve" smooth="yes"/>
      <point x="234" y="-12"/>
      <point x="273" y="30"/>
      <point x="280" y="130" type="curve"/>
      <point x="276" y="130" type="line"/>
      <point x="282" y="41"/>
      <point x="317" y="-12"/>
    </contour>
    <contour>
      <point x="359" y="331" type="curve" smooth="yes"/>
      <point x="432" y="331"/>
      <point x="469" y="376"/>
      <point x="469" y="456" type="curve" smooth="yes"/>
      <point x="469" y="492"/>
      <point x="459" y="524"/>
      <point x="447" y="552" type="curve"/>
      <point x="421" y="544" type="line"/>
      <point x="432" y="521"/>
      <point x="442" y="489"/>
      <point x="442" y="455" type="curve" smooth="yes"/>
      <point x="442" y="395"/>
      <point x="421" y="357"/>
      <point x="361" y="357" type="curve" smooth="yes"/>
      <point x="311" y="357"/>
      <point x="257" y="394"/>
      <point x="210" y="502" type="curve"/>
      <point x="195" y="491" type="line"/>
      <point x="206" y="476" type="line"/>
      <point x="226" y="409"/>
      <point x="278" y="331"/>
    </contour>
  </outline>
</glyph>
<glyph name="nyaknda" format="2">
  <advance width="668"/>
  <unicode hex="0C9E"/>
  <outline>
    <contour>
      <point x="228" y="-12" type="curve"/>
      <point x="305" y="-9"/>
      <point x="357" y="23"/>
      <point x="393" y="80" type="curve"/>
      <point x="399" y="89" type="line"/>
      <point x="438" y="153"/>
      <point x="453" y="238"/>
      <point x="453" y="319" type="curve" smooth="yes"/>
      <point x="453" y="352"/>
      <point x="451" y="382"/>
      <point x="447" y="407" type="curve" smooth="yes"/>
      <point x="446" y="411"/>
      <point x="442" y="415"/>
      <point x="442" y="418" type="curve" smooth="yes"/>
      <point x="430" y="512"/>
      <point x="389" y="552"/>
      <point x="333" y="552" type="curve" smooth="yes"/>
      <point x="275" y="552"/>
      <point x="237" y="510"/>
      <point x="227" y="407" type="curve"/>
      <point x="232" y="407" type="line"/>
      <point x="225" y="496"/>
      <point x="191" y="552"/>
      <point x="125" y="552" type="curve" smooth="yes"/>
      <point x="67" y="552"/>
      <point x="29" y="502"/>
      <point x="29" y="434" type="curve" smooth="yes"/>
      <point x="29" y="394"/>
      <point x="37" y="363"/>
      <point x="49" y="332" type="curve"/>
      <point x="74" y="339" type="line"/>
      <point x="63" y="368"/>
      <point x="56" y="397"/>
      <point x="56" y="434" type="curve" smooth="yes"/>
      <point x="56" y="490"/>
      <point x="81" y="526"/>
      <point x="126" y="526" type="curve" smooth="yes"/>
      <point x="177" y="526"/>
      <point x="212" y="473"/>
      <point x="217" y="371" type="curve"/>
      <point x="241" y="371" type="line"/>
      <point x="247" y="470"/>
      <point x="280" y="526"/>
      <point x="333" y="526" type="curve" smooth="yes"/>
      <point x="388" y="526"/>
      <point x="427" y="472"/>
      <point x="427" y="318" type="curve" smooth="yes"/>
      <point x="427" y="164"/>
      <point x="374" y="14"/>
      <point x="227" y="14" type="curve" smooth="yes"/>
      <point x="161" y="14"/>
      <point x="125" y="51"/>
      <point x="125" y="128" type="curve" smooth="yes"/>
      <point x="125" y="195"/>
      <point x="159" y="238"/>
      <point x="223" y="238" type="curve" smooth="yes"/>
      <point x="323" y="238"/>
      <point x="390" y="114"/>
      <point x="419" y="-55" type="curve"/>
      <point x="445" y="-50" type="line"/>
      <point x="436" y="-2"/>
      <point x="422" y="59"/>
      <point x="398" y="111" type="curve"/>
      <point x="363" y="195"/>
      <point x="309" y="264"/>
      <point x="221" y="264" type="curve" smooth="yes"/>
      <point x="144" y="264"/>
      <point x="98" y="204"/>
      <point x="98" y="128" type="curve" smooth="yes"/>
      <point x="98" y="36"/>
      <point x="148" y="-12"/>
    </contour>
    <contour>
      <point x="543" y="552" type="curve" smooth="yes"/>
      <point x="477" y="552"/>
      <point x="443" y="496"/>
      <point x="436" y="407" type="curve"/>
      <point x="451" y="364" type="line"/>
      <point x="455" y="473"/>
      <point x="491" y="526"/>
      <point x="542" y="526" type="curve" smooth="yes"/>
      <point x="587" y="526"/>
      <point x="612" y="490"/>
      <point x="612" y="434" type="curve" smooth="yes"/>
      <point x="612" y="397"/>
      <point x="605" y="368"/>
      <point x="594" y="339" type="curve"/>
      <point x="619" y="332" type="line"/>
      <point x="631" y="363"/>
      <point x="639" y="394"/>
      <point x="639" y="434" type="curve" smooth="yes"/>
      <point x="639" y="502"/>
      <point x="601" y="552"/>
    </contour>
  </outline>
</glyph>
<glyph name="tthaknda" format="2">
  <advance width="453"/>
  <unicode hex="0CA0"/>
  <outline>
    <contour>
      <point x="227" y="-12" type="curve" smooth="yes"/>
      <point x="351" y="-12"/>
      <point x="411" y="89"/>
      <point x="411" y="259" type="curve" smooth="yes"/>
      <point x="411" y="383"/>
      <point x="373" y="485"/>
      <point x="290" y="523" type="curve"/>
      <point x="261" y="515" type="line"/>
      <point x="335" y="515"/>
      <point x="363" y="526"/>
      <point x="385" y="550" type="curve" smooth="yes"/>
      <point x="402" y="569"/>
      <point x="411" y="597"/>
      <point x="411" y="630" type="curve" smooth="yes"/>
      <point x="411" y="675"/>
      <point x="391" y="724"/>
      <point x="351" y="778" type="curve"/>
      <point x="330" y="763" type="line"/>
      <point x="368" y="708"/>
      <point x="384" y="673"/>
      <point x="384" y="630" type="curve" smooth="yes"/>
      <point x="384" y="605"/>
      <point x="379" y="583"/>
      <point x="367" y="569" type="curve" smooth="yes"/>
      <point x="350" y="549"/>
      <point x="326" y="540"/>
      <point x="257" y="540" type="curve" smooth="yes"/>
      <point x="42" y="540" type="line"/>
      <point x="42" y="515" type="line"/>
      <point x="170" y="515" type="line"/>
      <point x="167" y="522" type="line"/>
      <point x="79" y="483"/>
      <point x="42" y="381"/>
      <point x="42" y="259" type="curve" smooth="yes"/>
      <point x="42" y="70"/>
      <point x="116" y="-12"/>
    </contour>
    <contour>
      <point x="228" y="14" type="curve" smooth="yes"/>
      <point x="128" y="14"/>
      <point x="69" y="86"/>
      <point x="69" y="259" type="curve" smooth="yes"/>
      <point x="69" y="404"/>
      <point x="128" y="518"/>
      <point x="228" y="518" type="curve" smooth="yes"/>
      <point x="323" y="518"/>
      <point x="384" y="409"/>
      <point x="384" y="259" type="curve" smooth="yes"/>
      <point x="384" y="106"/>
      <point x="338" y="14"/>
    </contour>
    <contour>
      <point x="227" y="230" type="curve" smooth="yes"/>
      <point x="246" y="230"/>
      <point x="257" y="242"/>
      <point x="257" y="270" type="curve" smooth="yes"/>
      <point x="257" y="295"/>
      <point x="247" y="310"/>
      <point x="227" y="310" type="curve" smooth="yes"/>
      <point x="208" y="310"/>
      <point x="196" y="296"/>
      <point x="196" y="270" type="curve" smooth="yes"/>
      <point x="196" y="243"/>
      <point x="210" y="230"/>
    </contour>
  </outline>
</glyph>
<glyph name="ddaknda" format="2">
  <advance width="543"/>
  <unicode hex="0CA1"/>
  <outline>
    <contour>
      <point x="163" y="-12" type="curve" smooth="yes"/>
      <point x="233" y="-12"/>
      <point x="266" y="41"/>
      <point x="271" y="130" type="curve"/>
      <point x="267" y="130" type="line"/>
      <point x="273" y="41"/>
      <point x="308" y="-12"/>
      <point x="381" y="-12" type="curve" smooth="yes"/>
      <point x="460" y="-12"/>
      <point x="501" y="52"/>
      <point x="501" y="176" type="curve" smooth="yes"/>
      <point x="501" y="233"/>
      <point x="486" y="296"/>
      <point x="462" y="331" type="curve"/>
      <point x="444" y="361"/>
      <point x="422" y="388"/>
      <point x="383" y="388" type="curve" smooth="yes"/>
      <point x="339" y="388"/>
      <point x="301" y="353"/>
      <point x="301" y="294" type="curve" smooth="yes"/>
      <point x="301" y="230"/>
      <point x="337" y="196"/>
      <point x="384" y="196" type="curve" smooth="yes"/>
      <point x="438" y="196"/>
      <point x="459" y="236"/>
      <point x="466" y="277" type="curve" smooth="yes"/>
      <point x="467" y="281"/>
      <point x="472" y="285"/>
      <point x="473" y="289" type="curve" smooth="yes"/>
      <point x="475" y="301"/>
      <point x="475" y="314"/>
      <point x="475" y="325" type="curve" smooth="yes"/>
      <point x="475" y="443"/>
      <point x="417" y="501"/>
      <point x="355" y="522" type="curve"/>
      <point x="353" y="515" type="line"/>
      <point x="427" y="515"/>
      <point x="455" y="526"/>
      <point x="477" y="550" type="curve" smooth="yes"/>
      <point x="494" y="569"/>
      <point x="503" y="597"/>
      <point x="503" y="630" type="curve" smooth="yes"/>
      <point x="503" y="675"/>
      <point x="483" y="724"/>
      <point x="443" y="778" type="curve"/>
      <point x="422" y="763" type="line"/>
      <point x="460" y="708"/>
      <point x="476" y="673"/>
      <point x="476" y="630" type="curve" smooth="yes"/>
      <point x="476" y="605"/>
      <point x="471" y="583"/>
      <point x="459" y="569" type="curve" smooth="yes"/>
      <point x="442" y="549"/>
      <point x="418" y="540"/>
      <point x="349" y="540" type="curve" smooth="yes"/>
      <point x="43" y="540" type="line"/>
      <point x="43" y="515" type="line"/>
      <point x="200" y="515" type="line"/>
      <point x="204" y="523" type="line"/>
      <point x="103" y="494"/>
      <point x="43" y="361"/>
      <point x="43" y="209" type="curve" smooth="yes"/>
      <point x="43" y="48"/>
      <point x="88" y="-12"/>
    </contour>
    <contour>
      <point x="161" y="14" type="curve" smooth="yes"/>
      <point x="101" y="14"/>
      <point x="70" y="68"/>
      <point x="70" y="209" type="curve" smooth="yes"/>
      <point x="70" y="366"/>
      <point x="139" y="518"/>
      <point x="268" y="518" type="curve" smooth="yes"/>
      <point x="285" y="518" type="line" smooth="yes"/>
      <point x="391" y="518"/>
      <point x="450" y="431"/>
      <point x="450" y="321" type="curve" smooth="yes"/>
      <point x="450" y="258"/>
      <point x="425" y="221"/>
      <point x="385" y="221" type="curve" smooth="yes"/>
      <point x="349" y="221"/>
      <point x="328" y="246"/>
      <point x="328" y="294" type="curve" smooth="yes"/>
      <point x="328" y="332"/>
      <point x="346" y="363"/>
      <point x="383" y="363" type="curve" smooth="yes"/>
      <point x="446" y="363"/>
      <point x="474" y="275"/>
      <point x="474" y="176" type="curve" smooth="yes"/>
      <point x="474" y="61"/>
      <point x="442" y="14"/>
      <point x="381" y="14" type="curve" smooth="yes"/>
      <point x="315" y="14"/>
      <point x="285" y="69"/>
      <point x="282" y="178" type="curve"/>
      <point x="258" y="178" type="line"/>
      <point x="255" y="69"/>
      <point x="225" y="14"/>
    </contour>
  </outline>
</glyph>
<glyph name="nnaknda" format="2">
  <advance width="604"/>
  <unicode hex="0CA3"/>
  <outline>
    <contour>
      <point x="422" y="-12" type="curve" smooth="yes"/>
      <point x="505" y="-12"/>
      <point x="560" y="57"/>
      <point x="560" y="246" type="curve" smooth="yes"/>
      <point x="560" y="463"/>
      <point x="499" y="552"/>
      <point x="410" y="552" type="curve" smooth="yes"/>
      <point x="338" y="552"/>
      <point x="294" y="495"/>
      <point x="281" y="391" type="curve"/>
      <point x="286" y="393" type="line"/>
      <point x="277" y="509"/>
      <point x="226" y="552"/>
      <point x="158" y="552" type="curve" smooth="yes"/>
      <point x="80" y="552"/>
      <point x="36" y="484"/>
      <point x="36" y="413" type="curve" smooth="yes"/>
      <point x="36" y="326"/>
      <point x="81" y="266"/>
      <point x="175" y="254" type="curve"/>
      <point x="175" y="263" type="line"/>
      <point x="77" y="257"/>
      <point x="30" y="198"/>
      <point x="30" y="123" type="curve" smooth="yes"/>
      <point x="30" y="47"/>
      <point x="67" y="-12"/>
      <point x="147" y="-12" type="curve" smooth="yes"/>
      <point x="184" y="-12"/>
      <point x="226" y="1"/>
      <point x="262" y="31" type="curve"/>
      <point x="246" y="52" type="line"/>
      <point x="213" y="24"/>
      <point x="178" y="14"/>
      <point x="147" y="14" type="curve" smooth="yes"/>
      <point x="79" y="14"/>
      <point x="57" y="63"/>
      <point x="57" y="123" type="curve" smooth="yes"/>
      <point x="57" y="163"/>
      <point x="70" y="189"/>
      <point x="90" y="209" type="curve" smooth="yes"/>
      <point x="114" y="233"/>
      <point x="153" y="247"/>
      <point x="190" y="247" type="curve" smooth="yes"/>
      <point x="194" y="247" type="line"/>
      <point x="194" y="272" type="line"/>
      <point x="191" y="272" type="line" smooth="yes"/>
      <point x="154" y="272"/>
      <point x="116" y="287"/>
      <point x="92" y="317" type="curve" smooth="yes"/>
      <point x="74" y="340"/>
      <point x="63" y="372"/>
      <point x="63" y="413" type="curve" smooth="yes"/>
      <point x="63" y="472"/>
      <point x="93" y="526"/>
      <point x="162" y="526" type="curve" smooth="yes"/>
      <point x="224" y="526"/>
      <point x="264" y="470"/>
      <point x="271" y="362" type="curve"/>
      <point x="295" y="362" type="line"/>
      <point x="311" y="466"/>
      <point x="345" y="526"/>
      <point x="410" y="526" type="curve" smooth="yes"/>
      <point x="486" y="526"/>
      <point x="533" y="440"/>
      <point x="533" y="251" type="curve" smooth="yes"/>
      <point x="533" y="241" type="line" smooth="yes"/>
      <point x="533" y="72"/>
      <point x="488" y="14"/>
      <point x="423" y="14" type="curve" smooth="yes"/>
      <point x="361" y="14"/>
      <point x="336" y="62"/>
      <point x="336" y="139" type="curve" smooth="yes"/>
      <point x="336" y="203"/>
      <point x="362" y="243"/>
      <point x="398" y="243" type="curve" smooth="yes"/>
      <point x="424" y="243"/>
      <point x="436" y="226"/>
      <point x="436" y="183" type="curve" smooth="yes"/>
      <point x="436" y="166"/>
      <point x="433" y="148"/>
      <point x="430" y="134" type="curve"/>
      <point x="456" y="131" type="line"/>
      <point x="460" y="146"/>
      <point x="463" y="167"/>
      <point x="463" y="183" type="curve" smooth="yes"/>
      <point x="463" y="237"/>
      <point x="441" y="268"/>
      <point x="399" y="268" type="curve" smooth="yes"/>
      <point x="344" y="268"/>
      <point x="309" y="212"/>
      <point x="309" y="140" type="curve" smooth="yes"/>
      <point x="309" y="40"/>
      <point x="353" y="-12"/>
    </contour>
  </outline>
</glyph>
<glyph name="taknda" format="2">
  <advance width="445"/>
  <unicode hex="0CA4"/>
  <outline>
    <contour>
      <point x="219" y="-12" type="curve" smooth="yes"/>
      <point x="362" y="-12"/>
      <point x="407" y="87"/>
      <point x="407" y="184" type="curve" smooth="yes"/>
      <point x="407" y="258"/>
      <point x="387" y="305"/>
      <point x="354" y="342" type="curve"/>
      <point x="352" y="345"/>
      <point x="349" y="342"/>
      <point x="347" y="345" type="curve"/>
      <point x="324" y="371"/>
      <point x="292" y="388"/>
      <point x="250" y="388" type="curve" smooth="yes"/>
      <point x="186" y="388"/>
      <point x="149" y="342"/>
      <point x="149" y="290" type="curve" smooth="yes"/>
      <point x="149" y="228"/>
      <point x="188" y="193"/>
      <point x="243" y="193" type="curve" smooth="yes"/>
      <point x="309" y="193"/>
      <point x="343" y="246"/>
      <point x="356" y="310" type="curve"/>
      <point x="359" y="322" type="line"/>
      <point x="360" y="333"/>
      <point x="361" y="343"/>
      <point x="361" y="357" type="curve" smooth="yes"/>
      <point x="361" y="445"/>
      <point x="321" y="495"/>
      <point x="254" y="524" type="curve"/>
      <point x="216" y="523" type="line"/>
      <point x="287" y="492"/>
      <point x="336" y="444"/>
      <point x="336" y="357" type="curve" smooth="yes"/>
      <point x="336" y="285"/>
      <point x="305" y="219"/>
      <point x="244" y="219" type="curve" smooth="yes"/>
      <point x="201" y="219"/>
      <point x="176" y="241"/>
      <point x="176" y="290" type="curve" smooth="yes"/>
      <point x="176" y="330"/>
      <point x="200" y="362"/>
      <point x="250" y="362" type="curve" smooth="yes"/>
      <point x="293" y="362"/>
      <point x="325" y="341"/>
      <point x="345" y="314" type="curve"/>
      <point x="347" y="311"/>
      <point x="350" y="309"/>
      <point x="352" y="306" type="curve"/>
      <point x="371" y="272"/>
      <point x="380" y="229"/>
      <point x="380" y="185" type="curve" smooth="yes"/>
      <point x="380" y="111"/>
      <point x="355" y="14"/>
      <point x="220" y="14" type="curve" smooth="yes"/>
      <point x="110" y="14"/>
      <point x="63" y="85"/>
      <point x="63" y="185" type="curve" smooth="yes"/>
      <point x="63" y="207"/>
      <point x="65" y="230"/>
      <point x="69" y="249" type="curve"/>
      <point x="42" y="253" type="line"/>
      <point x="39" y="235"/>
      <point x="36" y="217"/>
      <point x="36" y="188" type="curve" smooth="yes"/>
      <point x="36" y="69"/>
      <point x="98" y="-12"/>
    </contour>
    <contour>
      <point x="39" y="515" type="line"/>
      <point x="255" y="515" type="line" smooth="yes"/>
      <point x="329" y="515"/>
      <point x="357" y="526"/>
      <point x="379" y="550" type="curve" smooth="yes"/>
      <point x="396" y="569"/>
      <point x="405" y="597"/>
      <point x="405" y="630" type="curve" smooth="yes"/>
      <point x="405" y="675"/>
      <point x="385" y="724"/>
      <point x="345" y="778" type="curve"/>
      <point x="324" y="763" type="line"/>
      <point x="362" y="708"/>
      <point x="378" y="673"/>
      <point x="378" y="630" type="curve" smooth="yes"/>
      <point x="378" y="605"/>
      <point x="373" y="583"/>
      <point x="361" y="569" type="curve" smooth="yes"/>
      <point x="344" y="549"/>
      <point x="320" y="540"/>
      <point x="251" y="540" type="curve" smooth="yes"/>
      <point x="39" y="540" type="line"/>
    </contour>
  </outline>
</glyph>
<glyph name="daknda" format="2">
  <advance width="541"/>
  <unicode hex="0CA6"/>
  <outline>
    <contour>
      <point x="163" y="-12" type="curve" smooth="yes"/>
      <point x="233" y="-12"/>
      <point x="266" y="41"/>
      <point x="271" y="130" type="curve"/>
      <point x="267" y="130" type="line"/>
      <point x="273" y="41"/>
      <point x="308" y="-12"/>
      <point x="377" y="-12" type="curve" smooth="yes"/>
      <point x="453" y="-12"/>
      <point x="498" y="50"/>
      <point x="498" y="209" type="curve" smooth="yes"/>
      <point x="498" y="362"/>
      <point x="437" y="495"/>
      <point x="336" y="523" type="curve"/>
      <point x="348" y="515" type="line"/>
      <point x="422" y="515"/>
      <point x="450" y="526"/>
      <point x="472" y="550" type="curve" smooth="yes"/>
      <point x="489" y="569"/>
      <point x="498" y="597"/>
      <point x="498" y="630" type="curve" smooth="yes"/>
      <point x="498" y="675"/>
      <point x="478" y="724"/>
      <point x="438" y="778" type="curve"/>
      <point x="417" y="763" type="line"/>
      <point x="455" y="708"/>
      <point x="471" y="673"/>
      <point x="471" y="630" type="curve" smooth="yes"/>
      <point x="471" y="605"/>
      <point x="466" y="583"/>
      <point x="454" y="569" type="curve" smooth="yes"/>
      <point x="437" y="549"/>
      <point x="413" y="540"/>
      <point x="344" y="540" type="curve" smooth="yes"/>
      <point x="43" y="540" type="line"/>
      <point x="43" y="515" type="line"/>
      <point x="200" y="515" type="line"/>
      <point x="204" y="523" type="line"/>
      <point x="103" y="494"/>
      <point x="43" y="361"/>
      <point x="43" y="209" type="curve" smooth="yes"/>
      <point x="43" y="48"/>
      <point x="88" y="-12"/>
    </contour>
    <contour>
      <point x="162" y="14" type="curve" smooth="yes"/>
      <point x="101" y="14"/>
      <point x="70" y="68"/>
      <point x="70" y="209" type="curve" smooth="yes"/>
      <point x="70" y="366"/>
      <point x="139" y="518"/>
      <point x="268" y="518" type="curve" smooth="yes"/>
      <point x="273" y="518" type="line" smooth="yes"/>
      <point x="401" y="518"/>
      <point x="471" y="366"/>
      <point x="471" y="210" type="curve" smooth="yes"/>
      <point x="471" y="68"/>
      <point x="439" y="14"/>
      <point x="378" y="14" type="curve" smooth="yes"/>
      <point x="315" y="14"/>
      <point x="285" y="69"/>
      <point x="282" y="178" type="curve"/>
      <point x="258" y="178" type="line"/>
      <point x="255" y="69"/>
      <point x="225" y="14"/>
    </contour>
  </outline>
</glyph>
<glyph name="naknda" format="2">
  <advance width="498"/>
  <unicode hex="0CA8"/>
  <outline>
    <contour>
      <point x="343" y="-12" type="curve" smooth="yes"/>
      <point x="415" y="-12"/>
      <point x="455" y="61"/>
      <point x="455" y="188" type="curve" smooth="yes"/>
      <point x="455" y="353"/>
      <point x="369" y="474"/>
      <point x="269" y="521" type="curve"/>
      <point x="261" y="515" type="line"/>
      <point x="305" y="515" type="line" smooth="yes"/>
      <point x="379" y="515"/>
      <point x="407" y="526"/>
      <point x="429" y="550" type="curve" smooth="yes"/>
      <point x="446" y="569"/>
      <point x="455" y="597"/>
      <point x="455" y="630" type="curve" smooth="yes"/>
      <point x="455" y="675"/>
      <point x="435" y="724"/>
      <point x="395" y="778" type="curve"/>
      <point x="374" y="763" type="line"/>
      <point x="412" y="708"/>
      <point x="428" y="673"/>
      <point x="428" y="630" type="curve" smooth="yes"/>
      <point x="428" y="605"/>
      <point x="423" y="583"/>
      <point x="411" y="569" type="curve" smooth="yes"/>
      <point x="394" y="549"/>
      <point x="370" y="540"/>
      <point x="301" y="540" type="curve" smooth="yes"/>
      <point x="36" y="540" type="line"/>
      <point x="36" y="515" type="line"/>
      <point x="236" y="515" type="line"/>
      <point x="342" y="470"/>
      <point x="428" y="348"/>
      <point x="428" y="187" type="curve" smooth="yes"/>
      <point x="428" y="74"/>
      <point x="398" y="14"/>
      <point x="344" y="14" type="curve" smooth="yes"/>
      <point x="294" y="14"/>
      <point x="275" y="46"/>
      <point x="234" y="158" type="curve" smooth="yes"/>
      <point x="199" y="253"/>
      <point x="174" y="287"/>
      <point x="122" y="287" type="curve" smooth="yes"/>
      <point x="73" y="287"/>
      <point x="35" y="245"/>
      <point x="35" y="159" type="curve" smooth="yes"/>
      <point x="35" y="90"/>
      <point x="54" y="43"/>
      <point x="84" y="-15" type="curve"/>
      <point x="108" y="-4" type="line"/>
      <point x="77" y="56"/>
      <point x="62" y="97"/>
      <point x="62" y="159" type="curve" smooth="yes"/>
      <point x="62" y="231"/>
      <point x="89" y="262"/>
      <point x="121" y="262" type="curve" smooth="yes"/>
      <point x="159" y="262"/>
      <point x="178" y="235"/>
      <point x="209" y="149" type="curve" smooth="yes"/>
      <point x="250" y="36"/>
      <point x="278" y="-12"/>
    </contour>
  </outline>
</glyph>
<glyph name="phaknda" format="2">
  <advance width="561"/>
  <unicode hex="0CAB"/>
  <outline>
    <contour>
      <point x="164" y="-12" type="curve" smooth="yes"/>
      <point x="242" y="-12"/>
      <point x="284" y="42"/>
      <point x="294" y="130" type="curve"/>
      <point x="290" y="130" type="line"/>
      <point x="295" y="42"/>
      <point x="333" y="-12"/>
      <point x="398" y="-12" type="curve" smooth="yes"/>
      <point x="474" y="-12"/>
      <point x="519" y="53"/>
      <point x="519" y="179" type="curve" smooth="yes"/>
      <point x="519" y="286"/>
      <point x="480" y="367"/>
      <point x="429" y="440" type="curve"/>
      <point x="407" y="426" type="line"/>
      <point x="460" y="354"/>
      <point x="492" y="270"/>
      <point x="492" y="179" type="curve" smooth="yes"/>
      <point x="492" y="69"/>
      <point x="460" y="14"/>
      <point x="399" y="14" type="curve" smooth="yes"/>
      <point x="339" y="14"/>
      <point x="311" y="67"/>
      <point x="305" y="178" type="curve"/>
      <point x="281" y="178" type="line"/>
      <point x="272" y="65"/>
      <point x="238" y="14"/>
      <point x="165" y="14" type="curve" smooth="yes"/>
      <point x="103" y="14"/>
      <point x="62" y="62"/>
      <point x="62" y="159" type="curve" smooth="yes"/>
      <point x="62" y="233"/>
      <point x="93" y="279"/>
      <point x="135" y="279" type="curve" smooth="yes"/>
      <point x="167" y="279"/>
      <point x="179" y="257"/>
      <point x="179" y="217" type="curve" smooth="yes"/>
      <point x="179" y="202"/>
      <point x="177" y="184"/>
      <point x="173" y="170" type="curve"/>
      <point x="199" y="167" type="line"/>
      <point x="203" y="182"/>
      <point x="206" y="203"/>
      <point x="206" y="221" type="curve" smooth="yes"/>
      <point x="206" y="272"/>
      <point x="180" y="304"/>
      <point x="136" y="304" type="curve" smooth="yes"/>
      <point x="76" y="304"/>
      <point x="35" y="245"/>
      <point x="35" y="159" type="curve" smooth="yes"/>
      <point x="35" y="53"/>
      <point x="86" y="-12"/>
    </contour>
    <contour>
      <point x="274" y="-144" type="line"/>
      <point x="306" y="-144" type="line"/>
      <point x="302" y="22" type="line"/>
      <point x="278" y="22" type="line"/>
    </contour>
    <contour>
      <point x="273" y="337" type="curve" smooth="yes"/>
      <point x="292" y="337"/>
      <point x="303" y="349"/>
      <point x="303" y="377" type="curve" smooth="yes"/>
      <point x="303" y="402"/>
      <point x="293" y="417"/>
      <point x="273" y="417" type="curve" smooth="yes"/>
      <point x="254" y="417"/>
      <point x="242" y="403"/>
      <point x="242" y="377" type="curve" smooth="yes"/>
      <point x="242" y="350"/>
      <point x="256" y="337"/>
    </contour>
    <contour>
      <point x="35" y="515" type="line"/>
      <point x="369" y="515" type="line" smooth="yes"/>
      <point x="443" y="515"/>
      <point x="471" y="526"/>
      <point x="493" y="550" type="curve" smooth="yes"/>
      <point x="510" y="569"/>
      <point x="519" y="597"/>
      <point x="519" y="630" type="curve" smooth="yes"/>
      <point x="519" y="675"/>
      <point x="499" y="724"/>
      <point x="459" y="778" type="curve"/>
      <point x="438" y="763" type="line"/>
      <point x="476" y="708"/>
      <point x="492" y="673"/>
      <point x="492" y="630" type="curve" smooth="yes"/>
      <point x="492" y="605"/>
      <point x="487" y="583"/>
      <point x="475" y="569" type="curve" smooth="yes"/>
      <point x="458" y="549"/>
      <point x="434" y="540"/>
      <point x="365" y="540" type="curve" smooth="yes"/>
      <point x="35" y="540" type="line"/>
    </contour>
  </outline>
</glyph>
<glyph name="baknda" format="2">
  <advance width="567"/>
  <unicode hex="0CAC"/>
  <outline>
    <contour>
      <point x="393" y="-12" type="curve" smooth="yes"/>
      <point x="474" y="-12"/>
      <point x="526" y="63"/>
      <point x="526" y="192" type="curve" smooth="yes"/>
      <point x="526" y="366"/>
      <point x="438" y="480"/>
      <point x="347" y="553" type="curve"/>
      <point x="331" y="533" type="line"/>
      <point x="423" y="458"/>
      <point x="499" y="351"/>
      <point x="499" y="193" type="curve" smooth="yes"/>
      <point x="499" y="75"/>
      <point x="458" y="14"/>
      <point x="391" y="14" type="curve" smooth="yes"/>
      <point x="324" y="14"/>
      <point x="294" y="69"/>
      <point x="291" y="178" type="curve"/>
      <point x="267" y="178" type="line"/>
      <point x="263" y="74"/>
      <point x="236" y="14"/>
      <point x="162" y="14" type="curve" smooth="yes"/>
      <point x="111" y="14"/>
      <point x="76" y="49"/>
      <point x="76" y="124" type="curve" smooth="yes"/>
      <point x="76" y="185"/>
      <point x="102" y="227"/>
      <point x="155" y="277" type="curve" smooth="yes"/>
      <point x="206" y="325"/>
      <point x="231" y="362"/>
      <point x="231" y="427" type="curve" smooth="yes"/>
      <point x="231" y="489"/>
      <point x="201" y="552"/>
      <point x="130" y="552" type="curve" smooth="yes"/>
      <point x="64" y="552"/>
      <point x="29" y="499"/>
      <point x="29" y="437" type="curve" smooth="yes"/>
      <point x="29" y="402"/>
      <point x="37" y="370"/>
      <point x="49" y="341" type="curve"/>
      <point x="74" y="349" type="line"/>
      <point x="64" y="374"/>
      <point x="56" y="403"/>
      <point x="56" y="436" type="curve" smooth="yes"/>
      <point x="56" y="490"/>
      <point x="82" y="526"/>
      <point x="130" y="526" type="curve" smooth="yes"/>
      <point x="183" y="526"/>
      <point x="204" y="479"/>
      <point x="204" y="427" type="curve" smooth="yes"/>
      <point x="204" y="371"/>
      <point x="184" y="340"/>
      <point x="135" y="293" type="curve" smooth="yes"/>
      <point x="82" y="242"/>
      <point x="49" y="196"/>
      <point x="49" y="124" type="curve" smooth="yes"/>
      <point x="49" y="50"/>
      <point x="86" y="-12"/>
      <point x="162" y="-12" type="curve" smooth="yes"/>
      <point x="234" y="-12"/>
      <point x="273" y="30"/>
      <point x="280" y="130" type="curve"/>
      <point x="276" y="130" type="line"/>
      <point x="282" y="41"/>
      <point x="316" y="-12"/>
    </contour>
  </outline>
</glyph>
<glyph name="bhaknda" format="2">
  <advance width="573"/>
  <unicode hex="0CAD"/>
  <outline>
    <contour>
      <point x="162" y="-12" type="curve" smooth="yes"/>
      <point x="234" y="-12"/>
      <point x="273" y="30"/>
      <point x="280" y="130" type="curve"/>
      <point x="276" y="130" type="line"/>
      <point x="282" y="41"/>
      <point x="316" y="-12"/>
      <point x="393" y="-12" type="curve" smooth="yes"/>
      <point x="477" y="-12"/>
      <point x="528" y="59"/>
      <point x="528" y="190" type="curve" smooth="yes"/>
      <point x="528" y="379"/>
      <point x="433" y="481"/>
      <point x="349" y="535" type="curve"/>
      <point x="327" y="525" type="line"/>
      <point x="428" y="456"/>
      <point x="501" y="355"/>
      <point x="501" y="190" type="curve" smooth="yes"/>
      <point x="501" y="70"/>
      <point x="459" y="14"/>
      <point x="394" y="14" type="curve" smooth="yes"/>
      <point x="324" y="14"/>
      <point x="294" y="69"/>
      <point x="291" y="178" type="curve"/>
      <point x="267" y="178" type="line"/>
      <point x="263" y="74"/>
      <point x="236" y="14"/>
      <point x="162" y="14" type="curve" smooth="yes"/>
      <point x="111" y="14"/>
      <point x="76" y="49"/>
      <point x="76" y="124" type="curve" smooth="yes"/>
      <point x="76" y="185"/>
      <point x="102" y="227"/>
      <point x="155" y="277" type="curve" smooth="yes"/>
      <point x="206" y="325"/>
      <point x="231" y="362"/>
      <point x="231" y="427" type="curve" smooth="yes"/>
      <point x="231" y="489"/>
      <point x="201" y="552"/>
      <point x="130" y="552" type="curve" smooth="yes"/>
      <point x="64" y="552"/>
      <point x="29" y="499"/>
      <point x="29" y="437" type="curve" smooth="yes"/>
      <point x="29" y="402"/>
      <point x="37" y="370"/>
      <point x="49" y="341" type="curve"/>
      <point x="74" y="349" type="line"/>
      <point x="64" y="374"/>
      <point x="56" y="403"/>
      <point x="56" y="436" type="curve" smooth="yes"/>
      <point x="56" y="490"/>
      <point x="82" y="526"/>
      <point x="130" y="526" type="curve" smooth="yes"/>
      <point x="183" y="526"/>
      <point x="204" y="479"/>
      <point x="204" y="427" type="curve" smooth="yes"/>
      <point x="204" y="371"/>
      <point x="184" y="340"/>
      <point x="135" y="293" type="curve" smooth="yes"/>
      <point x="82" y="242"/>
      <point x="49" y="196"/>
      <point x="49" y="124" type="curve" smooth="yes"/>
      <point x="49" y="50"/>
      <point x="86" y="-12"/>
    </contour>
    <contour>
      <point x="263" y="-144" type="line"/>
      <point x="295" y="-144" type="line"/>
      <point x="291" y="22" type="line"/>
      <point x="267" y="22" type="line"/>
    </contour>
    <contour>
      <point x="287" y="515" type="line"/>
      <point x="373" y="515" type="line" smooth="yes"/>
      <point x="447" y="515"/>
      <point x="475" y="526"/>
      <point x="497" y="550" type="curve" smooth="yes"/>
      <point x="514" y="569"/>
      <point x="523" y="597"/>
      <point x="523" y="630" type="curve" smooth="yes"/>
      <point x="523" y="675"/>
      <point x="503" y="724"/>
      <point x="463" y="778" type="curve"/>
      <point x="442" y="763" type="line"/>
      <point x="480" y="708"/>
      <point x="496" y="673"/>
      <point x="496" y="630" type="curve" smooth="yes"/>
      <point x="496" y="605"/>
      <point x="491" y="583"/>
      <point x="479" y="569" type="curve" smooth="yes"/>
      <point x="462" y="549"/>
      <point x="438" y="540"/>
      <point x="369" y="540" type="curve" smooth="yes"/>
      <point x="287" y="540" type="line"/>
    </contour>
  </outline>
</glyph>
<glyph name="maknda" format="2">
  <advance width="833"/>
  <unicode hex="0CAE"/>
  <outline>
    <contour>
      <point x="165" y="-12" type="curve" smooth="yes"/>
      <point x="243" y="-12"/>
      <point x="285" y="42"/>
      <point x="295" y="130" type="curve"/>
      <point x="291" y="130" type="line"/>
      <point x="296" y="42"/>
      <point x="334" y="-12"/>
      <point x="399" y="-12" type="curve" smooth="yes"/>
      <point x="474" y="-12"/>
      <point x="522" y="52"/>
      <point x="522" y="187" type="curve" smooth="yes"/>
      <point x="522" y="353"/>
      <point x="436" y="473"/>
      <point x="336" y="521" type="curve"/>
      <point x="303" y="515" type="line"/>
      <point x="409" y="470"/>
      <point x="495" y="348"/>
      <point x="495" y="187" type="curve" smooth="yes"/>
      <point x="495" y="69"/>
      <point x="460" y="14"/>
      <point x="401" y="14" type="curve" smooth="yes"/>
      <point x="339" y="14"/>
      <point x="312" y="67"/>
      <point x="306" y="178" type="curve"/>
      <point x="282" y="178" type="line"/>
      <point x="273" y="65"/>
      <point x="239" y="14"/>
      <point x="166" y="14" type="curve" smooth="yes"/>
      <point x="104" y="14"/>
      <point x="63" y="62"/>
      <point x="63" y="159" type="curve" smooth="yes"/>
      <point x="63" y="233"/>
      <point x="94" y="279"/>
      <point x="136" y="279" type="curve" smooth="yes"/>
      <point x="168" y="279"/>
      <point x="180" y="257"/>
      <point x="180" y="217" type="curve" smooth="yes"/>
      <point x="180" y="202"/>
      <point x="178" y="184"/>
      <point x="174" y="170" type="curve"/>
      <point x="200" y="167" type="line"/>
      <point x="204" y="182"/>
      <point x="207" y="203"/>
      <point x="207" y="221" type="curve" smooth="yes"/>
      <point x="207" y="272"/>
      <point x="181" y="304"/>
      <point x="137" y="304" type="curve" smooth="yes"/>
      <point x="77" y="304"/>
      <point x="36" y="245"/>
      <point x="36" y="159" type="curve" smooth="yes"/>
      <point x="36" y="53"/>
      <point x="87" y="-12"/>
    </contour>
    <contour>
      <point x="35" y="515" type="line"/>
      <point x="372" y="515" type="line" smooth="yes"/>
      <point x="446" y="515"/>
      <point x="474" y="526"/>
      <point x="496" y="550" type="curve" smooth="yes"/>
      <point x="513" y="569"/>
      <point x="522" y="597"/>
      <point x="522" y="630" type="curve" smooth="yes"/>
      <point x="522" y="675"/>
      <point x="502" y="724"/>
      <point x="462" y="778" type="curve"/>
      <point x="441" y="763" type="line"/>
      <point x="479" y="708"/>
      <point x="495" y="673"/>
      <point x="495" y="630" type="curve" smooth="yes"/>
      <point x="495" y="605"/>
      <point x="490" y="583"/>
      <point x="478" y="569" type="curve" smooth="yes"/>
      <point x="461" y="549"/>
      <point x="437" y="540"/>
      <point x="368" y="540" type="curve" smooth="yes"/>
      <point x="35" y="540" type="line"/>
    </contour>
    <contour>
      <point x="651" y="-12" type="curve" smooth="yes"/>
      <point x="739" y="-12"/>
      <point x="792" y="61"/>
      <point x="792" y="192" type="curve" smooth="yes"/>
      <point x="792" y="366"/>
      <point x="704" y="480"/>
      <point x="613" y="553" type="curve"/>
      <point x="597" y="533" type="line"/>
      <point x="689" y="458"/>
      <point x="765" y="351"/>
      <point x="765" y="193" type="curve" smooth="yes"/>
      <point x="765" y="75"/>
      <point x="725" y="14"/>
      <point x="650" y="14" type="curve" smooth="yes"/>
      <point x="590" y="14"/>
      <point x="543" y="45"/>
      <point x="497" y="114" type="curve"/>
      <point x="484" y="90" type="line"/>
      <point x="531" y="24"/>
      <point x="578" y="-12"/>
    </contour>
  </outline>
</glyph>
<glyph name="yaknda" format="2">
  <advance width="978"/>
  <unicode hex="0CAF"/>
  <outline>
    <contour>
      <point x="222" y="-12" type="curve" smooth="yes"/>
      <point x="338" y="-12"/>
      <point x="396" y="103"/>
      <point x="396" y="270" type="curve" smooth="yes"/>
      <point x="396" y="436"/>
      <point x="340" y="552"/>
      <point x="221" y="552" type="curve" smooth="yes"/>
      <point x="104" y="552"/>
      <point x="45" y="436"/>
      <point x="45" y="271" type="curve" smooth="yes"/>
      <point x="45" y="107"/>
      <point x="101" y="-12"/>
    </contour>
    <contour>
      <point x="221" y="14" type="curve" smooth="yes"/>
      <point x="120" y="14"/>
      <point x="72" y="116"/>
      <point x="72" y="271" type="curve" smooth="yes"/>
      <point x="72" y="424"/>
      <point x="121" y="526"/>
      <point x="220" y="526" type="curve" smooth="yes"/>
      <point x="322" y="526"/>
      <point x="369" y="424"/>
      <point x="369" y="270" type="curve" smooth="yes"/>
      <point x="369" y="116"/>
      <point x="321" y="14"/>
    </contour>
    <contour>
      <point x="526" y="-12" type="curve" smooth="yes"/>
      <point x="614" y="-12"/>
      <point x="667" y="61"/>
      <point x="667" y="192" type="curve" smooth="yes"/>
      <point x="667" y="356"/>
      <point x="590" y="472"/>
      <point x="491" y="530" type="curve"/>
      <point x="471" y="518" type="line"/>
      <point x="570" y="458"/>
      <point x="640" y="343"/>
      <point x="640" y="193" type="curve" smooth="yes"/>
      <point x="640" y="75"/>
      <point x="600" y="14"/>
      <point x="525" y="14" type="curve" smooth="yes"/>
      <point x="465" y="14"/>
      <point x="418" y="45"/>
      <point x="372" y="114" type="curve"/>
      <point x="359" y="90" type="line"/>
      <point x="406" y="24"/>
      <point x="453" y="-12"/>
    </contour>
    <contour>
      <point x="796" y="-12" type="curve" smooth="yes"/>
      <point x="884" y="-12"/>
      <point x="937" y="60"/>
      <point x="937" y="192" type="curve" smooth="yes"/>
      <point x="937" y="366"/>
      <point x="849" y="480"/>
      <point x="758" y="553" type="curve"/>
      <point x="742" y="533" type="line"/>
      <point x="834" y="458"/>
      <point x="910" y="351"/>
      <point x="910" y="193" type="curve" smooth="yes"/>
      <point x="910" y="76"/>
      <point x="870" y="14"/>
      <point x="795" y="14" type="curve" smooth="yes"/>
      <point x="735" y="14"/>
      <point x="688" y="45"/>
      <point x="642" y="114" type="curve"/>
      <point x="629" y="90" type="line"/>
      <point x="676" y="24"/>
      <point x="723" y="-12"/>
    </contour>
    <contour>
      <point x="643" y="630" type="curve" smooth="yes"/>
      <point x="643" y="675"/>
      <point x="623" y="724"/>
      <point x="583" y="778" type="curve"/>
      <point x="562" y="763" type="line"/>
      <point x="600" y="708"/>
      <point x="616" y="673"/>
      <point x="616" y="630" type="curve" smooth="yes"/>
      <point x="616" y="605"/>
      <point x="611" y="583"/>
      <point x="599" y="569" type="curve" smooth="yes"/>
      <point x="582" y="549"/>
      <point x="558" y="540"/>
      <point x="489" y="540" type="curve" smooth="yes"/>
      <point x="424" y="540" type="line"/>
      <point x="424" y="515" type="line"/>
      <point x="493" y="515" type="line" smooth="yes"/>
      <point x="567" y="515"/>
      <point x="595" y="526"/>
      <point x="617" y="550" type="curve" smooth="yes"/>
      <point x="634" y="569"/>
      <point x="643" y="597"/>
    </contour>
  </outline>
</glyph>
<glyph name="rraknda" format="2">
  <advance width="621"/>
  <unicode hex="0CB1"/>
  <outline>
    <contour>
      <point x="193" y="-12" type="curve" smooth="yes"/>
      <point x="271" y="-12"/>
      <point x="302" y="44"/>
      <point x="311" y="130" type="curve"/>
      <point x="308" y="130" type="line"/>
      <point x="318" y="44"/>
      <point x="351" y="-12"/>
      <point x="429" y="-12" type="curve" smooth="yes"/>
      <point x="505" y="-12"/>
      <point x="576" y="37"/>
      <point x="576" y="245" type="curve" smooth="yes"/>
      <point x="576" y="438"/>
      <point x="522" y="552"/>
      <point x="435" y="552" type="curve" smooth="yes"/>
      <point x="379" y="552"/>
      <point x="346" y="505"/>
      <point x="346" y="435" type="curve" smooth="yes"/>
      <point x="346" y="379"/>
      <point x="364" y="342"/>
      <point x="403" y="326" type="curve" smooth="yes"/>
      <point x="420" y="319"/>
      <point x="436" y="309"/>
      <point x="459" y="309" type="curve" smooth="yes"/>
      <point x="503" y="309"/>
      <point x="538" y="328"/>
      <point x="559" y="351" type="curve"/>
      <point x="553" y="377" type="line"/>
      <point x="528" y="348"/>
      <point x="497" y="335"/>
      <point x="462" y="335" type="curve" smooth="yes"/>
      <point x="399" y="335"/>
      <point x="373" y="369"/>
      <point x="373" y="434" type="curve" smooth="yes"/>
      <point x="373" y="494"/>
      <point x="394" y="526"/>
      <point x="435" y="526" type="curve" smooth="yes"/>
      <point x="505" y="526"/>
      <point x="549" y="421"/>
      <point x="549" y="245" type="curve" smooth="yes"/>
      <point x="549" y="46"/>
      <point x="486" y="14"/>
      <point x="428" y="14" type="curve" smooth="yes"/>
      <point x="360" y="14"/>
      <point x="329" y="68"/>
      <point x="322" y="178" type="curve"/>
      <point x="298" y="178" type="line"/>
      <point x="292" y="68"/>
      <point x="261" y="14"/>
      <point x="193" y="14" type="curve" smooth="yes"/>
      <point x="135" y="14"/>
      <point x="72" y="45"/>
      <point x="72" y="245" type="curve" smooth="yes"/>
      <point x="72" y="421"/>
      <point x="116" y="526"/>
      <point x="186" y="526" type="curve" smooth="yes"/>
      <point x="227" y="526"/>
      <point x="248" y="494"/>
      <point x="248" y="434" type="curve" smooth="yes"/>
      <point x="248" y="369"/>
      <point x="221" y="335"/>
      <point x="159" y="335" type="curve" smooth="yes"/>
      <point x="124" y="335"/>
      <point x="93" y="348"/>
      <point x="68" y="377" type="curve"/>
      <point x="62" y="351" type="line"/>
      <point x="83" y="328"/>
      <point x="118" y="309"/>
      <point x="162" y="309" type="curve" smooth="yes"/>
      <point x="186" y="309"/>
      <point x="206" y="317"/>
      <point x="222" y="327" type="curve"/>
      <point x="259" y="346"/>
      <point x="275" y="381"/>
      <point x="275" y="436" type="curve" smooth="yes"/>
      <point x="275" y="505"/>
      <point x="242" y="552"/>
      <point x="186" y="552" type="curve" smooth="yes"/>
      <point x="99" y="552"/>
      <point x="45" y="438"/>
      <point x="45" y="245" type="curve" smooth="yes"/>
      <point x="45" y="37"/>
      <point x="116" y="-12"/>
    </contour>
    <contour>
      <point x="162" y="309" type="line"/>
      <point x="459" y="309" type="line"/>
      <point x="450" y="321" type="line"/>
      <point x="423" y="327"/>
      <point x="380" y="334"/>
      <point x="332" y="334" type="curve" smooth="yes"/>
      <point x="284" y="334" type="line" smooth="yes"/>
      <point x="243" y="334"/>
      <point x="202" y="329"/>
      <point x="180" y="324" type="curve"/>
    </contour>
  </outline>
</glyph>
<glyph name="laknda" format="2">
  <advance width="534"/>
  <unicode hex="0CB2"/>
  <outline>
    <contour>
      <point x="270" y="-12" type="curve" smooth="yes"/>
      <point x="420" y="-12"/>
      <point x="493" y="109"/>
      <point x="493" y="264" type="curve" smooth="yes"/>
      <point x="493" y="396"/>
      <point x="443" y="486"/>
      <point x="369" y="553" type="curve"/>
      <point x="352" y="533" type="line"/>
      <point x="423" y="470"/>
      <point x="466" y="384"/>
      <point x="466" y="263" type="curve" smooth="yes"/>
      <point x="466" y="114"/>
      <point x="399" y="14"/>
      <point x="271" y="14" type="curve" smooth="yes"/>
      <point x="126" y="14"/>
      <point x="68" y="141"/>
      <point x="68" y="302" type="curve" smooth="yes"/>
      <point x="68" y="449"/>
      <point x="108" y="526"/>
      <point x="170" y="526" type="curve" smooth="yes"/>
      <point x="211" y="526"/>
      <point x="232" y="494"/>
      <point x="232" y="434" type="curve" smooth="yes"/>
      <point x="232" y="369"/>
      <point x="205" y="335"/>
      <point x="143" y="335" type="curve" smooth="yes"/>
      <point x="113" y="335"/>
      <point x="81" y="348"/>
      <point x="56" y="377" type="curve"/>
      <point x="50" y="351" type="line"/>
      <point x="71" y="328"/>
      <point x="105" y="309"/>
      <point x="145" y="309" type="curve" smooth="yes"/>
      <point x="222" y="309"/>
      <point x="259" y="359"/>
      <point x="259" y="436" type="curve" smooth="yes"/>
      <point x="259" y="506"/>
      <point x="226" y="552"/>
      <point x="170" y="552" type="curve" smooth="yes"/>
      <point x="99" y="552"/>
      <point x="41" y="476"/>
      <point x="41" y="303" type="curve" smooth="yes"/>
      <point x="41" y="122"/>
      <point x="114" y="-12"/>
    </contour>
  </outline>
</glyph>
<glyph name="llaknda" format="2">
  <advance width="507"/>
  <unicode hex="0CB3"/>
  <outline>
    <contour>
      <point x="262" y="-12" type="curve" smooth="yes"/>
      <point x="323" y="-12"/>
      <point x="362" y="26"/>
      <point x="362" y="91" type="curve" smooth="yes"/>
      <point x="362" y="145"/>
      <point x="329" y="180"/>
      <point x="294" y="194" type="curve"/>
      <point x="290" y="189" type="line"/>
      <point x="397" y="194"/>
      <point x="466" y="260"/>
      <point x="466" y="367" type="curve" smooth="yes"/>
      <point x="466" y="451"/>
      <point x="414" y="500"/>
      <point x="368" y="524" type="curve"/>
      <point x="369" y="518" type="line"/>
      <point x="444" y="523"/>
      <point x="469" y="574"/>
      <point x="469" y="630" type="curve" smooth="yes"/>
      <point x="469" y="675"/>
      <point x="449" y="724"/>
      <point x="409" y="778" type="curve"/>
      <point x="388" y="763" type="line"/>
      <point x="426" y="708"/>
      <point x="442" y="673"/>
      <point x="442" y="630" type="curve" smooth="yes"/>
      <point x="442" y="604"/>
      <point x="437" y="583"/>
      <point x="425" y="569" type="curve" smooth="yes"/>
      <point x="408" y="549"/>
      <point x="384" y="540"/>
      <point x="315" y="540" type="curve" smooth="yes"/>
      <point x="281" y="540" type="line"/>
      <point x="281" y="515" type="line"/>
      <point x="344" y="515" type="line"/>
      <point x="396" y="484"/>
      <point x="439" y="441"/>
      <point x="439" y="364" type="curve" smooth="yes"/>
      <point x="439" y="269"/>
      <point x="379" y="214"/>
      <point x="262" y="208" type="curve"/>
      <point x="130" y="218"/>
      <point x="60" y="279"/>
      <point x="60" y="390" type="curve" smooth="yes"/>
      <point x="60" y="482"/>
      <point x="99" y="526"/>
      <point x="146" y="526" type="curve" smooth="yes"/>
      <point x="193" y="526"/>
      <point x="210" y="487"/>
      <point x="210" y="443" type="curve" smooth="yes"/>
      <point x="210" y="382"/>
      <point x="181" y="356"/>
      <point x="129" y="356" type="curve" smooth="yes"/>
      <point x="103" y="356"/>
      <point x="71" y="366"/>
      <point x="47" y="387" type="curve"/>
      <point x="49" y="359" type="line"/>
      <point x="68" y="342"/>
      <point x="96" y="330"/>
      <point x="129" y="330" type="curve" smooth="yes"/>
      <point x="200" y="330"/>
      <point x="237" y="374"/>
      <point x="237" y="443" type="curve" smooth="yes"/>
      <point x="237" y="499"/>
      <point x="208" y="552"/>
      <point x="146" y="552" type="curve" smooth="yes"/>
      <point x="87" y="552"/>
      <point x="34" y="498"/>
      <point x="34" y="391" type="curve" smooth="yes"/>
      <point x="34" y="272"/>
      <point x="106" y="205"/>
      <point x="224" y="189" type="curve"/>
      <point x="221" y="191" type="line"/>
      <point x="188" y="176"/>
      <point x="159" y="147"/>
      <point x="159" y="93" type="curve" smooth="yes"/>
      <point x="159" y="21"/>
      <point x="209" y="-12"/>
    </contour>
    <contour>
      <point x="261" y="14" type="curve" smooth="yes"/>
      <point x="214" y="14"/>
      <point x="186" y="42"/>
      <point x="186" y="93" type="curve" smooth="yes"/>
      <point x="186" y="143"/>
      <point x="217" y="179"/>
      <point x="261" y="185" type="curve"/>
      <point x="301" y="177"/>
      <point x="335" y="142"/>
      <point x="335" y="91" type="curve" smooth="yes"/>
      <point x="335" y="33"/>
      <point x="303" y="14"/>
    </contour>
  </outline>
</glyph>
<glyph name="shaknda" format="2">
  <advance width="444"/>
  <unicode hex="0CB6"/>
  <outline>
    <contour>
      <point x="185" y="-12" type="curve" smooth="yes"/>
      <point x="309" y="-12"/>
      <point x="401" y="72"/>
      <point x="401" y="258" type="curve" smooth="yes"/>
      <point x="401" y="378"/>
      <point x="353" y="466"/>
      <point x="275" y="526" type="curve"/>
      <point x="259" y="525" type="line"/>
      <point x="254" y="519" type="line"/>
      <point x="307" y="475"/>
      <point x="374" y="394"/>
      <point x="374" y="258" type="curve" smooth="yes"/>
      <point x="374" y="85"/>
      <point x="294" y="14"/>
      <point x="185" y="14" type="curve" smooth="yes"/>
      <point x="95" y="14"/>
      <point x="58" y="69"/>
      <point x="58" y="135" type="curve" smooth="yes"/>
      <point x="58" y="208"/>
      <point x="98" y="240"/>
      <point x="167" y="266" type="curve" smooth="yes"/>
      <point x="234" y="291"/>
      <point x="282" y="320"/>
      <point x="282" y="414" type="curve" smooth="yes"/>
      <point x="282" y="486"/>
      <point x="241" y="534"/>
      <point x="179" y="534" type="curve" smooth="yes"/>
      <point x="100" y="534"/>
      <point x="69" y="485"/>
      <point x="69" y="427" type="curve" smooth="yes"/>
      <point x="69" y="398"/>
      <point x="77" y="367"/>
      <point x="87" y="344" type="curve"/>
      <point x="112" y="351" type="line"/>
      <point x="104" y="372"/>
      <point x="96" y="397"/>
      <point x="96" y="427" type="curve" smooth="yes"/>
      <point x="96" y="476"/>
      <point x="115" y="518"/>
      <point x="177" y="518" type="curve" smooth="yes"/>
      <point x="232" y="518"/>
      <point x="256" y="472"/>
      <point x="256" y="412" type="curve" smooth="yes"/>
      <point x="256" y="337"/>
      <point x="219" y="313"/>
      <point x="156" y="289" type="curve" smooth="yes"/>
      <point x="88" y="263"/>
      <point x="31" y="225"/>
      <point x="31" y="135" type="curve" smooth="yes"/>
      <point x="31" y="54"/>
      <point x="82" y="-12"/>
    </contour>
    <contour>
      <point x="31" y="515" type="line"/>
      <point x="125" y="515" type="line"/>
      <point x="176" y="526" type="line"/>
      <point x="234" y="515" type="line"/>
      <point x="251" y="515" type="line"/>
      <point x="325" y="515"/>
      <point x="353" y="526"/>
      <point x="375" y="550" type="curve" smooth="yes"/>
      <point x="392" y="569"/>
      <point x="401" y="597"/>
      <point x="401" y="630" type="curve" smooth="yes"/>
      <point x="401" y="675"/>
      <point x="381" y="724"/>
      <point x="341" y="778" type="curve"/>
      <point x="320" y="763" type="line"/>
      <point x="358" y="708"/>
      <point x="374" y="673"/>
      <point x="374" y="630" type="curve" smooth="yes"/>
      <point x="374" y="605"/>
      <point x="369" y="583"/>
      <point x="357" y="569" type="curve" smooth="yes"/>
      <point x="340" y="549"/>
      <point x="316" y="540"/>
      <point x="247" y="540" type="curve" smooth="yes"/>
      <point x="31" y="540" type="line"/>
    </contour>
  </outline>
</glyph>
<glyph name="saknda" format="2">
  <advance width="497"/>
  <unicode hex="0CB8"/>
  <outline>
    <contour>
      <point x="346" y="-12" type="curve" smooth="yes"/>
      <point x="415" y="-12"/>
      <point x="455" y="52"/>
      <point x="455" y="175" type="curve" smooth="yes"/>
      <point x="455" y="285"/>
      <point x="416" y="368"/>
      <point x="365" y="440" type="curve"/>
      <point x="343" y="426" type="line"/>
      <point x="396" y="354"/>
      <point x="428" y="269"/>
      <point x="428" y="176" type="curve" smooth="yes"/>
      <point x="428" y="70"/>
      <point x="401" y="14"/>
      <point x="346" y="14" type="curve" smooth="yes"/>
      <point x="294" y="14"/>
      <point x="275" y="46"/>
      <point x="234" y="158" type="curve" smooth="yes"/>
      <point x="199" y="253"/>
      <point x="174" y="287"/>
      <point x="122" y="287" type="curve" smooth="yes"/>
      <point x="73" y="287"/>
      <point x="35" y="245"/>
      <point x="35" y="159" type="curve" smooth="yes"/>
      <point x="35" y="90"/>
      <point x="54" y="43"/>
      <point x="84" y="-15" type="curve"/>
      <point x="108" y="-4" type="line"/>
      <point x="77" y="56"/>
      <point x="62" y="97"/>
      <point x="62" y="159" type="curve" smooth="yes"/>
      <point x="62" y="231"/>
      <point x="89" y="262"/>
      <point x="121" y="262" type="curve" smooth="yes"/>
      <point x="159" y="262"/>
      <point x="178" y="235"/>
      <point x="209" y="149" type="curve" smooth="yes"/>
      <point x="250" y="36"/>
      <point x="278" y="-12"/>
    </contour>
    <contour>
      <point x="219" y="360" type="curve" smooth="yes"/>
      <point x="238" y="360"/>
      <point x="249" y="372"/>
      <point x="249" y="400" type="curve" smooth="yes"/>
      <point x="249" y="425"/>
      <point x="239" y="440"/>
      <point x="219" y="440" type="curve" smooth="yes"/>
      <point x="200" y="440"/>
      <point x="188" y="426"/>
      <point x="188" y="400" type="curve" smooth="yes"/>
      <point x="188" y="373"/>
      <point x="202" y="360"/>
    </contour>
    <contour>
      <point x="35" y="515" type="line"/>
      <point x="305" y="515" type="line" smooth="yes"/>
      <point x="379" y="515"/>
      <point x="407" y="526"/>
      <point x="429" y="550" type="curve" smooth="yes"/>
      <point x="446" y="569"/>
      <point x="455" y="597"/>
      <point x="455" y="630" type="curve" smooth="yes"/>
      <point x="455" y="675"/>
      <point x="435" y="724"/>
      <point x="395" y="778" type="curve"/>
      <point x="374" y="763" type="line"/>
      <point x="412" y="708"/>
      <point x="428" y="673"/>
      <point x="428" y="630" type="curve" smooth="yes"/>
      <point x="428" y="605"/>
      <point x="423" y="583"/>
      <point x="411" y="569" type="curve" smooth="yes"/>
      <point x="394" y="549"/>
      <point x="370" y="540"/>
      <point x="301" y="540" type="curve" smooth="yes"/>
      <point x="35" y="540" type="line"/>
    </contour>
  </outline>
</glyph>
<glyph name="nuktaknda" format="2">
  <unicode hex="0CBC"/>
  <outline>
    <contour>
      <point x="-199" y="-160" type="curve" smooth="yes"/>
      <point x="-180" y="-160"/>
      <point x="-169" y="-148"/>
      <point x="-169" y="-120" type="curve" smooth="yes"/>
      <point x="-169" y="-95"/>
      <point x="-179" y="-80"/>
      <point x="-199" y="-80" type="curve" smooth="yes"/>
      <point x="-218" y="-80"/>
      <point x="-230" y="-94"/>
      <point x="-230" y="-120" type="curve" smooth="yes"/>
      <point x="-230" y="-147"/>
      <point x="-216" y="-160"/>
    </contour>
    <contour>
      <point x="-356" y="-160" type="curve" smooth="yes"/>
      <point x="-337" y="-160"/>
      <point x="-326" y="-148"/>
      <point x="-326" y="-120" type="curve" smooth="yes"/>
      <point x="-326" y="-95"/>
      <point x="-336" y="-80"/>
      <point x="-356" y="-80" type="curve" smooth="yes"/>
      <point x="-375" y="-80"/>
      <point x="-387" y="-94"/>
      <point x="-387" y="-120" type="curve" smooth="yes"/>
      <point x="-387" y="-147"/>
      <point x="-373" y="-160"/>
    </contour>
  </outline>
</glyph>
<glyph name="avagrahaknda" format="2">
  <advance width="308"/>
  <unicode hex="0CBD"/>
  <outline>
    <contour>
      <point x="164" y="-12" type="curve" smooth="yes"/>
      <point x="242" y="-12"/>
      <point x="278" y="48"/>
      <point x="278" y="123" type="curve" smooth="yes"/>
      <point x="278" y="206"/>
      <point x="241" y="251"/>
      <point x="165" y="311" type="curve" smooth="yes"/>
      <point x="99" y="363"/>
      <point x="69" y="389"/>
      <point x="69" y="441" type="curve" smooth="yes"/>
      <point x="69" y="492"/>
      <point x="101" y="515"/>
      <point x="167" y="515" type="curve" smooth="yes"/>
      <point x="264" y="515" type="line"/>
      <point x="264" y="540" type="line"/>
      <point x="169" y="540" type="line" smooth="yes"/>
      <point x="114" y="540"/>
      <point x="82" y="527"/>
      <point x="62" y="502" type="curve" smooth="yes"/>
      <point x="48" y="485"/>
      <point x="42" y="464"/>
      <point x="42" y="441" type="curve" smooth="yes"/>
      <point x="42" y="377"/>
      <point x="86" y="337"/>
      <point x="151" y="289" type="curve" smooth="yes"/>
      <point x="217" y="240"/>
      <point x="251" y="197"/>
      <point x="251" y="123" type="curve" smooth="yes"/>
      <point x="251" y="55"/>
      <point x="221" y="14"/>
      <point x="164" y="14" type="curve" smooth="yes"/>
      <point x="100" y="14"/>
      <point x="66" y="59"/>
      <point x="49" y="187" type="curve"/>
      <point x="23" y="184" type="line"/>
      <point x="38" y="47"/>
      <point x="87" y="-12"/>
    </contour>
  </outline>
</glyph>
<glyph name="aavowelsignknda" format="2">
  <advance width="316"/>
  <unicode hex="0CBE"/>
  <outline>
    <contour>
      <point x="272" y="229" type="curve" smooth="yes"/>
      <point x="272" y="335"/>
      <point x="247" y="419"/>
      <point x="188" y="473" type="curve" smooth="yes"/>
      <point x="140" y="517"/>
      <point x="76" y="540"/>
      <point x="-31" y="540" type="curve" smooth="yes"/>
      <point x="-148" y="540" type="line"/>
      <point x="-148" y="515" type="line"/>
      <point x="-37" y="515" type="line" smooth="yes"/>
      <point x="71" y="515"/>
      <point x="127" y="493"/>
      <point x="170" y="454" type="curve" smooth="yes"/>
      <point x="224" y="404"/>
      <point x="246" y="329"/>
      <point x="246" y="230" type="curve" smooth="yes"/>
      <point x="246" y="59"/>
      <point x="196" y="14"/>
      <point x="136" y="14" type="curve" smooth="yes"/>
      <point x="80" y="14"/>
      <point x="51" y="50"/>
      <point x="51" y="133" type="curve" smooth="yes"/>
      <point x="51" y="178"/>
      <point x="66" y="225"/>
      <point x="92" y="245" type="curve"/>
      <point x="72" y="237" type="line"/>
      <point x="72" y="213"/>
      <point x="83" y="201"/>
      <point x="100" y="201" type="curve" smooth="yes"/>
      <point x="114" y="201"/>
      <point x="125" y="207"/>
      <point x="125" y="228" type="curve" smooth="yes"/>
      <point x="125" y="244"/>
      <point x="116" y="258"/>
      <point x="93" y="258" type="curve" smooth="yes"/>
      <point x="56" y="258"/>
      <point x="24" y="217"/>
      <point x="24" y="134" type="curve" smooth="yes"/>
      <point x="24" y="38"/>
      <point x="65" y="-12"/>
      <point x="136" y="-12" type="curve" smooth="yes"/>
      <point x="213" y="-12"/>
      <point x="272" y="47"/>
    </contour>
  </outline>
</glyph>
<glyph name="ivowelsignknda" format="2">
  <advance width="258"/>
  <unicode hex="0CBF"/>
  <outline>
    <contour>
      <point x="100" y="331" type="curve" smooth="yes"/>
      <point x="178" y="331"/>
      <point x="234" y="379"/>
      <point x="234" y="502" type="curve" smooth="yes"/>
      <point x="234" y="619"/>
      <point x="183" y="702"/>
      <point x="100" y="702" type="curve" smooth="yes"/>
      <point x="36" y="702"/>
      <point x="-8" y="656"/>
      <point x="-8" y="596" type="curve" smooth="yes"/>
      <point x="-8" y="526"/>
      <point x="32" y="491"/>
      <point x="93" y="491" type="curve" smooth="yes"/>
      <point x="150" y="491"/>
      <point x="191" y="515"/>
      <point x="222" y="555" type="curve"/>
      <point x="212" y="579" type="line"/>
      <point x="182" y="536"/>
      <point x="138" y="517"/>
      <point x="93" y="517" type="curve" smooth="yes"/>
      <point x="42" y="517"/>
      <point x="19" y="544"/>
      <point x="19" y="595" type="curve" smooth="yes"/>
      <point x="19" y="640"/>
      <point x="46" y="676"/>
      <point x="99" y="676" type="curve" smooth="yes"/>
      <point x="172" y="676"/>
      <point x="207" y="599"/>
      <point x="207" y="506" type="curve" smooth="yes"/>
      <point x="207" y="500" type="line" smooth="yes"/>
      <point x="207" y="390"/>
      <point x="161" y="357"/>
      <point x="102" y="357" type="curve" smooth="yes"/>
      <point x="25" y="357"/>
      <point x="-14" y="419"/>
      <point x="-39" y="461" type="curve"/>
      <point x="-57" y="448" type="line"/>
      <point x="-26" y="391"/>
      <point x="20" y="331"/>
    </contour>
  </outline>
</glyph>
<glyph name="uvowelsignknda" format="2">
  <advance width="269"/>
  <unicode hex="0CC1"/>
  <outline>
    <contour>
      <point x="87" y="-12" type="curve" smooth="yes"/>
      <point x="175" y="-12"/>
      <point x="228" y="61"/>
      <point x="228" y="192" type="curve" smooth="yes"/>
      <point x="228" y="366"/>
      <point x="140" y="480"/>
      <point x="49" y="553" type="curve"/>
      <point x="33" y="533" type="line"/>
      <point x="125" y="458"/>
      <point x="201" y="351"/>
      <point x="201" y="193" type="curve" smooth="yes"/>
      <point x="201" y="75"/>
      <point x="161" y="14"/>
      <point x="86" y="14" type="curve" smooth="yes"/>
      <point x="27" y="14"/>
      <point x="-20" y="44"/>
      <point x="-65" y="111" type="curve"/>
      <point x="-78" y="87" type="line"/>
      <point x="-31" y="23"/>
      <point x="15" y="-12"/>
    </contour>
  </outline>
</glyph>
<glyph name="uuvowelsignknda" format="2">
  <advance width="528"/>
  <unicode hex="0CC2"/>
  <outline>
    <contour>
      <point x="55" y="-12" type="curve" smooth="yes"/>
      <point x="130" y="-12"/>
      <point x="162" y="33"/>
      <point x="162" y="124" type="curve" smooth="yes"/>
      <point x="162" y="213"/>
      <point x="153" y="254"/>
      <point x="153" y="333" type="curve" smooth="yes"/>
      <point x="153" y="455"/>
      <point x="201" y="526"/>
      <point x="291" y="526" type="curve" smooth="yes"/>
      <point x="403" y="526"/>
      <point x="460" y="420"/>
      <point x="460" y="230" type="curve" smooth="yes"/>
      <point x="460" y="59"/>
      <point x="410" y="14"/>
      <point x="350" y="14" type="curve" smooth="yes"/>
      <point x="294" y="14"/>
      <point x="265" y="50"/>
      <point x="265" y="133" type="curve" smooth="yes"/>
      <point x="265" y="178"/>
      <point x="280" y="225"/>
      <point x="306" y="245" type="curve"/>
      <point x="286" y="237" type="line"/>
      <point x="286" y="213"/>
      <point x="297" y="201"/>
      <point x="314" y="201" type="curve" smooth="yes"/>
      <point x="328" y="201"/>
      <point x="339" y="207"/>
      <point x="339" y="228" type="curve" smooth="yes"/>
      <point x="339" y="244"/>
      <point x="330" y="258"/>
      <point x="307" y="258" type="curve" smooth="yes"/>
      <point x="270" y="258"/>
      <point x="238" y="217"/>
      <point x="238" y="134" type="curve" smooth="yes"/>
      <point x="238" y="38"/>
      <point x="279" y="-12"/>
      <point x="350" y="-12" type="curve" smooth="yes"/>
      <point x="427" y="-12"/>
      <point x="486" y="47"/>
      <point x="486" y="229" type="curve" smooth="yes"/>
      <point x="486" y="442"/>
      <point x="415" y="552"/>
      <point x="291" y="552" type="curve" smooth="yes"/>
      <point x="188" y="552"/>
      <point x="127" y="471"/>
      <point x="127" y="337" type="curve" smooth="yes"/>
      <point x="127" y="265"/>
      <point x="136" y="210"/>
      <point x="136" y="129" type="curve" smooth="yes"/>
      <point x="136" y="54"/>
      <point x="121" y="14"/>
      <point x="56" y="14" type="curve" smooth="yes"/>
      <point x="14" y="14"/>
      <point x="-25" y="38"/>
      <point x="-69" y="101" type="curve"/>
      <point x="-82" y="76" type="line"/>
      <point x="-32" y="12"/>
      <point x="9" y="-12"/>
    </contour>
  </outline>
</glyph>
<glyph name="rvocalicvowelsignknda" format="2">
  <advance width="91"/>
  <unicode hex="0CC3"/>
  <outline>
    <contour>
      <point x="-82" y="-408" type="curve" smooth="yes"/>
      <point x="20" y="-408"/>
      <point x="89" y="-333"/>
      <point x="89" y="-157" type="curve" smooth="yes"/>
      <point x="89" y="-65"/>
      <point x="63" y="6"/>
      <point x="34" y="64" type="curve"/>
      <point x="9" y="52" type="line"/>
      <point x="40" y="-2"/>
      <point x="62" y="-76"/>
      <point x="62" y="-158" type="curve" smooth="yes"/>
      <point x="62" y="-325"/>
      <point x="3" y="-382"/>
      <point x="-84" y="-382" type="curve" smooth="yes"/>
      <point x="-152" y="-382"/>
      <point x="-202" y="-339"/>
      <point x="-202" y="-224" type="curve" smooth="yes"/>
      <point x="-202" y="-217" type="line" smooth="yes"/>
      <point x="-202" y="-150"/>
      <point x="-175" y="-92"/>
      <point x="-124" y="-92" type="curve" smooth="yes"/>
      <point x="-92" y="-92"/>
      <point x="-72" y="-117"/>
      <point x="-72" y="-162" type="curve" smooth="yes"/>
      <point x="-72" y="-208"/>
      <point x="-95" y="-233"/>
      <point x="-140" y="-233" type="curve" smooth="yes"/>
      <point x="-173" y="-233"/>
      <point x="-196" y="-222"/>
      <point x="-214" y="-204" type="curve"/>
      <point x="-215" y="-230" type="line"/>
      <point x="-197" y="-246"/>
      <point x="-170" y="-258"/>
      <point x="-140" y="-258" type="curve" smooth="yes"/>
      <point x="-73" y="-258"/>
      <point x="-46" y="-215"/>
      <point x="-46" y="-162" type="curve" smooth="yes"/>
      <point x="-46" y="-108"/>
      <point x="-73" y="-67"/>
      <point x="-124" y="-67" type="curve" smooth="yes"/>
      <point x="-185" y="-67"/>
      <point x="-227" y="-125"/>
      <point x="-227" y="-222" type="curve" smooth="yes"/>
      <point x="-227" y="-347"/>
      <point x="-173" y="-408"/>
    </contour>
  </outline>
</glyph>
<glyph name="rrvocalicvowelsignknda" format="2">
  <advance width="341"/>
  <unicode hex="0CC4"/>
  <outline>
    <contour>
      <point x="-82" y="-408" type="curve" smooth="yes"/>
      <point x="20" y="-408"/>
      <point x="89" y="-333"/>
      <point x="89" y="-157" type="curve" smooth="yes"/>
      <point x="89" y="-71"/>
      <point x="66" y="-2"/>
      <point x="36" y="54" type="curve"/>
      <point x="27" y="70" type="line"/>
      <point x="11" y="49" type="line"/>
      <point x="41" y="-5"/>
      <point x="62" y="-76"/>
      <point x="62" y="-158" type="curve" smooth="yes"/>
      <point x="62" y="-325"/>
      <point x="3" y="-382"/>
      <point x="-84" y="-382" type="curve" smooth="yes"/>
      <point x="-152" y="-382"/>
      <point x="-202" y="-339"/>
      <point x="-202" y="-224" type="curve" smooth="yes"/>
      <point x="-202" y="-217" type="line" smooth="yes"/>
      <point x="-202" y="-150"/>
      <point x="-175" y="-92"/>
      <point x="-124" y="-92" type="curve" smooth="yes"/>
      <point x="-92" y="-92"/>
      <point x="-72" y="-117"/>
      <point x="-72" y="-162" type="curve" smooth="yes"/>
      <point x="-72" y="-208"/>
      <point x="-95" y="-233"/>
      <point x="-140" y="-233" type="curve" smooth="yes"/>
      <point x="-173" y="-233"/>
      <point x="-196" y="-222"/>
      <point x="-214" y="-204" type="curve"/>
      <point x="-215" y="-230" type="line"/>
      <point x="-197" y="-246"/>
      <point x="-170" y="-258"/>
      <point x="-140" y="-258" type="curve" smooth="yes"/>
      <point x="-73" y="-258"/>
      <point x="-46" y="-215"/>
      <point x="-46" y="-162" type="curve" smooth="yes"/>
      <point x="-46" y="-108"/>
      <point x="-73" y="-67"/>
      <point x="-124" y="-67" type="curve" smooth="yes"/>
      <point x="-185" y="-67"/>
      <point x="-227" y="-125"/>
      <point x="-227" y="-222" type="curve" smooth="yes"/>
      <point x="-227" y="-347"/>
      <point x="-173" y="-408"/>
    </contour>
    <contour>
      <point x="240" y="-338" type="curve" smooth="yes"/>
      <point x="314" y="-338"/>
      <point x="352" y="-284"/>
      <point x="352" y="-159" type="curve" smooth="yes"/>
      <point x="352" y="-80"/>
      <point x="331" y="-20"/>
      <point x="288" y="19" type="curve" smooth="yes"/>
      <point x="251" y="52"/>
      <point x="203" y="70"/>
      <point x="111" y="70" type="curve" smooth="yes"/>
      <point x="27" y="70" type="line"/>
      <point x="29" y="45" type="line"/>
      <point x="109" y="45" type="line" smooth="yes"/>
      <point x="198" y="45"/>
      <point x="238" y="29"/>
      <point x="271" y="-1" type="curve" smooth="yes"/>
      <point x="309" y="-36"/>
      <point x="325" y="-95"/>
      <point x="325" y="-159" type="curve" smooth="yes"/>
      <point x="325" y="-269"/>
      <point x="298" y="-313"/>
      <point x="240" y="-313" type="curve" smooth="yes"/>
      <point x="193" y="-313"/>
      <point x="171" y="-278"/>
      <point x="171" y="-226" type="curve" smooth="yes"/>
      <point x="171" y="-188"/>
      <point x="184" y="-164"/>
      <point x="200" y="-152" type="curve"/>
      <point x="185" y="-154" type="line"/>
      <point x="186" y="-174"/>
      <point x="194" y="-185"/>
      <point x="210" y="-185" type="curve" smooth="yes"/>
      <point x="221" y="-185"/>
      <point x="231" y="-179"/>
      <point x="231" y="-162" type="curve" smooth="yes"/>
      <point x="231" y="-146"/>
      <point x="223" y="-133"/>
      <point x="201" y="-133" type="curve" smooth="yes"/>
      <point x="173" y="-133"/>
      <point x="145" y="-167"/>
      <point x="145" y="-226" type="curve" smooth="yes"/>
      <point x="145" y="-294"/>
      <point x="179" y="-338"/>
    </contour>
  </outline>
</glyph>
<glyph name="evowelsignknda" format="2">
  <unicode hex="0CC6"/>
  <outline>
    <contour>
      <point x="-502" y="515" type="line"/>
      <point x="-213" y="515" type="line" smooth="yes"/>
      <point x="-140" y="515"/>
      <point x="-103" y="526"/>
      <point x="-75" y="555" type="curve" smooth="yes"/>
      <point x="-52" y="578"/>
      <point x="-40" y="615"/>
      <point x="-40" y="662" type="curve" smooth="yes"/>
      <point x="-40" y="739"/>
      <point x="-84" y="794"/>
      <point x="-153" y="794" type="curve" smooth="yes"/>
      <point x="-211" y="794"/>
      <point x="-255" y="751"/>
      <point x="-255" y="681" type="curve" smooth="yes"/>
      <point x="-255" y="638"/>
      <point x="-238" y="613"/>
      <point x="-210" y="613" type="curve" smooth="yes"/>
      <point x="-195" y="613"/>
      <point x="-185" y="621"/>
      <point x="-185" y="636" type="curve" smooth="yes"/>
      <point x="-185" y="649"/>
      <point x="-192" y="659"/>
      <point x="-206" y="659" type="curve" smooth="yes"/>
      <point x="-217" y="659"/>
      <point x="-225" y="653"/>
      <point x="-229" y="645" type="curve"/>
      <point x="-222" y="637" type="line"/>
      <point x="-227" y="650"/>
      <point x="-229" y="663"/>
      <point x="-229" y="680" type="curve" smooth="yes"/>
      <point x="-229" y="736"/>
      <point x="-198" y="769"/>
      <point x="-152" y="769" type="curve" smooth="yes"/>
      <point x="-102" y="769"/>
      <point x="-67" y="729"/>
      <point x="-67" y="661" type="curve" smooth="yes"/>
      <point x="-67" y="623"/>
      <point x="-75" y="593"/>
      <point x="-94" y="573" type="curve" smooth="yes"/>
      <point x="-115" y="551"/>
      <point x="-143" y="540"/>
      <point x="-213" y="540" type="curve" smooth="yes"/>
      <point x="-502" y="540" type="line"/>
    </contour>
  </outline>
</glyph>
<glyph name="auvowelsignknda" format="2">
  <advance width="295"/>
  <unicode hex="0CCC"/>
  <outline>
    <contour>
      <point x="4" y="626" type="curve" smooth="yes"/>
      <point x="4" y="668"/>
      <point x="-13" y="703"/>
      <point x="-34" y="728" type="curve"/>
      <point x="-61" y="726" type="line"/>
      <point x="-31" y="685"/>
      <point x="-22" y="651"/>
      <point x="-22" y="625" type="curve" smooth="yes"/>
      <point x="-22" y="598"/>
      <point x="-26" y="581"/>
      <point x="-41" y="565" type="curve" smooth="yes"/>
      <point x="-56" y="549"/>
      <point x="-84" y="540"/>
      <point x="-130" y="540" type="curve" smooth="yes"/>
      <point x="-195" y="540" type="line"/>
      <point x="-195" y="515" type="line"/>
      <point x="-129" y="515" type="line" smooth="yes"/>
      <point x="-77" y="515"/>
      <point x="-43" y="527"/>
      <point x="-22" y="548" type="curve" smooth="yes"/>
      <point x="-2" y="568"/>
      <point x="4" y="591"/>
    </contour>
    <contour>
      <point x="267" y="436" type="curve" smooth="yes"/>
      <point x="267" y="542"/>
      <point x="242" y="626"/>
      <point x="183" y="680" type="curve" smooth="yes"/>
      <point x="135" y="724"/>
      <point x="71" y="747"/>
      <point x="-36" y="747" type="curve" smooth="yes"/>
      <point x="-177" y="747" type="line"/>
      <point x="-177" y="722" type="line"/>
      <point x="-42" y="722" type="line" smooth="yes"/>
      <point x="66" y="722"/>
      <point x="122" y="700"/>
      <point x="165" y="661" type="curve" smooth="yes"/>
      <point x="219" y="611"/>
      <point x="241" y="536"/>
      <point x="241" y="437" type="curve" smooth="yes"/>
      <point x="241" y="266"/>
      <point x="191" y="221"/>
      <point x="131" y="221" type="curve" smooth="yes"/>
      <point x="75" y="221"/>
      <point x="46" y="257"/>
      <point x="46" y="340" type="curve" smooth="yes"/>
      <point x="46" y="385"/>
      <point x="61" y="432"/>
      <point x="87" y="452" type="curve"/>
      <point x="67" y="444" type="line"/>
      <point x="67" y="420"/>
      <point x="78" y="408"/>
      <point x="95" y="408" type="curve" smooth="yes"/>
      <point x="109" y="408"/>
      <point x="120" y="414"/>
      <point x="120" y="435" type="curve" smooth="yes"/>
      <point x="120" y="451"/>
      <point x="111" y="465"/>
      <point x="88" y="465" type="curve" smooth="yes"/>
      <point x="51" y="465"/>
      <point x="19" y="424"/>
      <point x="19" y="341" type="curve" smooth="yes"/>
      <point x="19" y="245"/>
      <point x="60" y="195"/>
      <point x="131" y="195" type="curve" smooth="yes"/>
      <point x="208" y="195"/>
      <point x="267" y="254"/>
    </contour>
  </outline>
</glyph>
<glyph name="viramaknda" format="2">
  <advance width="200"/>
  <unicode hex="0CCD"/>
  <outline>
    <contour>
      <point x="100" y="337" type="curve" smooth="yes"/>
      <point x="145" y="337"/>
      <point x="181" y="367"/>
      <point x="181" y="430" type="curve" smooth="yes"/>
      <point x="181" y="466"/>
      <point x="168" y="493"/>
      <point x="147" y="511" type="curve" smooth="yes"/>
      <point x="124" y="530"/>
      <point x="94" y="540"/>
      <point x="37" y="540" type="curve" smooth="yes"/>
      <point x="-148" y="540" type="line"/>
      <point x="-148" y="515" type="line"/>
      <point x="38" y="515" type="line" smooth="yes"/>
      <point x="88" y="515"/>
      <point x="115" y="506"/>
      <point x="132" y="490" type="curve" smooth="yes"/>
      <point x="148" y="475"/>
      <point x="154" y="455"/>
      <point x="154" y="430" type="curve" smooth="yes"/>
      <point x="154" y="378"/>
      <point x="128" y="362"/>
      <point x="99" y="362" type="curve" smooth="yes"/>
      <point x="49" y="362"/>
      <point x="26" y="405"/>
      <point x="26" y="488" type="curve" smooth="yes"/>
      <point x="26" y="478" type="line" smooth="yes"/>
      <point x="26" y="594"/>
      <point x="61" y="650"/>
      <point x="140" y="650" type="curve" smooth="yes"/>
      <point x="164" y="650"/>
      <point x="187" y="644"/>
      <point x="207" y="633" type="curve"/>
      <point x="220" y="657" type="line"/>
      <point x="199" y="668"/>
      <point x="173" y="676"/>
      <point x="140" y="676" type="curve" smooth="yes"/>
      <point x="45" y="676"/>
      <point x="0" y="602"/>
      <point x="0" y="493" type="curve" smooth="yes"/>
      <point x="0" y="479" type="line" smooth="yes"/>
      <point x="0" y="381"/>
      <point x="39" y="337"/>
    </contour>
  </outline>
</glyph>
<glyph name="lengthmarkknda" format="2">
  <advance width="302"/>
  <unicode hex="0CD5"/>
  <outline>
    <contour>
      <point x="273" y="427" type="curve" smooth="yes"/>
      <point x="273" y="504"/>
      <point x="238" y="552"/>
      <point x="174" y="552" type="curve" smooth="yes"/>
      <point x="103" y="552"/>
      <point x="42" y="471"/>
      <point x="42" y="325" type="curve" smooth="yes"/>
      <point x="42" y="160"/>
      <point x="110" y="64"/>
      <point x="202" y="-12" type="curve"/>
      <point x="219" y="8" type="line"/>
      <point x="123" y="84"/>
      <point x="68" y="183"/>
      <point x="68" y="322" type="curve" smooth="yes"/>
      <point x="68" y="326" type="line" smooth="yes"/>
      <point x="68" y="456"/>
      <point x="118" y="526"/>
      <point x="174" y="526" type="curve" smooth="yes"/>
      <point x="225" y="526"/>
      <point x="246" y="489"/>
      <point x="246" y="428" type="curve" smooth="yes"/>
      <point x="246" y="360"/>
      <point x="219" y="323"/>
      <point x="151" y="323" type="curve" smooth="yes"/>
      <point x="120" y="323"/>
      <point x="86" y="336"/>
      <point x="59" y="366" type="curve"/>
      <point x="53" y="340" type="line"/>
      <point x="76" y="316"/>
      <point x="110" y="297"/>
      <point x="152" y="297" type="curve" smooth="yes"/>
      <point x="233" y="297"/>
      <point x="273" y="347"/>
    </contour>
  </outline>
</glyph>
<glyph name="ailengthmarkknda" format="2">
  <advance width="130"/>
  <unicode hex="0CD6"/>
  <outline>
    <contour>
      <point x="-54" y="-408" type="curve" smooth="yes"/>
      <point x="43" y="-408"/>
      <point x="115" y="-340"/>
      <point x="115" y="-197" type="curve" smooth="yes"/>
      <point x="115" y="-131"/>
      <point x="92" y="-75"/>
      <point x="60" y="-32" type="curve"/>
      <point x="59" y="-52" type="line"/>
      <point x="91" y="-14"/>
      <point x="109" y="14"/>
      <point x="109" y="59" type="curve" smooth="yes"/>
      <point x="109" y="112"/>
      <point x="85" y="153"/>
      <point x="36" y="201" type="curve"/>
      <point x="17" y="183" type="line"/>
      <point x="59" y="142"/>
      <point x="82" y="109"/>
      <point x="82" y="58" type="curve" smooth="yes"/>
      <point x="82" y="20"/>
      <point x="66" y="-8"/>
      <point x="35" y="-41" type="curve"/>
      <point x="62" y="-76"/>
      <point x="88" y="-127"/>
      <point x="88" y="-198" type="curve" smooth="yes"/>
      <point x="88" y="-327"/>
      <point x="27" y="-382"/>
      <point x="-53" y="-382" type="curve" smooth="yes"/>
      <point x="-130" y="-382"/>
      <point x="-179" y="-339"/>
      <point x="-179" y="-225" type="curve" smooth="yes"/>
      <point x="-179" y="-219" type="line" smooth="yes"/>
      <point x="-179" y="-150"/>
      <point x="-152" y="-92"/>
      <point x="-101" y="-92" type="curve" smooth="yes"/>
      <point x="-69" y="-92"/>
      <point x="-49" y="-117"/>
      <point x="-49" y="-162" type="curve" smooth="yes"/>
      <point x="-49" y="-208"/>
      <point x="-72" y="-233"/>
      <point x="-117" y="-233" type="curve" smooth="yes"/>
      <point x="-150" y="-233"/>
      <point x="-173" y="-222"/>
      <point x="-191" y="-204" type="curve"/>
      <point x="-192" y="-230" type="line"/>
      <point x="-174" y="-246"/>
      <point x="-147" y="-258"/>
      <point x="-117" y="-258" type="curve" smooth="yes"/>
      <point x="-50" y="-258"/>
      <point x="-23" y="-215"/>
      <point x="-23" y="-162" type="curve" smooth="yes"/>
      <point x="-23" y="-108"/>
      <point x="-50" y="-67"/>
      <point x="-101" y="-67" type="curve" smooth="yes"/>
      <point x="-162" y="-67"/>
      <point x="-204" y="-125"/>
      <point x="-204" y="-222" type="curve" smooth="yes"/>
      <point x="-204" y="-350"/>
      <point x="-148" y="-408"/>
    </contour>
  </outline>
</glyph>
<glyph name="faknda" format="2">
  <advance width="611"/>
  <unicode hex="0CDE"/>
  <outline>
    <contour>
      <point x="190" y="-12" type="curve" smooth="yes"/>
      <point x="267" y="-12"/>
      <point x="297" y="44"/>
      <point x="306" y="130" type="curve"/>
      <point x="303" y="130" type="line"/>
      <point x="313" y="44"/>
      <point x="345" y="-12"/>
      <point x="422" y="-12" type="curve" smooth="yes"/>
      <point x="496" y="-12"/>
      <point x="566" y="37"/>
      <point x="566" y="245" type="curve" smooth="yes"/>
      <point x="566" y="438"/>
      <point x="512" y="552"/>
      <point x="425" y="552" type="curve" smooth="yes"/>
      <point x="369" y="552"/>
      <point x="336" y="505"/>
      <point x="336" y="435" type="curve" smooth="yes"/>
      <point x="336" y="359"/>
      <point x="373" y="309"/>
      <point x="449" y="309" type="curve" smooth="yes"/>
      <point x="493" y="309"/>
      <point x="528" y="328"/>
      <point x="549" y="351" type="curve"/>
      <point x="543" y="377" type="line"/>
      <point x="518" y="348"/>
      <point x="487" y="335"/>
      <point x="452" y="335" type="curve" smooth="yes"/>
      <point x="389" y="335"/>
      <point x="363" y="369"/>
      <point x="363" y="434" type="curve" smooth="yes"/>
      <point x="363" y="494"/>
      <point x="384" y="526"/>
      <point x="425" y="526" type="curve" smooth="yes"/>
      <point x="495" y="526"/>
      <point x="539" y="421"/>
      <point x="539" y="245" type="curve" smooth="yes"/>
      <point x="539" y="46"/>
      <point x="477" y="14"/>
      <point x="421" y="14" type="curve" smooth="yes"/>
      <point x="354" y="14"/>
      <point x="324" y="68"/>
      <point x="317" y="178" type="curve"/>
      <point x="293" y="178" type="line"/>
      <point x="287" y="68"/>
      <point x="257" y="14"/>
      <point x="190" y="14" type="curve" smooth="yes"/>
      <point x="134" y="14"/>
      <point x="72" y="45"/>
      <point x="72" y="245" type="curve" smooth="yes"/>
      <point x="72" y="421"/>
      <point x="116" y="526"/>
      <point x="186" y="526" type="curve" smooth="yes"/>
      <point x="227" y="526"/>
      <point x="248" y="494"/>
      <point x="248" y="434" type="curve" smooth="yes"/>
      <point x="248" y="369"/>
      <point x="221" y="335"/>
      <point x="159" y="335" type="curve" smooth="yes"/>
      <point x="124" y="335"/>
      <point x="93" y="348"/>
      <point x="68" y="377" type="curve"/>
      <point x="62" y="351" type="line"/>
      <point x="83" y="328"/>
      <point x="118" y="309"/>
      <point x="162" y="309" type="curve" smooth="yes"/>
      <point x="238" y="309"/>
      <point x="275" y="359"/>
      <point x="275" y="436" type="curve" smooth="yes"/>
      <point x="275" y="505"/>
      <point x="242" y="552"/>
      <point x="186" y="552" type="curve" smooth="yes"/>
      <point x="99" y="552"/>
      <point x="45" y="438"/>
      <point x="45" y="245" type="curve" smooth="yes"/>
      <point x="45" y="37"/>
      <point x="115" y="-12"/>
    </contour>
  </outline>
</glyph>
<glyph name="rrvocalicknda" format="2">
  <advance width="1146"/>
  <unicode hex="0CE0"/>
  <outline>
    <contour>
      <point x="150" y="-12" type="curve" smooth="yes"/>
      <point x="271" y="-12"/>
      <point x="309" y="122"/>
      <point x="309" y="273" type="curve" smooth="yes"/>
      <point x="309" y="401"/>
      <point x="256" y="552"/>
      <point x="143" y="552" type="curve" smooth="yes"/>
      <point x="77" y="552"/>
      <point x="32" y="506"/>
      <point x="32" y="435" type="curve" smooth="yes"/>
      <point x="32" y="358"/>
      <point x="70" y="322"/>
      <point x="117" y="322" type="curve" smooth="yes"/>
      <point x="166" y="322"/>
      <point x="204" y="350"/>
      <point x="204" y="428" type="curve" smooth="yes"/>
      <point x="204" y="473"/>
      <point x="188" y="505"/>
      <point x="168" y="534" type="curve"/>
      <point x="143" y="529" type="line"/>
      <point x="165" y="503"/>
      <point x="177" y="467"/>
      <point x="177" y="430" type="curve" smooth="yes"/>
      <point x="177" y="365"/>
      <point x="150" y="348"/>
      <point x="118" y="348" type="curve" smooth="yes"/>
      <point x="84" y="348"/>
      <point x="59" y="371"/>
      <point x="59" y="435" type="curve" smooth="yes"/>
      <point x="59" y="492"/>
      <point x="89" y="526"/>
      <point x="144" y="526" type="curve" smooth="yes"/>
      <point x="149" y="526"/>
      <point x="153" y="526"/>
      <point x="158" y="525" type="curve" smooth="yes"/>
      <point x="162" y="524"/>
      <point x="166" y="525"/>
      <point x="170" y="524" type="curve" smooth="yes"/>
      <point x="253" y="496"/>
      <point x="282" y="358"/>
      <point x="282" y="273" type="curve" smooth="yes"/>
      <point x="282" y="141"/>
      <point x="254" y="28"/>
      <point x="168" y="14" type="curve" smooth="yes"/>
      <point x="166" y="14"/>
      <point x="164" y="15"/>
      <point x="162" y="15" type="curve" smooth="yes"/>
      <point x="158" y="15"/>
      <point x="154" y="14"/>
      <point x="150" y="14" type="curve" smooth="yes"/>
      <point x="89" y="14"/>
      <point x="62" y="47"/>
      <point x="62" y="107" type="curve" smooth="yes"/>
      <point x="62" y="168"/>
      <point x="88" y="194"/>
      <point x="123" y="194" type="curve" smooth="yes"/>
      <point x="154" y="194"/>
      <point x="180" y="171"/>
      <point x="180" y="112" type="curve" smooth="yes"/>
      <point x="180" y="67"/>
      <point x="165" y="32"/>
      <point x="141" y="5" type="curve"/>
      <point x="171" y="6" type="line"/>
      <point x="191" y="33"/>
      <point x="207" y="69"/>
      <point x="207" y="114" type="curve" smooth="yes"/>
      <point x="207" y="177"/>
      <point x="173" y="220"/>
      <point x="123" y="220" type="curve" smooth="yes"/>
      <point x="77" y="220"/>
      <point x="35" y="184"/>
      <point x="35" y="107" type="curve" smooth="yes"/>
      <point x="35" y="36"/>
      <point x="73" y="-12"/>
    </contour>
    <contour>
      <point x="436" y="-12" type="curve" smooth="yes"/>
      <point x="524" y="-12"/>
      <point x="577" y="61"/>
      <point x="577" y="192" type="curve" smooth="yes"/>
      <point x="577" y="356"/>
      <point x="500" y="472"/>
      <point x="401" y="530" type="curve"/>
      <point x="381" y="518" type="line"/>
      <point x="480" y="458"/>
      <point x="550" y="343"/>
      <point x="550" y="193" type="curve" smooth="yes"/>
      <point x="550" y="75"/>
      <point x="510" y="14"/>
      <point x="435" y="14" type="curve" smooth="yes"/>
      <point x="375" y="14"/>
      <point x="328" y="45"/>
      <point x="282" y="114" type="curve"/>
      <point x="269" y="90" type="line"/>
      <point x="316" y="24"/>
      <point x="363" y="-12"/>
    </contour>
    <contour>
      <point x="334" y="515" type="line"/>
      <point x="403" y="515" type="line" smooth="yes"/>
      <point x="477" y="515"/>
      <point x="505" y="526"/>
      <point x="527" y="550" type="curve" smooth="yes"/>
      <point x="544" y="569"/>
      <point x="553" y="597"/>
      <point x="553" y="630" type="curve" smooth="yes"/>
      <point x="553" y="675"/>
      <point x="533" y="724"/>
      <point x="493" y="778" type="curve"/>
      <point x="472" y="763" type="line"/>
      <point x="510" y="708"/>
      <point x="526" y="673"/>
      <point x="526" y="630" type="curve" smooth="yes"/>
      <point x="526" y="605"/>
      <point x="521" y="583"/>
      <point x="509" y="569" type="curve" smooth="yes"/>
      <point x="492" y="549"/>
      <point x="468" y="540"/>
      <point x="399" y="540" type="curve" smooth="yes"/>
      <point x="334" y="540" type="line"/>
    </contour>
    <component base="uuvowelsignknda" xOffset="618"/>
  </outline>
</glyph>
<glyph name="llvocalicknda" format="2">
  <advance width="518"/>
  <unicode hex="0CE1"/>
  <outline>
    <contour>
      <point x="509" y="33" type="curve"/>
      <point x="495" y="56" type="line"/>
      <point x="456" y="27"/>
      <point x="424" y="14"/>
      <point x="380" y="14" type="curve" smooth="yes"/>
      <point x="316" y="14"/>
      <point x="285" y="56"/>
      <point x="285" y="113" type="curve" smooth="yes"/>
      <point x="285" y="169"/>
      <point x="306" y="200"/>
      <point x="354" y="248" type="curve" smooth="yes"/>
      <point x="408" y="302"/>
      <point x="440" y="347"/>
      <point x="440" y="426" type="curve" smooth="yes"/>
      <point x="440" y="504"/>
      <point x="400" y="552"/>
      <point x="340" y="552" type="curve" smooth="yes"/>
      <point x="280" y="552"/>
      <point x="237" y="510"/>
      <point x="227" y="407" type="curve"/>
      <point x="232" y="407" type="line"/>
      <point x="225" y="496"/>
      <point x="191" y="552"/>
      <point x="125" y="552" type="curve" smooth="yes"/>
      <point x="67" y="552"/>
      <point x="29" y="502"/>
      <point x="29" y="434" type="curve" smooth="yes"/>
      <point x="29" y="394"/>
      <point x="37" y="363"/>
      <point x="49" y="332" type="curve"/>
      <point x="74" y="339" type="line"/>
      <point x="63" y="368"/>
      <point x="56" y="397"/>
      <point x="56" y="432" type="curve" smooth="yes"/>
      <point x="56" y="490"/>
      <point x="81" y="526"/>
      <point x="126" y="526" type="curve" smooth="yes"/>
      <point x="177" y="526"/>
      <point x="212" y="473"/>
      <point x="217" y="371" type="curve"/>
      <point x="241" y="371" type="line"/>
      <point x="247" y="470"/>
      <point x="284" y="526"/>
      <point x="340" y="526" type="curve" smooth="yes"/>
      <point x="384" y="526"/>
      <point x="413" y="490"/>
      <point x="413" y="426" type="curve" smooth="yes"/>
      <point x="413" y="355"/>
      <point x="387" y="316"/>
      <point x="334" y="264" type="curve" smooth="yes"/>
      <point x="284" y="215"/>
      <point x="258" y="178"/>
      <point x="258" y="114" type="curve" smooth="yes"/>
      <point x="258" y="46"/>
      <point x="297" y="-12"/>
      <point x="380" y="-12" type="curve" smooth="yes"/>
      <point x="430" y="-12"/>
      <point x="474" y="6"/>
    </contour>
    <contour>
      <point x="323" y="16" type="curve"/>
      <point x="301" y="30" type="line"/>
      <point x="279" y="-1"/>
      <point x="267" y="-31"/>
      <point x="267" y="-74" type="curve" smooth="yes"/>
      <point x="267" y="-142"/>
      <point x="306" y="-200"/>
      <point x="389" y="-200" type="curve" smooth="yes"/>
      <point x="439" y="-200"/>
      <point x="483" y="-182"/>
      <point x="518" y="-155" type="curve"/>
      <point x="504" y="-132" type="line"/>
      <point x="465" y="-161"/>
      <point x="433" y="-174"/>
      <point x="389" y="-174" type="curve" smooth="yes"/>
      <point x="325" y="-174"/>
      <point x="294" y="-132"/>
      <point x="294" y="-75" type="curve" smooth="yes"/>
      <point x="294" y="-38"/>
      <point x="303" y="-12"/>
    </contour>
  </outline>
</glyph>
<glyph name="lvocalicvowelsignknda" format="2">
  <advance width="68"/>
  <unicode hex="0CE2"/>
  <outline>
    <contour>
      <point x="87" y="-174" type="curve" smooth="yes"/>
      <point x="87" y="-88"/>
      <point x="43" y="-58"/>
      <point x="4" y="-58" type="curve" smooth="yes"/>
      <point x="-42" y="-58"/>
      <point x="-72" y="-93"/>
      <point x="-81" y="-158" type="curve"/>
      <point x="-73" y="-158" type="line"/>
      <point x="-84" y="-86"/>
      <point x="-112" y="-58"/>
      <point x="-155" y="-58" type="curve" smooth="yes"/>
      <point x="-200" y="-58"/>
      <point x="-229" y="-96"/>
      <point x="-229" y="-149" type="curve" smooth="yes"/>
      <point x="-229" y="-175"/>
      <point x="-224" y="-201"/>
      <point x="-217" y="-225" type="curve"/>
      <point x="-192" y="-219" type="line"/>
      <point x="-199" y="-196"/>
      <point x="-203" y="-174"/>
      <point x="-203" y="-149" type="curve" smooth="yes"/>
      <point x="-203" y="-110"/>
      <point x="-185" y="-83"/>
      <point x="-154" y="-83" type="curve" smooth="yes"/>
      <point x="-115" y="-83"/>
      <point x="-95" y="-120"/>
      <point x="-89" y="-182" type="curve"/>
      <point x="-65" y="-182" type="line"/>
      <point x="-59" y="-127"/>
      <point x="-41" y="-83"/>
      <point x="3" y="-83" type="curve" smooth="yes"/>
      <point x="46" y="-83"/>
      <point x="61" y="-128"/>
      <point x="61" y="-174" type="curve" smooth="yes"/>
      <point x="61" y="-198"/>
      <point x="57" y="-219"/>
      <point x="52" y="-230" type="curve"/>
      <point x="72" y="-247" type="line"/>
      <point x="79" y="-235"/>
      <point x="87" y="-205"/>
    </contour>
    <contour>
      <point x="49" y="-444" type="curve" smooth="yes"/>
      <point x="69" y="-444"/>
      <point x="85" y="-441"/>
      <point x="103" y="-434" type="curve"/>
      <point x="96" y="-410" type="line"/>
      <point x="80" y="-416"/>
      <point x="67" y="-419"/>
      <point x="49" y="-419" type="curve" smooth="yes"/>
      <point x="15" y="-419"/>
      <point x="-26" y="-405"/>
      <point x="-26" y="-348" type="curve" smooth="yes"/>
      <point x="-26" y="-287"/>
      <point x="18" y="-261"/>
      <point x="72" y="-247" type="curve"/>
      <point x="63" y="-224" type="line"/>
      <point x="-17" y="-246"/>
      <point x="-52" y="-288"/>
      <point x="-52" y="-348" type="curve" smooth="yes"/>
      <point x="-52" y="-412"/>
      <point x="-9" y="-444"/>
    </contour>
  </outline>
</glyph>
